<?xml version="1.0" encoding="utf-8"?>
<!-- Generator: Adobe Illustrator 18.0.0, SVG Export Plug-In . SVG Version: 6.00 Build 0)  -->
<!DOCTYPE svg PUBLIC "-//W3C//DTD SVG 1.1//EN" "http://www.w3.org/Graphics/SVG/1.1/DTD/svg11.dtd">
<svg width="20" height="12" viewBox="0 0 20 12" fill="none" xmlns="http://www.w3.org/2000/svg">
    <path fill-rule="evenodd" clip-rule="evenodd" d="M7.24801 11.6482C7.02298 11.8731 6.71781 11.9995 6.39961 11.9995C6.08141 11.9995 5.77624 11.8731 5.55121 11.6482L0.75121 6.84817C0.526246 6.62313 0.399867 6.31796 0.399867 5.99977C0.399867 5.68157 0.526246 5.3764 0.75121 5.15137L5.55121 0.351368C5.77753 0.132778 6.08066 0.0118253 6.39529 0.0145595C6.70993 0.0172928 7.0109 0.143495 7.23339 0.365986C7.45588 0.588475 7.58209 0.889451 7.58482 1.20409C7.58755 1.51872 7.4666 1.82184 7.24801 2.04817L4.49641 4.79977L18.3996 4.79977C18.7179 4.79977 19.0231 4.9262 19.2481 5.15124C19.4732 5.37628 19.5996 5.68151 19.5996 5.99977C19.5996 6.31803 19.4732 6.62325 19.2481 6.8483C19.0231 7.07334 18.7179 7.19977 18.3996 7.19977L4.49641 7.19977L7.24801 9.95137C7.47297 10.1764 7.59935 10.4816 7.59935 10.7998C7.59935 11.118 7.47297 11.4231 7.24801 11.6482Z" fill="#0A2239"/>
</svg>
