<?xml version="1.0" encoding="utf-8"?>
<!-- Generator: Adobe Illustrator 18.0.0, SVG Export Plug-In . SVG Version: 6.00 Build 0)  -->
<!DOCTYPE svg PUBLIC "-//W3C//DTD SVG 1.1//EN" "http://www.w3.org/Graphics/SVG/1.1/DTD/svg11.dtd">
<svg width="20" height="12" viewBox="0 0 20 12" fill="none" xmlns="http://www.w3.org/2000/svg">
    <path fill-rule="evenodd" clip-rule="evenodd" d="M12.752 0.351832C12.977 0.126867 13.2822 0.000488281 13.6004 0.000488281C13.9186 0.000488281 14.2238 0.126867 14.4488 0.351832L19.2488 5.15183C19.4738 5.37686 19.6001 5.68203 19.6001 6.00023C19.6001 6.31843 19.4738 6.6236 19.2488 6.84863L14.4488 11.6486C14.2225 11.8672 13.9193 11.9882 13.6047 11.9854C13.2901 11.9827 12.9891 11.8565 12.7666 11.634C12.5441 11.4115 12.4179 11.1105 12.4152 10.7959C12.4124 10.4813 12.5334 10.1782 12.752 9.95183L15.5036 7.20023H1.60039C1.28213 7.20023 0.976906 7.0738 0.751862 6.84876C0.526819 6.62372 0.400391 6.31849 0.400391 6.00023C0.400391 5.68197 0.526819 5.37675 0.751862 5.1517C0.976906 4.92666 1.28213 4.80023 1.60039 4.80023H15.5036L12.752 2.04863C12.527 1.8236 12.4006 1.51843 12.4006 1.20023C12.4006 0.882035 12.527 0.576865 12.752 0.351832Z" fill="white"/>
</svg>
