<?xml version="1.0" encoding="utf-8"?>
<!-- Generator: Adobe Illustrator 18.0.0, SVG Export Plug-In . SVG Version: 6.00 Build 0)  -->
<!DOCTYPE svg PUBLIC "-//W3C//DTD SVG 1.1//EN" "http://www.w3.org/Graphics/SVG/1.1/DTD/svg11.dtd">
<svg width="9" height="8" viewBox="0 0 9 8" fill="none" xmlns="http://www.w3.org/2000/svg">
    <path fill-rule="evenodd" clip-rule="evenodd" d="M6.97065 0.970036C7.1106 0.831308 7.29952 0.753232 7.49658 0.752688C7.69363 0.752145 7.88299 0.829177 8.0237 0.967131C8.16441 1.10508 8.24518 1.29288 8.24854 1.4899C8.25189 1.68693 8.17758 1.87737 8.04165 2.02004L4.04965 7.01004C3.98104 7.08393 3.89823 7.14324 3.80618 7.1844C3.71413 7.22557 3.61472 7.24775 3.5139 7.24961C3.41308 7.25148 3.31292 7.233 3.2194 7.19527C3.12589 7.15754 3.04094 7.10134 2.96965 7.03004L0.324646 4.38404C0.250959 4.31537 0.191857 4.23257 0.150865 4.14057C0.109873 4.04858 0.087831 3.94926 0.0860542 3.84856C0.0842774 3.74786 0.102802 3.64783 0.140523 3.55444C0.178244 3.46105 0.234389 3.37622 0.305608 3.305C0.376826 3.23378 0.46166 3.17763 0.555048 3.13991C0.648436 3.10219 0.748466 3.08367 0.849169 3.08544C0.949872 3.08722 1.04918 3.10926 1.14118 3.15026C1.23318 3.19125 1.31598 3.25035 1.38465 3.32404L3.47865 5.41704L6.95165 0.992036C6.95784 0.98429 6.96452 0.976942 6.97165 0.970036H6.97065Z" fill="white"/>
</svg>
