<?xml version="1.0" encoding="utf-8"?>
<!-- Generator: Adobe Illustrator 18.0.0, SVG Export Plug-In . SVG Version: 6.00 Build 0)  -->
<!DOCTYPE svg PUBLIC "-//W3C//DTD SVG 1.1//EN" "http://www.w3.org/Graphics/SVG/1.1/DTD/svg11.dtd">
<svg width="62" height="49" viewBox="0 0 62 49" fill="none" xmlns="http://www.w3.org/2000/svg">
    <path d="M60.8115 27.456C60.5068 27.0692 59.956 27.0106 59.5693 27.3153L57.8466 28.6867L43.8779 10.3544L51.8583 5.23214C52.2685 4.97426 52.3857 4.42336 52.1279 4.01311C51.8701 3.60286 51.3193 3.48564 50.9091 3.74351L42.1201 9.38153C41.6982 9.65112 41.5927 10.2489 41.8974 10.6592L43.4912 12.7573L42.3544 13.6247L37.8427 12.1361C37.749 12.1126 37.6552 12.0892 37.5615 12.0892H27.2255C26.8271 12.0892 26.4638 12.3588 26.3701 12.7573L25.7841 15.0781L24.3193 14.4569C24.1787 14.3983 24.0263 14.3749 23.874 14.3983L19.7958 14.8789L18.413 14.0701L19.7373 11.7844C19.9716 11.3742 19.831 10.8233 19.4091 10.5771L2.32319 0.707659C1.90132 0.47323 1.36225 0.613887 1.11616 1.03586C0.870066 1.45783 1.02241 1.99702 1.44428 2.24317L14.8505 9.97932L3.28413 30.023L2.33491 29.4721C1.91303 29.2259 1.37397 29.3783 1.12788 29.8003C0.881785 30.2223 1.03413 30.7614 1.456 31.0076L6.10835 33.6918C6.5185 33.9262 7.06928 33.7856 7.31538 33.3636L7.98335 32.1915L9.88179 33.1995C9.26069 34.4068 9.31928 35.8954 10.163 37.0676C10.8896 38.0639 12.0146 38.5914 13.163 38.5914C13.5498 38.5914 13.9248 38.5328 14.2998 38.4155C14.2998 39.2009 14.5576 39.9628 15.0263 40.584C15.7529 41.5452 16.8662 42.0492 17.9912 42.0492C18.3662 42.0492 18.7412 41.9906 19.1162 41.8734C19.1279 42.6118 19.3505 43.3503 19.8193 43.9832C20.3935 44.7803 21.249 45.3078 22.2333 45.4719C22.4326 45.507 22.6318 45.5187 22.831 45.5187C23.2177 45.5187 23.5927 45.4601 23.956 45.3429C23.9677 46.0931 24.2021 46.8315 24.6591 47.4528C25.2333 48.2498 26.0888 48.7773 27.0732 48.9414C27.2724 48.9766 27.4716 48.9883 27.6708 48.9883C28.4443 48.9883 29.1943 48.7421 29.8271 48.285L31.8779 46.7964C32.3232 46.4799 32.6865 46.0696 32.9443 45.6008L36.5537 47.57C37.1044 47.8747 37.7138 48.0271 38.3232 48.0271C38.6748 48.0271 39.0263 47.9802 39.3779 47.8747C40.3271 47.5934 41.1123 46.9605 41.581 46.0931C41.9443 45.4132 42.0966 44.6631 42.0146 43.9129C42.2373 43.9481 42.4599 43.9715 42.6826 43.9715C43.9951 43.9715 45.2607 43.2682 45.9404 42.0375C46.3154 41.3459 46.4443 40.584 46.3623 39.8573C46.5849 39.8924 46.8076 39.9159 47.0302 39.9159C48.3427 39.9159 49.6083 39.2126 50.288 37.9818C50.6513 37.302 50.8037 36.5518 50.7216 35.8017C50.9443 35.8368 51.1669 35.8603 51.3896 35.8603C51.7412 35.8603 52.0927 35.8134 52.4443 35.7079C53.3935 35.4266 54.1787 34.7936 54.6474 33.9262C55.1162 33.0588 55.2216 32.0625 54.9521 31.1131C54.8818 30.8904 54.7998 30.6677 54.6943 30.4567L56.2412 29.3549L57.0615 30.4215C57.3544 30.8083 57.9287 30.8787 58.3037 30.5739L60.7294 28.6399C61.0458 28.3937 61.1162 27.8428 60.8115 27.456ZM6.21382 31.7109L4.80757 30.8904L16.374 10.8467L17.7802 11.6672L6.21382 31.7109ZM14.288 36.4698C13.4208 37.091 12.2138 36.9035 11.581 36.0361C10.9599 35.1687 11.1474 33.9614 12.0146 33.3284L18.249 28.8157C18.6005 28.5695 18.999 28.4406 19.3857 28.4406C19.9599 28.4406 20.5341 28.6985 20.9208 29.2025C21.5771 30.0582 21.3896 31.3241 20.5224 31.957L14.288 36.4698ZM19.1162 39.9393C18.2724 40.5488 17.0654 40.373 16.4326 39.5408C15.7763 38.6734 16.0341 37.3958 16.8896 36.7628L21.5419 33.3988C21.706 33.2816 21.8701 33.1643 22.0576 33.0823C22.3271 32.9651 22.6201 32.9182 22.913 32.9299C23.4755 32.9651 24.0029 33.2464 24.3427 33.6918C24.999 34.5475 24.8115 35.8134 23.9443 36.4463L19.1162 39.9393ZM23.9443 43.4089C23.5224 43.7136 23.0185 43.8308 22.5029 43.7488C21.9873 43.6667 21.5419 43.3854 21.2373 42.9752C20.6162 42.1078 20.8037 40.9005 21.6708 40.2675L24.9873 37.8646L25.1162 37.7709C25.9716 37.1496 27.1435 37.3254 27.788 38.1577C28.4443 39.0133 28.2568 40.2793 27.3896 40.9122L23.9443 43.4089ZM31.5966 44.1004C31.5263 44.6279 31.2451 45.085 30.8115 45.3898L28.7607 46.8784C27.9052 47.4997 26.6748 47.3004 26.0537 46.4447C25.4326 45.5891 25.6318 44.3583 26.4873 43.7371L28.4091 42.3422L28.538 42.2485C29.3818 41.6389 30.5771 41.8148 31.2099 42.6353C31.538 43.0572 31.6787 43.573 31.5966 44.1004ZM53.0419 33.1175C52.538 34.0434 51.3427 34.3951 50.4169 33.8911L40.2333 28.3351C39.8115 28.1007 39.2724 28.2648 39.038 28.6867C38.8037 29.1087 38.9677 29.6479 39.3896 29.8823L47.9208 34.5357C48.8583 35.0515 49.2099 36.2236 48.6943 37.1613C48.1787 38.0991 47.0068 38.4507 46.0693 37.935L37.4091 33.2112C36.9873 32.9768 36.4482 33.1409 36.2138 33.5629C35.9794 33.9848 36.1435 34.524 36.5654 34.7585L43.5732 38.5796C44.5107 39.0954 44.8623 40.2675 44.3466 41.2052C43.8427 42.1312 42.6474 42.4829 41.7216 41.9789L34.3857 37.9818C33.9638 37.7474 33.4248 37.9115 33.1904 38.3335C32.956 38.7555 33.1201 39.2946 33.5419 39.5291L39.2255 42.6353C40.1513 43.1393 40.5029 44.3349 39.999 45.2609C39.4951 46.1869 38.2998 46.5385 37.374 46.0345L33.3896 43.8543C33.4013 43.0221 33.1435 42.2133 32.6279 41.5452C31.9365 40.6426 30.9169 40.1503 29.874 40.0917C29.8857 40.0097 29.9091 39.9393 29.9208 39.8573C30.0615 38.861 29.8037 37.8646 29.1943 37.0676C28.5029 36.165 27.4833 35.6727 26.4404 35.6141C26.4521 35.5321 26.4755 35.4617 26.4873 35.3797C26.6279 34.3834 26.3701 33.387 25.7607 32.59C25.0693 31.6874 24.0498 31.1951 23.0068 31.1365C23.0185 31.0545 23.0419 30.9841 23.0537 30.9021C23.1943 29.9058 22.9365 28.9095 22.3271 28.1124C21.0966 26.5183 18.8583 26.1901 17.2294 27.3739L11.0888 31.8164L8.85053 30.6677L17.5458 15.6056L19.1865 16.555C19.3505 16.6488 19.538 16.6957 19.7255 16.6723L23.874 16.1917L25.374 16.8246L24.5068 20.2825C24.4951 20.3528 24.4833 20.4231 24.4833 20.4935V28.0069C24.4833 30.5622 26.5693 32.6486 29.124 32.6486C31.6787 32.6486 33.7646 30.5622 33.7646 28.0069V20.7396L33.9287 20.4817L52.2802 30.4801C53.1943 30.9959 53.5458 32.1915 53.0419 33.1175ZM53.4638 29.1556C53.3466 29.0735 53.2294 29.0032 53.1123 28.9329L34.8544 18.9814L35.5341 17.903C35.7919 17.4928 35.663 16.9419 35.2529 16.684C34.8427 16.4261 34.2919 16.555 34.0341 16.9653L32.124 20.0129C32.0419 20.1535 31.9951 20.3176 31.9951 20.4817V28.0069C31.9951 29.5893 30.706 30.8787 29.124 30.8787C27.5419 30.8787 26.2529 29.5893 26.2529 28.0069V20.5989L27.9404 13.8591H37.4443L42.2607 15.4532C42.5302 15.547 42.8466 15.4884 43.0693 15.3126L44.5693 14.1639L55.1044 27.9952L53.4638 29.1556Z" fill="url(#paint0_linear)"/>
    <defs>
        <linearGradient id="paint0_linear" x1="61.0068" y1="24.7915" x2="0.998047" y2="24.7915" gradientUnits="userSpaceOnUse">
            <stop stop-color="#0A2239"/>
            <stop offset="1" stop-color="#247BA0"/>
        </linearGradient>
    </defs>
</svg>
