<?xml version="1.0" encoding="utf-8"?>
<!-- Generator: Adobe Illustrator 18.0.0, SVG Export Plug-In . SVG Version: 6.00 Build 0)  -->
<!DOCTYPE svg PUBLIC "-//W3C//DTD SVG 1.1//EN" "http://www.w3.org/Graphics/SVG/1.1/DTD/svg11.dtd">
<svg width="66" height="47" viewBox="0 0 66 47" fill="none" xmlns="http://www.w3.org/2000/svg">
    <path d="M62.358 42.643H59.7905C59.6728 41.915 59.3309 41.242 58.8124 40.7176C58.2938 40.1933 57.6246 39.8438 56.898 39.718V16.513H57.223C57.5843 16.513 57.942 16.4413 58.2753 16.3021C58.6087 16.1629 58.9111 15.9589 59.165 15.7019C59.419 15.445 59.6194 15.1402 59.7546 14.8052C59.8899 14.4702 59.9573 14.1117 59.953 13.7505V13.458H62.943V12.873C62.9498 11.8649 62.6398 10.8802 62.0566 10.0579C61.4734 9.23566 60.6466 8.6174 59.693 8.29048L36.5205 0.587975C35.5478 0.255946 34.5258 0.0911135 33.498 0.100475C32.5156 0.0950127 31.5388 0.248668 30.6055 0.555475L7.33555 8.29048C6.38195 8.6174 5.55517 9.23566 4.972 10.0579C4.38883 10.8802 4.07874 11.8649 4.08555 12.873V13.458H7.07555V13.7505C7.07555 14.4745 7.36317 15.1689 7.87514 15.6809C8.38712 16.1929 9.08151 16.4805 9.80555 16.4805H10.098V39.7505C9.36553 39.8701 8.68911 40.2169 8.16428 40.7417C7.63944 41.2665 7.29272 41.943 7.17305 42.6755H4.63805C3.68382 42.6753 2.76768 43.0499 2.08689 43.7185C1.40609 44.3872 1.01509 45.2964 0.998047 46.2505V46.9005H65.998V46.2505C65.9895 45.2907 65.6022 44.3732 64.9205 43.6976C64.2388 43.022 63.3178 42.6429 62.358 42.643ZM55.858 39.6205H50.983V16.513H55.858V39.7505V39.6205ZM17.443 16.513V13.458H17.7355V13.7505C17.7342 14.2595 17.877 14.7585 18.1473 15.1898C18.4176 15.6212 18.8044 15.9672 19.263 16.188V39.7505H17.4105V16.513H17.443ZM25.373 15.3105H20.498C20.292 15.3149 20.0871 15.2776 19.8959 15.2008C19.7046 15.1239 19.5308 15.0092 19.3851 14.8634C19.2393 14.7177 19.1246 14.5439 19.0478 14.3527C18.9709 14.1614 18.9336 13.9566 18.938 13.7505V13.458H26.998V13.7505C27.0034 13.9652 26.9634 14.1787 26.8807 14.3769C26.7979 14.5751 26.6743 14.7537 26.5179 14.9009C26.3615 15.0481 26.1758 15.1607 25.9729 15.2312C25.77 15.3018 25.5546 15.3288 25.3405 15.3105H25.373ZM20.498 16.513H25.373V39.7505H20.498V16.513ZM26.5755 16.2205C27.0332 15.9927 27.4166 15.6396 27.6813 15.2023C27.946 14.765 28.081 14.2615 28.0705 13.7505V13.458H28.3305V13.7505C28.3292 14.2595 28.472 14.7585 28.7423 15.1898C29.0126 15.6212 29.3994 15.9672 29.858 16.188V39.7505H26.608V16.2205H26.5755ZM35.968 15.3105H31.0605C30.8572 15.3105 30.6559 15.27 30.4684 15.1912C30.2809 15.1124 30.1111 14.997 29.9688 14.8517C29.8265 14.7064 29.7147 14.5341 29.6399 14.345C29.565 14.1559 29.5287 13.9538 29.533 13.7505V13.458H37.4955V13.7505C37.5 13.9566 37.4627 14.1614 37.3858 14.3527C37.309 14.5439 37.1943 14.7177 37.0485 14.8634C36.9028 15.0092 36.729 15.1239 36.5377 15.2008C36.3465 15.2776 36.1416 15.3149 35.9355 15.3105H35.968ZM31.093 16.513H35.968V39.7505H31.0605V16.513H31.093ZM37.1705 16.2205C37.6282 15.9927 38.0116 15.6396 38.2763 15.2023C38.541 14.765 38.676 14.2615 38.6655 13.7505V13.458H38.958V13.7505C38.9567 14.2595 39.0995 14.7585 39.3698 15.1898C39.6401 15.6212 40.0269 15.9672 40.4855 16.188V39.7505H37.2355V16.2205H37.1705ZM46.498 15.3105H41.688C41.4715 15.3337 41.2524 15.3104 41.0456 15.242C40.8388 15.1737 40.649 15.0619 40.4889 14.9141C40.3289 14.7664 40.2023 14.5861 40.1176 14.3854C40.0329 14.1847 39.9922 13.9682 39.998 13.7505V13.458H48.123V13.7505C48.128 13.9623 48.0888 14.1728 48.008 14.3686C47.9273 14.5644 47.8066 14.7413 47.6538 14.888C47.501 15.0347 47.3193 15.1481 47.1203 15.2208C46.9214 15.2935 46.7095 15.3241 46.498 15.3105ZM41.623 16.513H46.498V39.7505H41.688V16.513H41.623ZM47.733 16.188C48.1978 15.9719 48.5913 15.6278 48.8676 15.1961C49.1439 14.7645 49.2914 14.263 49.293 13.7505V13.458H49.748V16.513V39.7505H47.798V16.188H47.733ZM58.7505 13.7505C58.7505 14.1556 58.5896 14.5441 58.3032 14.8306C58.0167 15.117 57.6282 15.278 57.223 15.278H50.723V13.458H58.6855V13.7505H58.7505ZM5.28805 12.2555C5.39784 11.6067 5.68298 11.0003 6.11262 10.5019C6.54226 10.0035 7.10002 9.63216 7.72555 9.42798L30.8655 1.72548C31.7128 1.43647 32.6029 1.2936 33.498 1.30298C34.3478 1.2975 35.1928 1.42919 36.0005 1.69298L59.1405 9.39548C59.7661 9.59966 60.3238 9.97104 60.7535 10.4694C61.1831 10.9678 61.4683 11.5742 61.578 12.223H5.28805V12.2555ZM9.80555 15.3105C9.60219 15.3105 9.40087 15.27 9.21339 15.1912C9.02592 15.1124 8.85606 14.997 8.71379 14.8517C8.57151 14.7064 8.45968 14.5341 8.38486 14.345C8.31003 14.1559 8.27372 13.9538 8.27805 13.7505V13.458H16.2405V15.3105H9.74055H9.80555ZM16.3055 16.513V39.7505H11.3005V16.513H16.2405H16.3055ZM10.748 40.823H56.248C56.7938 40.8216 57.3242 41.0034 57.7544 41.3393C58.1846 41.6751 58.4896 42.1457 58.6205 42.6755H8.34305C8.47531 42.1402 8.78514 41.6656 9.22195 41.3291C9.65876 40.9927 10.1967 40.8142 10.748 40.823ZM2.29805 45.698C2.42903 45.1682 2.73402 44.6976 3.16419 44.3618C3.59435 44.0259 4.12479 43.8441 4.67055 43.8455H62.358C62.9038 43.8441 63.4342 44.0259 63.8644 44.3618C64.2946 44.6976 64.5996 45.1682 64.7305 45.698H2.26555H2.29805Z" fill="url(#paint0_linear)"/>
    <defs>
        <linearGradient id="paint0_linear" x1="65.998" y1="23.5003" x2="0.998047" y2="23.5003" gradientUnits="userSpaceOnUse">
            <stop stop-color="#0A2239"/>
            <stop offset="1" stop-color="#247BA0"/>
        </linearGradient>
    </defs>
</svg>
