<?xml version="1.0" encoding="utf-8"?>
<!-- Generator: Adobe Illustrator 18.0.0, SVG Export Plug-In . SVG Version: 6.00 Build 0)  -->
<!DOCTYPE svg PUBLIC "-//W3C//DTD SVG 1.1//EN" "http://www.w3.org/Graphics/SVG/1.1/DTD/svg11.dtd">
<svg width="46" height="47" viewBox="0 0 46 47" fill="none" xmlns="http://www.w3.org/2000/svg">
    <path d="M45.3262 29.0913C44.9578 29.0913 44.6523 29.4037 44.6523 29.7805V43.7748C44.6523 44.7947 43.8438 45.6217 42.8465 45.6217H3.15352C2.15625 45.6217 1.34766 44.7947 1.34766 43.7748V40.6598C1.34766 40.2831 1.04219 39.9707 0.673828 39.9707C0.305469 39.9707 0 40.2831 0 40.6598V43.7748C0 45.5482 1.41055 47 3.15352 47H42.8465C44.5805 47 46 45.5574 46 43.7748V29.7805C46 29.4037 45.6945 29.0913 45.3262 29.0913Z" fill="url(#paint0_linear)"/>
    <path d="M0.673828 38.418C1.04219 38.418 1.34766 38.1056 1.34766 37.7289V17.3392H15.0578C15.4262 17.3392 15.7316 17.0268 15.7316 16.6501C15.7316 16.2734 15.4262 15.9609 15.0578 15.9609H1.34766V14.3805C1.34766 13.3606 2.15625 12.5336 3.15352 12.5336H15.0578C15.4262 12.5336 15.7316 12.2212 15.7316 11.8444C15.7316 11.4677 15.4262 11.1553 15.0578 11.1553H3.15352C1.41055 11.1553 0 12.6071 0 14.3805V37.7197C0 38.1056 0.305469 38.418 0.673828 38.418Z" fill="url(#paint1_linear)"/>
    <path d="M38.8117 20.7754C36.3859 23.2564 32.4328 23.2564 30.007 20.7754L29.9801 20.7479C29.7195 20.4814 29.2883 20.4814 29.0277 20.7479C28.7672 21.0144 28.7672 21.4554 29.0277 21.7219L29.0547 21.7494C30.5281 23.2564 32.4688 24.0099 34.4094 24.0099C36.35 24.0099 38.2906 23.2564 39.7641 21.7494L41.1297 20.3528C41.516 19.9577 41.7316 19.4247 41.7316 18.8642C41.7316 18.3037 41.516 17.7708 41.1297 17.3756L38.0121 14.1872C37.4191 13.5807 36.4488 13.5807 35.8559 14.1872L35.191 14.8671C34.9035 15.1612 34.7418 15.5471 34.7418 15.9698V16.0984C34.7418 16.2638 34.6789 16.4108 34.5531 16.5211C34.4273 16.6314 34.2836 16.6865 34.1219 16.6681C33.9871 16.6589 33.8613 16.5946 33.7715 16.5027L29.5668 12.2024C29.477 12.1105 29.4141 11.9819 29.4051 11.8441C29.3871 11.6787 29.441 11.5225 29.5488 11.403C29.6566 11.2836 29.8094 11.21 29.9621 11.21H30.0879C30.4922 11.21 30.8785 11.0447 31.166 10.7506L31.8309 10.0707C32.4238 9.4642 32.4238 8.47183 31.8309 7.86537L28.7223 4.6861C27.9227 3.86831 26.6109 3.86831 25.8113 4.6861L24.4457 6.08277C23.0172 7.54377 22.2266 9.49177 22.2266 11.5592C22.2266 13.6267 23.0172 15.5747 24.4457 17.0357L26.9973 19.6452C27.2578 19.9117 27.6891 19.9117 27.9496 19.6452C28.2102 19.3788 28.2102 18.9377 27.9496 18.6712L25.398 16.0617C24.2211 14.8579 23.5742 13.2591 23.5742 11.5592C23.5742 9.85932 24.2211 8.26049 25.398 7.05677L26.7637 5.6601C27.0422 5.37525 27.4914 5.37525 27.7699 5.6601L30.8875 8.84856C30.9594 8.92207 30.9594 9.03234 30.8875 9.10584L30.2227 9.78581C30.1867 9.82256 30.1418 9.84094 30.0969 9.84094H29.9711C29.432 9.84094 28.9199 10.0798 28.5605 10.475C28.2012 10.8793 28.0215 11.4214 28.0664 11.9635C28.1023 12.423 28.3 12.8456 28.6234 13.1764L32.8281 17.4767C33.1426 17.7983 33.5648 18.0005 34.0141 18.0464C34.5441 18.0924 35.0832 17.9086 35.4695 17.541C35.8559 17.1735 36.0895 16.6497 36.0895 16.0984V15.9698C36.0895 15.9238 36.1074 15.8779 36.1434 15.8411L36.8082 15.1612C36.8801 15.0877 36.9879 15.0877 37.0598 15.1612L40.1773 18.3496C40.3121 18.4875 40.384 18.6712 40.384 18.8642C40.384 19.0572 40.3121 19.2409 40.1773 19.3788L38.8117 20.7754Z" fill="url(#paint2_linear)"/>
    <path d="M4.44727 22.9716H15.0578C15.4262 22.9716 15.7316 22.6591 15.7316 22.2824C15.7316 21.9057 15.4262 21.5933 15.0578 21.5933H4.44727C4.07891 21.5933 3.77344 21.9057 3.77344 22.2824C3.77344 22.6591 4.07891 22.9716 4.44727 22.9716Z" fill="url(#paint3_linear)"/>
    <path d="M4.44727 28.6137H15.0578C15.4262 28.6137 15.7316 28.3012 15.7316 27.9245C15.7316 27.5478 15.4262 27.2354 15.0578 27.2354H4.44727C4.07891 27.2354 3.77344 27.5478 3.77344 27.9245C3.77344 28.3012 4.07891 28.6137 4.44727 28.6137Z" fill="url(#paint4_linear)"/>
    <path d="M41.0598 32.8677H10.459C10.0906 32.8677 9.78516 33.1801 9.78516 33.5568C9.78516 33.9336 10.0906 34.246 10.459 34.246H41.0598C41.4281 34.246 41.7336 33.9336 41.7336 33.5568C41.7336 33.1801 41.4371 32.8677 41.0598 32.8677Z" fill="url(#paint5_linear)"/>
    <path d="M4.44727 39.8788H41.0586C41.427 39.8788 41.7324 39.5664 41.7324 39.1896C41.7324 38.8129 41.427 38.5005 41.0586 38.5005H4.44727C4.07891 38.5005 3.77344 38.8129 3.77344 39.1896C3.77344 39.5664 4.07891 39.8788 4.44727 39.8788Z" fill="url(#paint6_linear)"/>
    <path d="M4.44727 34.246H7.23242C7.60078 34.246 7.90625 33.9336 7.90625 33.5568C7.90625 33.1801 7.60078 32.8677 7.23242 32.8677H4.44727C4.07891 32.8677 3.77344 33.1801 3.77344 33.5568C3.77344 33.9336 4.07891 34.246 4.44727 34.246Z" fill="url(#paint7_linear)"/>
    <path d="M41.4887 0H39.5121C39.1437 0 38.8383 0.312414 38.8383 0.68915C38.8383 1.06588 39.1437 1.3783 39.5121 1.3783H41.4887C43.2316 1.3783 44.6512 2.83011 44.6512 4.6219V24.3867C44.6512 26.1693 43.2316 27.6303 41.4887 27.6303H21.5883C19.8453 27.6303 18.4258 26.1785 18.4258 24.3867V4.61271C18.4258 2.83011 19.8453 1.36911 21.5883 1.36911H36.6371C37.0055 1.36911 37.3109 1.0567 37.3109 0.679961C37.3109 0.303226 37.0145 0 36.6461 0H21.5883C19.0996 0 17.0781 2.06745 17.0781 4.61271V24.3775C17.0781 26.9228 19.0996 28.9902 21.5883 28.9902H41.4797C43.9684 28.9902 45.9898 26.9228 45.9898 24.3775V4.61271C45.9988 2.06745 43.9773 0 41.4887 0Z" fill="url(#paint8_linear)"/>
    <defs>
        <linearGradient id="paint0_linear" x1="46" y1="38.0457" x2="0" y2="38.0457" gradientUnits="userSpaceOnUse">
            <stop stop-color="#0A2239"/>
            <stop offset="1" stop-color="#247BA0"/>
        </linearGradient>
        <linearGradient id="paint1_linear" x1="15.7316" y1="24.7867" x2="0" y2="24.7867" gradientUnits="userSpaceOnUse">
            <stop stop-color="#0A2239"/>
            <stop offset="1" stop-color="#247BA0"/>
        </linearGradient>
        <linearGradient id="paint2_linear" x1="41.7316" y1="14.0413" x2="22.2266" y2="14.0413" gradientUnits="userSpaceOnUse">
            <stop stop-color="#0A2239"/>
            <stop offset="1" stop-color="#247BA0"/>
        </linearGradient>
        <linearGradient id="paint3_linear" x1="15.7316" y1="22.2824" x2="3.77344" y2="22.2824" gradientUnits="userSpaceOnUse">
            <stop stop-color="#0A2239"/>
            <stop offset="1" stop-color="#247BA0"/>
        </linearGradient>
        <linearGradient id="paint4_linear" x1="15.7316" y1="27.9245" x2="3.77344" y2="27.9245" gradientUnits="userSpaceOnUse">
            <stop stop-color="#0A2239"/>
            <stop offset="1" stop-color="#247BA0"/>
        </linearGradient>
        <linearGradient id="paint5_linear" x1="41.7336" y1="33.5568" x2="9.78516" y2="33.5568" gradientUnits="userSpaceOnUse">
            <stop stop-color="#0A2239"/>
            <stop offset="1" stop-color="#247BA0"/>
        </linearGradient>
        <linearGradient id="paint6_linear" x1="41.7324" y1="39.1896" x2="3.77344" y2="39.1896" gradientUnits="userSpaceOnUse">
            <stop stop-color="#0A2239"/>
            <stop offset="1" stop-color="#247BA0"/>
        </linearGradient>
        <linearGradient id="paint7_linear" x1="7.90625" y1="33.5568" x2="3.77344" y2="33.5568" gradientUnits="userSpaceOnUse">
            <stop stop-color="#0A2239"/>
            <stop offset="1" stop-color="#247BA0"/>
        </linearGradient>
        <linearGradient id="paint8_linear" x1="45.9899" y1="14.4951" x2="17.0781" y2="14.4951" gradientUnits="userSpaceOnUse">
            <stop stop-color="#0A2239"/>
            <stop offset="1" stop-color="#247BA0"/>
        </linearGradient>
    </defs>
</svg>
