<?xml version="1.0" encoding="utf-8"?>
<!-- Generator: Adobe Illustrator 18.0.0, SVG Export Plug-In . SVG Version: 6.00 Build 0)  -->
<!DOCTYPE svg PUBLIC "-//W3C//DTD SVG 1.1//EN" "http://www.w3.org/Graphics/SVG/1.1/DTD/svg11.dtd">
<svg width="60" height="61" viewBox="0 0 60 61" fill="none" xmlns="http://www.w3.org/2000/svg">
    <path d="M14.707 49.7831C12.3633 48.6579 11.2266 47.1107 10.6758 46.0207C10.4531 45.5635 9.9961 45.2822 9.48047 45.2822C8.96485 45.2822 8.51953 45.5635 8.28516 46.0207C8.16797 46.2551 8.02735 46.4895 7.875 46.7239C7.60547 47.1342 7.72266 47.6733 8.1211 47.9429C8.53125 48.2125 9.07031 48.0953 9.33985 47.6968C9.38672 47.6264 9.42188 47.5678 9.46875 47.4975C10.1484 48.5993 11.2969 49.912 13.1953 50.9904C11.3086 52.057 10.1602 53.3697 9.46875 54.4832C8.78907 53.3815 7.64063 52.0687 5.74219 50.9904C5.88281 50.9083 6.02344 50.8263 6.15234 50.7442C6.5625 50.4864 6.69141 49.9472 6.4336 49.5252C6.17578 49.115 5.63672 48.9861 5.21484 49.2439C4.91016 49.4315 4.57031 49.619 4.23047 49.7831C3.76172 50.0058 3.48047 50.4629 3.48047 50.9904C3.48047 51.5061 3.77344 51.9632 4.23047 52.1976C6.57422 53.3229 7.71094 54.87 8.26172 55.9601C8.48438 56.4172 8.94141 56.6985 9.45703 56.6985C9.96094 56.6985 10.418 56.4172 10.6523 55.9601C11.2031 54.87 12.3398 53.3229 14.6836 52.1976C15.1524 51.9749 15.4336 51.5178 15.4336 50.9904C15.457 50.4629 15.1641 50.0058 14.707 49.7831Z" fill="url(#paint0_linear)"/>
    <path d="M47.9066 10.7167C50.2503 11.8419 51.3871 13.3891 51.9378 14.4791C52.1605 14.9363 52.6175 15.2176 53.1331 15.2176C53.6371 15.2176 54.0941 14.9363 54.3285 14.4791C54.8792 13.3891 56.016 11.8419 58.3597 10.7167C58.8285 10.494 59.1097 10.0369 59.1097 9.50942C59.1097 8.99369 58.8167 8.53657 58.3597 8.30215C56.016 7.17693 54.8792 5.62975 54.3285 4.5397C54.1058 4.08257 53.6488 3.80127 53.1331 3.80127C52.6292 3.80127 52.1722 4.08257 51.9378 4.5397C51.3871 5.62975 50.2503 7.16521 47.9066 8.30215C47.4378 8.52485 47.1566 8.98197 47.1566 9.50942C47.1449 10.0369 47.4378 10.494 47.9066 10.7167ZM53.1331 6.02827C53.8128 7.13004 54.9613 8.4428 56.8597 9.52114C54.973 10.5878 53.8246 11.9005 53.1331 13.014C52.4535 11.9122 51.305 10.5995 49.4066 9.52114C51.2933 8.4428 52.4417 7.13004 53.1331 6.02827Z" fill="url(#paint1_linear)"/>
    <path d="M58.1953 50.4862L47.2383 39.5271C47.543 38.9996 47.7188 38.4018 47.7188 37.7689C47.7188 36.8429 47.3555 35.9639 46.6992 35.3075L44.2383 32.8461C45.0703 30.8418 45.6211 28.7203 45.8555 26.5284C46.2305 27.0324 46.5117 27.513 46.7227 27.935C46.9688 28.4272 47.4727 28.7437 48.0352 28.7437C48.5977 28.7437 49.0898 28.439 49.3477 27.935C50.0742 26.4933 51.5742 24.4655 54.6562 22.977C55.1719 22.7308 55.4883 22.2268 55.4883 21.6525C55.4883 21.0899 55.1719 20.5741 54.6562 20.328C51.5742 18.8394 50.0742 16.8117 49.3477 15.37C49.1016 14.8777 48.5977 14.5612 48.0352 14.5612C47.4727 14.5612 46.9805 14.866 46.7227 15.37C46.3828 16.0381 45.8789 16.8468 45.1172 17.6556C44.0625 13.9283 42.0703 10.5175 39.2578 7.70444C30.293 -1.26216 15.7031 -1.26216 6.73828 7.70444C2.39063 12.0647 0 17.8431 0 23.985C0 30.1268 2.39063 35.9053 6.73828 40.242C11.0859 44.5905 16.8516 46.9816 22.9922 46.9816C26.0859 46.9816 29.0742 46.3721 31.8398 45.2235L34.3008 47.6849C34.957 48.3413 35.8359 48.7046 36.7617 48.7046C37.3945 48.7046 37.9922 48.5405 38.5195 48.2241L49.4766 59.1832C50.6367 60.3436 52.1836 60.9883 53.8359 60.9883C55.4766 60.9883 57.0234 60.3436 58.1953 59.1832C59.3555 58.0229 60 56.4757 60 54.823C60 53.1938 59.3555 51.6466 58.1953 50.4862ZM48.0352 16.671C48.9141 18.2065 50.4961 20.1522 53.3555 21.6525C50.5078 23.1528 48.9141 25.0985 48.0352 26.6339C47.1562 25.0985 45.5742 23.1528 42.7148 21.6525C45.5625 20.1522 47.1562 18.2182 48.0352 16.671ZM22.9922 45.2235C17.3203 45.2235 11.9883 43.0199 7.98047 38.9996C3.97266 34.9793 1.75781 29.6579 1.75781 23.985C1.75781 18.312 3.96094 12.9789 7.98047 8.97031C12.1172 4.83278 17.5547 2.75816 22.9922 2.75816C28.4297 2.75816 33.8672 4.83278 38.0039 8.97031C40.8047 11.7716 42.7383 15.2293 43.6406 19.0035C43.0078 19.4724 42.2695 19.9295 41.4141 20.3514C40.9453 20.5741 40.6289 21.0313 40.5938 21.547C40.0781 17.8431 38.4023 14.2682 35.5664 11.42C34.5469 10.4003 33.4219 9.5212 32.2031 8.78277C31.793 8.52491 31.2422 8.66556 30.9961 9.0758C30.75 9.48604 30.8789 10.0369 31.2891 10.2831C32.3789 10.9512 33.3984 11.7482 34.3125 12.6624C40.5586 18.9098 40.5586 29.0719 34.3125 35.3192C28.0664 41.5665 17.9062 41.5665 11.6602 35.3192C8.63672 32.2952 6.97266 28.2749 6.97266 23.9967C6.97266 19.7185 8.63672 15.6982 11.6602 12.6742C15.8672 8.4663 22.0195 6.94257 27.7148 8.689C28.1836 8.82966 28.6758 8.57179 28.8164 8.10295C28.957 7.63411 28.6992 7.14183 28.2305 7.00118C21.9258 5.04376 15.0938 6.74331 10.4297 11.42C7.06641 14.7839 5.22656 19.2497 5.22656 23.9967C5.22656 28.7437 7.07812 33.2094 10.4297 36.5734C13.8984 40.0428 18.4453 41.7775 23.0039 41.7775C27.5508 41.7775 32.1094 40.0428 35.5781 36.5734C39.5156 32.6351 41.2148 27.2903 40.6758 22.1448C40.8047 22.5081 41.0625 22.8129 41.4258 22.9887C42.5508 23.5396 43.4766 24.1491 44.2148 24.7937C44.0156 30.1737 41.8359 35.1903 38.0156 39.0113C33.9961 43.0199 28.6641 45.2235 22.9922 45.2235ZM37.9805 46.4425C37.6523 46.7707 37.2305 46.9465 36.7734 46.9465C36.3164 46.9465 35.8828 46.7707 35.5664 46.4425L33.5625 44.4382C35.6484 43.3598 37.5703 41.9533 39.2695 40.2538C40.9688 38.5542 42.375 36.6202 43.4531 34.5456L45.4688 36.5616C45.7969 36.8898 45.9727 37.3118 45.9727 37.7689C45.9727 38.226 45.7969 38.6597 45.4688 38.9762L37.9805 46.4425ZM56.9531 57.9525C56.1211 58.7847 55.0195 59.2418 53.8477 59.2418C52.6758 59.2418 51.5742 58.7847 50.7422 57.9525L39.9258 47.134L46.1484 40.9101L56.9648 51.7287C57.7969 52.5609 58.2539 53.6626 58.2539 54.8347C58.2422 56.0186 57.7852 57.1203 56.9531 57.9525Z" fill="url(#paint2_linear)"/>
    <path d="M25.9105 24.9226C25.1371 24.2311 24.2816 23.7271 23.4378 23.2465C22.6527 22.7894 21.9027 22.3674 21.2699 21.7931C20.4261 21.0312 20.2621 19.8357 20.8832 18.8394C21.2699 18.1947 22.0316 17.7845 22.8988 17.7376C23.5316 17.7025 24.2933 18.0189 24.7972 18.5229C25.055 18.7808 25.3597 19.2145 25.3128 19.7536C25.2777 20.2342 25.641 20.6562 26.1214 20.6913C26.6019 20.7265 27.0238 20.3631 27.0589 19.8826C27.1293 18.9566 26.766 18.0306 26.0394 17.2922C25.4418 16.6944 24.6683 16.2725 23.8714 16.085V14.5143C23.8714 14.0338 23.473 13.6353 22.9925 13.6353C22.5121 13.6353 22.1136 14.0338 22.1136 14.5143V16.085C20.9535 16.3194 19.9574 16.9875 19.3714 17.9369C18.3168 19.6599 18.6097 21.7931 20.0863 23.1176C20.8597 23.8091 21.7152 24.3014 22.5472 24.782C23.3324 25.2391 24.0824 25.6728 24.7152 26.2354C25.5589 26.9972 25.723 28.1928 25.1019 29.1891C24.7152 29.8337 23.9535 30.244 23.0863 30.2909C22.4535 30.326 21.6918 30.0096 21.1878 29.5056C20.93 29.2477 20.6253 28.814 20.6722 28.2748C20.7074 27.7943 20.3441 27.3723 19.8636 27.3372C19.3832 27.302 18.9613 27.6653 18.9261 28.1459C18.8558 29.0719 19.2191 29.9978 19.9457 30.7363C20.5433 31.334 21.3168 31.756 22.1136 31.9435V33.5141C22.1136 33.9947 22.5121 34.3932 22.9925 34.3932C23.473 34.3932 23.8714 33.9947 23.8714 33.5141V31.9435C25.0316 31.7091 26.0277 31.041 26.6136 30.0916C27.68 28.3803 27.3871 26.2471 25.9105 24.9226Z" fill="url(#paint3_linear)"/>
    <defs>
        <linearGradient id="paint0_linear" x1="15.4349" y1="50.9904" x2="3.48047" y2="50.9904" gradientUnits="userSpaceOnUse">
            <stop stop-color="#0A2239"/>
            <stop offset="1" stop-color="#247BA0"/>
        </linearGradient>
        <linearGradient id="paint1_linear" x1="59.1097" y1="9.50942" x2="47.1562" y2="9.50942" gradientUnits="userSpaceOnUse">
            <stop stop-color="#0A2239"/>
            <stop offset="1" stop-color="#247BA0"/>
        </linearGradient>
        <linearGradient id="paint2_linear" x1="60" y1="30.9839" x2="0" y2="30.9839" gradientUnits="userSpaceOnUse">
            <stop stop-color="#0A2239"/>
            <stop offset="1" stop-color="#247BA0"/>
        </linearGradient>
        <linearGradient id="paint3_linear" x1="27.2521" y1="24.0142" x2="18.7422" y2="24.0142" gradientUnits="userSpaceOnUse">
            <stop stop-color="#0A2239"/>
            <stop offset="1" stop-color="#247BA0"/>
        </linearGradient>
    </defs>
</svg>
