<?xml version="1.0" encoding="utf-8"?>
<!-- Generator: Adobe Illustrator 18.0.0, SVG Export Plug-In . SVG Version: 6.00 Build 0)  -->
<!DOCTYPE svg PUBLIC "-//W3C//DTD SVG 1.1//EN" "http://www.w3.org/Graphics/SVG/1.1/DTD/svg11.dtd">
<svg width="41" height="48" viewBox="0 0 41 48" fill="none" xmlns="http://www.w3.org/2000/svg">
    <path d="M27.7151 11.9344C27.2665 11.4938 26.6748 11.2594 26.0449 11.2594C25.415 11.2594 24.8233 11.5031 24.3748 11.9344C23.9262 12.375 23.6876 12.9563 23.6876 13.575C23.6876 14.1938 23.9358 14.775 24.3748 15.2156L28.3927 19.1625C28.8412 19.6031 29.433 19.8375 30.0628 19.8375C30.6927 19.8375 31.2845 19.5938 31.733 19.1625L40.3128 10.7344C40.7614 10.2937 41 9.7125 41 9.09375C41 8.475 40.7519 7.89375 40.3128 7.45312C39.8643 7.0125 39.2726 6.77813 38.6427 6.77813C38.0128 6.77813 37.4211 7.02187 36.9725 7.45312L36.0277 8.38125C35.331 7.85625 34.558 7.43437 33.7467 7.13437V6.075C33.7467 4.8 32.6874 3.75937 31.3894 3.75937H24.0026V2.95312C24.0026 1.33125 22.6569 0 20.9963 0H12.76C11.0994 0 9.75372 1.33125 9.75372 2.95312V6.29062C9.75372 7.2 10.5077 7.93125 11.4239 7.93125H22.3324C23.2581 7.93125 24.0026 7.19062 24.0026 6.29062V5.16562H31.3894C31.8953 5.16562 32.3152 5.56875 32.3152 6.075V6.72187C31.7235 6.6 31.1222 6.54375 30.5114 6.54375C25.4914 6.54375 21.4067 10.5562 21.4067 15.4875C21.4067 20.4187 25.4914 24.4313 30.5114 24.4313C31.1222 24.4313 31.7235 24.375 32.3152 24.2531V45.6844C32.3152 46.1812 31.9048 46.5938 31.3894 46.5938H2.35731C1.85149 46.5938 1.43156 46.1906 1.43156 45.6844V6.075C1.43156 5.57813 1.84195 5.16562 2.35731 5.16562H7.11965C7.51094 5.16562 7.83543 4.84687 7.83543 4.4625C7.83543 4.07812 7.51094 3.75937 7.11965 3.75937H2.35731C1.05936 3.75937 0 4.8 0 6.075V45.6844C0 46.9594 1.05936 48 2.35731 48H31.3894C32.6874 48 33.7467 46.9594 33.7467 45.6844V23.85C34.892 23.4187 35.9418 22.7719 36.8389 21.9188C38.5377 20.2969 39.5207 18.1313 39.6066 15.8063C39.6162 15.4219 39.3108 15.0938 38.9099 15.075C38.5186 15.0656 38.1846 15.3656 38.1655 15.7594C38.051 19.0312 35.8655 21.7313 32.8592 22.6688C32.821 22.6781 32.7733 22.6875 32.7351 22.7062C32.0289 22.9125 31.2749 23.025 30.5019 23.025C26.274 23.025 22.8287 19.6406 22.8287 15.4875C22.8287 11.3344 26.274 7.95 30.5019 7.95C32.1243 7.95 33.699 8.45625 34.997 9.38437L30.0628 14.2406L27.7151 11.9344ZM22.571 6.3C22.571 6.43125 22.466 6.53437 22.3324 6.53437H11.4143C11.2807 6.53437 11.1757 6.43125 11.1757 6.3V2.95312C11.1757 2.1 11.882 1.40625 12.7505 1.40625H20.9963C21.8648 1.40625 22.571 2.1 22.571 2.95312V6.3ZM37.9937 8.44687C38.1655 8.27812 38.4041 8.18438 38.6427 8.18438C38.8908 8.18438 39.1199 8.27812 39.2917 8.44687C39.6543 8.80312 39.6543 9.375 39.2917 9.73125L30.7118 18.1594C30.54 18.3281 30.3014 18.4219 30.0628 18.4219C29.8243 18.4219 29.5857 18.3281 29.4139 18.1594L25.396 14.2125C25.2242 14.0438 25.1287 13.8094 25.1287 13.575C25.1287 13.3406 25.2242 13.1062 25.396 12.9375C25.5677 12.7688 25.8063 12.675 26.0449 12.675C26.2931 12.675 26.5221 12.7688 26.6939 12.9375L29.5475 15.7406C29.8243 16.0125 30.2824 16.0125 30.5591 15.7406L37.9937 8.44687Z" fill="url(#paint0_linear)"/>
    <path d="M19.5069 17.6719H10.7744C10.3831 17.6719 10.0586 17.9906 10.0586 18.375C10.0586 18.7594 10.3831 19.0781 10.7744 19.0781H19.5069C19.8982 19.0781 20.2227 18.7594 20.2227 18.375C20.2227 17.9906 19.9077 17.6719 19.5069 17.6719Z" fill="url(#paint1_linear)"/>
    <path d="M9.41016 10.4062H4.58102C4.18972 10.4062 3.86523 10.725 3.86523 11.1094C3.86523 11.4937 4.18972 11.8125 4.58102 11.8125H9.40062C9.79191 11.8125 10.1164 11.4937 10.1164 11.1094C10.1164 10.725 9.80145 10.4062 9.41016 10.4062Z" fill="url(#paint2_linear)"/>
    <path d="M10.7744 22.3501H19.5069C19.8982 22.3501 20.2227 22.0313 20.2227 21.647C20.2227 21.2626 19.8982 20.9438 19.5069 20.9438H10.7744C10.3831 20.9438 10.0586 21.2626 10.0586 21.647C10.0586 22.0407 10.3831 22.3501 10.7744 22.3501Z" fill="url(#paint3_linear)"/>
    <path d="M22.5323 26.2124H10.7744C10.3831 26.2124 10.0586 26.5312 10.0586 26.9155C10.0586 27.2999 10.3831 27.6187 10.7744 27.6187H22.5227C22.914 27.6187 23.2385 27.2999 23.2385 26.9155C23.2385 26.5312 22.9236 26.2124 22.5323 26.2124Z" fill="url(#paint4_linear)"/>
    <path d="M10.7744 30.8906H16.6533C17.0446 30.8906 17.3691 30.5719 17.3691 30.1875C17.3691 29.8031 17.0446 29.4844 16.6533 29.4844H10.7744C10.3831 29.4844 10.0586 29.8031 10.0586 30.1875C10.0586 30.5719 10.3831 30.8906 10.7744 30.8906Z" fill="url(#paint5_linear)"/>
    <path d="M10.7744 36.1782H19.5069C19.8982 36.1782 20.2227 35.8595 20.2227 35.4751C20.2227 35.0907 19.8982 34.772 19.5069 34.772H10.7744C10.3831 34.772 10.0586 35.0907 10.0586 35.4751C10.0586 35.8595 10.3831 36.1782 10.7744 36.1782Z" fill="url(#paint6_linear)"/>
    <path d="M10.7744 39.4404H22.5227C22.914 39.4404 23.2385 39.1217 23.2385 38.7373C23.2385 38.3529 22.914 38.0342 22.5227 38.0342H10.7744C10.3831 38.0342 10.0586 38.3529 10.0586 38.7373C10.0586 39.1311 10.3831 39.4404 10.7744 39.4404Z" fill="url(#paint7_linear)"/>
    <path d="M6.10856 17.0625C4.51475 17.0625 3.2168 18.3375 3.2168 19.9031C3.2168 21.4688 4.51475 22.7438 6.10856 22.7438C7.70237 22.7438 9.00032 21.4688 9.00032 19.9031C9.00032 18.3375 7.70237 17.0625 6.10856 17.0625ZM6.10856 21.3469C5.30688 21.3469 4.64836 20.7 4.64836 19.9125C4.64836 19.125 5.30688 18.4781 6.10856 18.4781C6.91023 18.4781 7.56875 19.125 7.56875 19.9125C7.56875 20.7 6.91023 21.3469 6.10856 21.3469Z" fill="url(#paint8_linear)"/>
    <path d="M6.10856 25.7061C4.51475 25.7061 3.2168 26.9811 3.2168 28.5467C3.2168 30.1123 4.51475 31.3873 6.10856 31.3873C7.70237 31.3873 9.00032 30.1123 9.00032 28.5467C9.00032 26.9904 7.70237 25.7061 6.10856 25.7061ZM6.10856 29.9904C5.30688 29.9904 4.64836 29.3436 4.64836 28.5561C4.64836 27.7686 5.30688 27.1217 6.10856 27.1217C6.91023 27.1217 7.56875 27.7686 7.56875 28.5561C7.56875 29.3436 6.91023 29.9904 6.10856 29.9904Z" fill="url(#paint9_linear)"/>
    <path d="M6.10856 34.2563C4.51475 34.2563 3.2168 35.5313 3.2168 37.097C3.2168 38.6626 4.51475 39.9376 6.10856 39.9376C7.70237 39.9376 9.00032 38.6626 9.00032 37.097C9.00032 35.5313 7.70237 34.2563 6.10856 34.2563ZM6.10856 38.5407C5.30688 38.5407 4.64836 37.8938 4.64836 37.1063C4.64836 36.3188 5.30688 35.672 6.10856 35.672C6.91023 35.672 7.56875 36.3188 7.56875 37.1063C7.56875 37.8938 6.91023 38.5407 6.10856 38.5407Z" fill="url(#paint10_linear)"/>
    <defs>
        <linearGradient id="paint0_linear" x1="41" y1="24" x2="0" y2="24" gradientUnits="userSpaceOnUse">
            <stop stop-color="#0A2239"/>
            <stop offset="1" stop-color="#247BA0"/>
        </linearGradient>
        <linearGradient id="paint1_linear" x1="20.2227" y1="18.375" x2="10.0586" y2="18.375" gradientUnits="userSpaceOnUse">
            <stop stop-color="#0A2239"/>
            <stop offset="1" stop-color="#247BA0"/>
        </linearGradient>
        <linearGradient id="paint2_linear" x1="10.1164" y1="11.1094" x2="3.86523" y2="11.1094" gradientUnits="userSpaceOnUse">
            <stop stop-color="#0A2239"/>
            <stop offset="1" stop-color="#247BA0"/>
        </linearGradient>
        <linearGradient id="paint3_linear" x1="20.2227" y1="21.647" x2="10.0586" y2="21.647" gradientUnits="userSpaceOnUse">
            <stop stop-color="#0A2239"/>
            <stop offset="1" stop-color="#247BA0"/>
        </linearGradient>
        <linearGradient id="paint4_linear" x1="23.2385" y1="26.9155" x2="10.0586" y2="26.9155" gradientUnits="userSpaceOnUse">
            <stop stop-color="#0A2239"/>
            <stop offset="1" stop-color="#247BA0"/>
        </linearGradient>
        <linearGradient id="paint5_linear" x1="17.3691" y1="30.1875" x2="10.0586" y2="30.1875" gradientUnits="userSpaceOnUse">
            <stop stop-color="#0A2239"/>
            <stop offset="1" stop-color="#247BA0"/>
        </linearGradient>
        <linearGradient id="paint6_linear" x1="20.2227" y1="35.4751" x2="10.0586" y2="35.4751" gradientUnits="userSpaceOnUse">
            <stop stop-color="#0A2239"/>
            <stop offset="1" stop-color="#247BA0"/>
        </linearGradient>
        <linearGradient id="paint7_linear" x1="23.2385" y1="38.7373" x2="10.0586" y2="38.7373" gradientUnits="userSpaceOnUse">
            <stop stop-color="#0A2239"/>
            <stop offset="1" stop-color="#247BA0"/>
        </linearGradient>
        <linearGradient id="paint8_linear" x1="9.00032" y1="19.9031" x2="3.2168" y2="19.9031" gradientUnits="userSpaceOnUse">
            <stop stop-color="#0A2239"/>
            <stop offset="1" stop-color="#247BA0"/>
        </linearGradient>
        <linearGradient id="paint9_linear" x1="9.00032" y1="28.5467" x2="3.2168" y2="28.5467" gradientUnits="userSpaceOnUse">
            <stop stop-color="#0A2239"/>
            <stop offset="1" stop-color="#247BA0"/>
        </linearGradient>
        <linearGradient id="paint10_linear" x1="9.00032" y1="37.097" x2="3.2168" y2="37.097" gradientUnits="userSpaceOnUse">
            <stop stop-color="#0A2239"/>
            <stop offset="1" stop-color="#247BA0"/>
        </linearGradient>
    </defs>
</svg>
