<?xml version="1.0" encoding="utf-8"?>
<!-- Generator: Adobe Illustrator 18.0.0, SVG Export Plug-In . SVG Version: 6.00 Build 0)  -->
<!DOCTYPE svg PUBLIC "-//W3C//DTD SVG 1.1//EN" "http://www.w3.org/Graphics/SVG/1.1/DTD/svg11.dtd">
<svg width="54" height="54" viewBox="0 0 54 54" fill="none" xmlns="http://www.w3.org/2000/svg">
    <path d="M33.465 15.1965C33.4649 13.9179 33.0855 12.668 32.3751 11.605C31.6646 10.542 30.6548 9.71347 29.4735 9.22429C28.2922 8.73511 26.9923 8.6072 25.7383 8.85675C24.4843 9.1063 23.3324 9.7221 22.4284 10.6263C21.5243 11.5304 20.9087 12.6824 20.6593 13.9364C20.4099 15.1905 20.538 16.4903 21.0274 17.6716C21.5167 18.8528 22.3453 19.8625 23.4085 20.5728C24.4716 21.2832 25.7215 21.6623 27.0001 21.6623C28.7142 21.6602 30.3575 20.9783 31.5695 19.7661C32.7815 18.554 33.4632 16.9106 33.465 15.1965ZM22.0664 15.1965C22.0666 14.2207 22.3561 13.2669 22.8983 12.4557C23.4405 11.6445 24.2111 11.0123 25.1127 10.639C26.0142 10.2657 27.0062 10.1681 27.9631 10.3586C28.9201 10.549 29.7991 11.019 30.489 11.709C31.1789 12.399 31.6487 13.2782 31.839 14.2352C32.0293 15.1922 31.9316 16.1841 31.5581 17.0856C31.1847 17.9871 30.5523 18.7575 29.741 19.2996C28.9297 19.8417 27.9758 20.131 27.0001 20.131C25.6919 20.1295 24.4378 19.6091 23.5128 18.684C22.5879 17.7589 22.0677 16.5047 22.0664 15.1965Z" fill="url(#paint0_linear)"/>
    <path d="M52.9569 51.9675L46.7155 35.605C46.6601 35.4602 46.5621 35.3355 46.4344 35.2476C46.3067 35.1596 46.1553 35.1125 46.0002 35.1124H34.1877C34.2599 34.9947 34.3316 34.8805 34.4038 34.7624C38.949 27.2374 41.2362 20.6548 41.2034 15.2C41.2041 11.4332 39.7083 7.82032 37.0452 5.15629C34.382 2.49226 30.7697 0.995267 27.0028 0.994629C23.236 0.993991 19.6231 2.48976 16.9591 5.15289C14.2951 7.81602 12.7981 11.4284 12.7974 15.1952C12.7646 20.6548 15.0519 27.2383 19.5971 34.7624C19.6692 34.8818 19.741 34.996 19.8132 35.1124H8.00068C7.84559 35.1125 7.69418 35.1596 7.56646 35.2476C7.43874 35.3355 7.34072 35.4602 7.28536 35.605L1.04486 51.9675C1.0004 52.0835 0.984828 52.2085 0.999497 52.3318C1.01417 52.4551 1.05864 52.5729 1.12906 52.6752C1.19949 52.7774 1.29375 52.861 1.40371 52.9187C1.51367 52.9763 1.63601 53.0064 1.76018 53.0062H52.2416C52.3657 53.0064 52.4881 52.9763 52.598 52.9187C52.708 52.861 52.8022 52.7774 52.8727 52.6752C52.9431 52.5729 52.9876 52.4551 53.0022 52.3318C53.0169 52.2085 53.0013 52.0835 52.9569 51.9675ZM14.3291 15.1965C14.3294 13.5325 14.6575 11.8847 15.2945 10.3474C15.9316 8.81014 16.8652 7.41337 18.0421 6.23689C19.219 5.06042 20.6161 4.12726 22.1536 3.49071C23.6911 2.85417 25.339 2.52668 27.003 2.52697C28.6671 2.52726 30.3149 2.85531 31.8522 3.49239C33.3895 4.12947 34.7862 5.06311 35.9627 6.23999C37.1392 7.41687 38.0723 8.81396 38.7089 10.3515C39.3454 11.889 39.6729 13.5368 39.6726 15.2009C39.7382 26.0763 29.5707 39.4896 27.0009 42.7061C24.431 39.4909 14.2631 26.0811 14.3291 15.1965ZM26.4177 44.4123C26.4896 44.4968 26.5789 44.5647 26.6796 44.6113C26.7803 44.6578 26.8899 44.6819 27.0009 44.6819C27.1118 44.6819 27.2214 44.6578 27.3221 44.6113C27.4228 44.5647 27.5122 44.4968 27.5841 44.4123C29.6168 41.936 31.5014 39.3416 33.2278 36.6428H45.4721L46.4521 39.2131L22.5248 47.7229L13.9962 36.6415H20.7731C22.4997 39.3408 24.3845 41.9356 26.4177 44.4123ZM22.4981 49.3561H22.5025L36.7768 44.2811L42.3134 51.4749H16.5446L22.4981 49.3561ZM8.52874 36.6415H12.0637L21.0071 48.2623L11.9758 51.4745H2.87143L8.52874 36.6415ZM44.2476 51.4749L38.2936 43.739L46.9999 40.6428L51.1312 51.4749H44.2476Z" fill="url(#paint1_linear)"/>
    <defs>
        <linearGradient id="paint0_linear" x1="33.465" y1="15.1974" x2="20.5352" y2="15.1974" gradientUnits="userSpaceOnUse">
            <stop stop-color="#0A2239"/>
            <stop offset="1" stop-color="#247BA0"/>
        </linearGradient>
        <linearGradient id="paint1_linear" x1="53.0076" y1="27.0004" x2="0.994141" y2="27.0004" gradientUnits="userSpaceOnUse">
            <stop stop-color="#0A2239"/>
            <stop offset="1" stop-color="#247BA0"/>
        </linearGradient>
    </defs>
</svg>
