<?xml version="1.0" encoding="utf-8"?>
<!-- Generator: Adobe Illustrator 18.0.0, SVG Export Plug-In . SVG Version: 6.00 Build 0)  -->
<!DOCTYPE svg PUBLIC "-//W3C//DTD SVG 1.1//EN" "http://www.w3.org/Graphics/SVG/1.1/DTD/svg11.dtd">
<svg width="60" height="60" viewBox="0 0 60 60" fill="none" xmlns="http://www.w3.org/2000/svg">
    <g clip-path="url(#clip0)">
        <path d="M55.0144 21.0977C53.1316 21.1102 51.4109 22.1825 50.5755 23.8658L37.957 19.3645C38.0194 18.9531 38.0568 18.5291 38.0568 18.1052C38.0568 16.397 37.5081 14.7386 36.4857 13.367L43.5306 8.67875C45.5007 10.6364 48.6802 10.6364 50.6503 8.66629C52.6204 6.69621 52.6079 3.51666 50.6378 1.54658C48.6678 -0.423491 45.4757 -0.398553 43.5181 1.57152C42.0842 3.00544 41.6603 5.15008 42.4209 7.0204L35.0892 11.9082C32.2463 9.60145 28.1939 9.52664 25.2762 11.7586L22.2338 7.95556C23.8174 5.64883 23.2438 2.49422 20.9495 0.898205C18.6553 -0.697805 15.5007 -0.124239 13.9047 2.18249C12.3086 4.48923 12.8822 7.64384 15.1889 9.22738C16.8598 10.387 19.0668 10.4244 20.7874 9.3396L23.8423 13.1551C22.9321 14.3022 22.3585 15.6613 22.1715 17.1201H10.0269C9.47822 14.4144 6.8473 12.6688 4.14157 13.2174C1.43583 13.766 -0.297338 16.4094 0.251291 19.1027C0.799919 21.796 3.43084 23.5416 6.13658 22.993C8.09418 22.594 9.62785 21.0603 10.0269 19.1027H22.159C22.2712 20.0129 22.5456 20.9107 22.957 21.7211L7.94456 33.9406C5.65029 32.3446 2.49568 32.9182 0.89967 35.2249C-0.69634 37.5316 -0.122774 40.6738 2.18396 42.2698C4.49069 43.8658 7.63284 43.2922 9.22885 40.9855C10.3884 39.3147 10.4259 37.0952 9.3286 35.387L24.4533 23.1052C25.0019 23.0428 25.4009 22.5566 25.3386 22.0079C25.3261 21.8458 25.2638 21.6837 25.164 21.5466C23.2812 18.8284 23.9421 15.1002 26.6603 13.2174C29.3785 11.3346 33.1067 11.9955 34.9894 14.7137C36.4234 16.771 36.4234 19.5017 34.9894 21.5466L36.6229 22.6812C36.9221 22.2448 37.1715 21.7835 37.3835 21.2847L50.0518 25.8109C50.0518 25.9107 50.0269 25.998 50.0269 26.0977C50.0269 28.8533 52.2588 31.0852 55.0144 31.0852C57.77 31.0852 60.0019 28.8533 60.0019 26.0977C60.0019 23.3296 57.77 21.0977 55.0144 21.0977ZM47.0343 2.14509C48.6927 2.14509 50.0269 3.47925 50.0269 5.13761C50.0269 6.79596 48.6927 8.13013 47.0343 8.13013C45.376 8.13013 44.0418 6.79596 44.0418 5.13761C44.0418 3.47925 45.3885 2.14509 47.0343 2.14509ZM18.1067 8.13013C16.4483 8.13013 15.1141 6.79596 15.1141 5.13761C15.1141 3.47925 16.4483 2.14509 18.1067 2.14509C19.765 2.14509 21.0992 3.47925 21.0992 5.13761C21.0992 6.79596 19.765 8.13013 18.1067 8.13013ZM5.13907 21.0977C3.48072 21.0977 2.14655 19.7635 2.14655 18.1052C2.14655 16.4468 3.48072 15.1127 5.13907 15.1127C6.79743 15.1127 8.13159 16.4468 8.13159 18.1052C8.13159 19.7635 6.79743 21.0977 5.13907 21.0977ZM5.13907 41.0478C3.48072 41.0478 2.14655 39.7137 2.14655 38.0553C2.14655 36.397 3.48072 35.0628 5.13907 35.0628C6.79743 35.0628 8.13159 36.397 8.13159 38.0553C8.13159 39.7137 6.79743 41.0478 5.13907 41.0478ZM55.0144 29.0778C53.356 29.0778 52.0219 27.7436 52.0219 26.0852C52.0219 24.4269 53.356 23.0927 55.0144 23.0927C56.6727 23.0927 58.0069 24.4269 58.0069 26.0852C58.0069 27.7436 56.6727 29.0778 55.0144 29.0778Z" fill="url(#paint0_linear)"/>
        <path d="M48.0317 32.0695C46.8846 32.0695 45.7998 32.5682 45.0392 33.4286C43.5804 31.7702 41.0617 31.6081 39.4158 33.067C39.2911 33.1792 39.1664 33.3039 39.0542 33.4286C37.7948 32.0071 35.7125 31.658 34.0666 32.6056V20.0994C34.0666 17.8924 32.2836 16.1094 30.0766 16.1094C27.8696 16.1094 26.0866 17.8924 26.0866 20.0994V36.1593C24.7774 34.8126 22.9819 34.0645 21.0991 34.0645C20.5504 34.0645 20.1016 34.5134 20.1016 35.062V53.0171C20.1016 53.2789 20.2013 53.5408 20.3883 53.7278L26.6602 59.9996H29.4781L22.0841 52.6056V36.1593C24.4033 36.6331 26.0741 38.678 26.0741 41.047V48.0296C26.0741 48.5782 26.523 49.0271 27.0716 49.0271C27.6203 49.0271 28.0691 48.5782 28.0691 48.0296V20.0994C28.0691 19.0021 28.9669 18.1044 30.0642 18.1044C31.1614 18.1044 32.0592 19.0021 32.0592 20.0994V38.0545C32.0592 38.6031 32.508 39.052 33.0567 39.052C33.6053 39.052 34.0542 38.6031 34.0542 38.0545V36.0595C34.0542 34.9622 34.9519 34.0645 36.0492 34.0645C37.1464 34.0645 38.0442 34.9622 38.0442 36.0595V38.0545C38.0442 38.6031 38.4931 39.052 39.0417 39.052C39.5903 39.052 40.0392 38.6031 40.0392 38.0545V36.0595C40.0392 34.9622 40.937 34.0645 42.0342 34.0645C43.1315 34.0645 44.0292 34.9622 44.0292 36.0595V38.0545C44.0292 38.6031 44.4781 39.052 45.0267 39.052C45.5754 39.052 46.0242 38.6031 46.0242 38.0545V36.0595C46.0242 34.9622 46.922 34.0645 48.0193 34.0645C49.1165 34.0645 50.0143 34.9622 50.0143 36.0595V59.9996H52.0093V36.0595C52.0218 33.865 50.2387 32.0695 48.0317 32.0695Z" fill="url(#paint1_linear)"/>
    </g>
    <defs>
        <linearGradient id="paint0_linear" x1="60.0019" y1="21.584" x2="-0.00390625" y2="21.584" gradientUnits="userSpaceOnUse">
            <stop stop-color="#0A2239"/>
            <stop offset="1" stop-color="#247BA0"/>
        </linearGradient>
        <linearGradient id="paint1_linear" x1="52.0093" y1="38.0545" x2="20.1016" y2="38.0545" gradientUnits="userSpaceOnUse">
            <stop stop-color="#0A2239"/>
            <stop offset="1" stop-color="#247BA0"/>
        </linearGradient>
        <clipPath id="clip0">
            <rect width="60" height="60" fill="white"/>
        </clipPath>
    </defs>
</svg>
