<?xml version="1.0" encoding="utf-8"?>
<!-- Generator: Adobe Illustrator 18.0.0, SVG Export Plug-In . SVG Version: 6.00 Build 0)  -->
<!DOCTYPE svg PUBLIC "-//W3C//DTD SVG 1.1//EN" "http://www.w3.org/Graphics/SVG/1.1/DTD/svg11.dtd">
<svg width="57" height="57" viewBox="0 0 57 57" fill="none" xmlns="http://www.w3.org/2000/svg">
    <path d="M35.3398 28.3415L37.3027 26.3782C37.5593 26.1216 37.5593 25.6977 37.3027 25.43L36.7116 24.8387L48.9801 12.5678L52.0807 11.4634C52.2257 11.4077 52.3595 11.3073 52.4376 11.1734L56.1293 4.85944C56.2854 4.59172 56.2408 4.26821 56.0289 4.0451L53.9321 1.9702C53.7202 1.75825 53.3856 1.71363 53.1179 1.8698L46.8052 5.56223C46.6714 5.64032 46.5599 5.76303 46.5153 5.91921L45.4111 9.0204L33.1426 21.2913L32.5515 20.7001C32.295 20.4435 31.8712 20.4435 31.6035 20.7001L29.6405 22.6634L25.815 18.8371C28.5364 12.2443 25.3912 4.70327 18.8108 1.98136C15.9445 0.787731 12.7435 0.676177 9.79907 1.66901C9.45332 1.78056 9.26371 2.15984 9.37525 2.51681C9.40871 2.61721 9.46447 2.70646 9.53139 2.77339L14.238 7.48096L13.1227 13.0698L7.31191 14.0961L2.78373 9.52239C2.52721 9.25466 2.09224 9.25466 1.83571 9.52239C1.75764 9.60048 1.70188 9.68972 1.66842 9.77897C-0.606828 16.5391 3.0291 23.8571 9.78791 26.1216C12.7323 27.1144 15.9445 27.0029 18.822 25.8204L21.0972 28.0961L18.5654 29.4794C18.5097 29.5128 18.4539 29.5463 18.4093 29.5909L3.30793 44.7176C1.2669 46.759 1.2669 50.0722 3.30793 52.1136L5.88431 54.6905C7.92534 56.732 11.2378 56.732 13.2789 54.6905L28.3914 39.575C28.436 39.5304 28.4694 39.4746 28.5029 39.4188L29.8859 36.8865L48.5451 55.5495C50.4746 57.4794 53.6087 57.4794 55.5493 55.5495C57.49 53.6196 57.4788 50.4849 55.5493 48.5439L35.3398 28.3415ZM34.0795 32.1455C33.6222 32.6029 32.8638 32.6029 32.4065 32.1455L25.8596 25.5973C25.4023 25.1288 25.4246 24.3814 25.8931 23.924C26.3503 23.4889 27.0753 23.4889 27.5326 23.924L34.0795 30.4722C34.5368 30.9407 34.5368 31.6881 34.0795 32.1455ZM46.4706 9.85705C46.5376 9.79012 46.5933 9.70088 46.6268 9.61164L47.6975 6.58853L53.3521 3.28654L54.7128 4.64749L51.4115 10.3033L48.389 11.3742C48.2998 11.4077 48.2105 11.4634 48.1436 11.5304L35.7636 23.9017L34.0906 22.2284L46.4706 9.85705ZM32.0831 22.1168L35.8751 25.9096L33.6445 28.1407L29.8524 24.3479L32.0831 22.1168ZM19.4465 24.5598C19.2458 24.359 18.9447 24.3033 18.6993 24.426C14.3049 26.4116 9.14103 25.4746 5.72816 22.0833C2.89526 19.261 1.72418 15.167 2.63874 11.2738L6.62042 15.2786C6.77656 15.4347 6.99962 15.5017 7.21153 15.4682L13.8142 14.2969C14.0819 14.2523 14.3049 14.0403 14.3496 13.7726L15.6322 7.38056C15.6768 7.15745 15.6099 6.93434 15.4537 6.77817L11.2936 2.63952C17.517 1.20048 23.7294 5.08255 25.157 11.3073C25.7258 13.7837 25.4692 16.3829 24.4097 18.7033C24.2982 18.9598 24.3428 19.261 24.5435 19.4507L27.4545 22.3622C26.3169 21.9941 25.0677 22.4738 24.4766 23.5224L23.3055 22.3399C23.049 22.0833 22.6252 22.0833 22.3575 22.3399C22.0898 22.5965 22.101 23.0204 22.3575 23.2881L24.1978 25.1288C24.2536 25.5081 24.3985 25.865 24.6105 26.1885L22.3241 27.4379L19.4465 24.5598ZM27.3764 38.7049L12.3308 53.7535C10.814 55.2706 8.34916 55.2706 6.83233 53.7535L4.25595 51.1766C2.73912 49.6594 2.73912 47.1941 4.25595 45.677L19.3016 30.6284L25.5585 27.2037L30.8116 32.4579L27.3764 38.7049ZM54.6013 54.6013C53.196 56.0069 50.9096 56.0069 49.4931 54.6013L30.5662 35.6706L31.8154 33.3837C32.1388 33.6069 32.4957 33.7407 32.8861 33.7965C32.8973 33.8077 32.9084 33.83 32.9196 33.8411L47.6194 48.5439C47.8871 48.8005 48.3109 48.8005 48.5674 48.5328C48.824 48.2762 48.824 47.8523 48.5674 47.5957L34.4698 33.5065C35.5182 32.9264 36.009 31.677 35.6409 30.528L54.6013 49.4921C56.0066 50.9088 56.0066 53.1957 54.6013 54.6013Z" fill="url(#paint0_linear)"/>
    <path d="M22.4593 16.0264C22.805 16.0264 23.095 15.7587 23.1285 15.4129C23.24 14.0407 23.0727 12.6686 22.6378 11.3635C22.5262 11.0176 22.147 10.8168 21.7901 10.9396C21.4444 11.0511 21.2436 11.4304 21.3663 11.7874C21.7455 12.9252 21.8905 14.1188 21.7901 15.3125C21.7567 15.6806 22.0355 16.0041 22.4035 16.0264C22.4258 16.0264 22.437 16.0264 22.4593 16.0264Z" fill="url(#paint1_linear)"/>
    <path d="M21.5008 8.99861C21.3001 8.69742 21.0882 8.40738 20.8651 8.12849C20.6309 7.83845 20.2071 7.79383 19.9282 8.02809C19.6383 8.26236 19.5937 8.68626 19.8279 8.96515C20.0286 9.21057 20.2071 9.46714 20.3744 9.72372C20.5751 10.0361 20.9878 10.1253 21.3001 9.93567C21.6124 9.73487 21.7016 9.32212 21.512 9.00977C21.5008 8.99861 21.5008 8.99861 21.5008 8.99861Z" fill="url(#paint2_linear)"/>
    <path d="M21.1213 38.8169L10.4254 49.515C10.1689 49.7827 10.1689 50.2066 10.4365 50.4632C10.6931 50.7197 11.1169 50.7197 11.3734 50.4632L22.0693 39.7652C22.3258 39.5086 22.3258 39.0847 22.0693 38.8169C21.8016 38.5604 21.3778 38.5604 21.1213 38.8169Z" fill="url(#paint3_linear)"/>
    <path d="M19.1812 35.9385C18.9247 35.682 18.5008 35.682 18.2332 35.9385L7.54844 46.6254C7.29192 46.8931 7.29192 47.317 7.55959 47.5736C7.81612 47.8302 8.23994 47.8302 8.49646 47.5736L19.1923 36.8756C19.4489 36.619 19.4489 36.1951 19.1812 35.9385Z" fill="url(#paint4_linear)"/>
    <defs>
        <linearGradient id="paint0_linear" x1="57.0006" y1="28.9972" x2="0.990234" y2="28.9972" gradientUnits="userSpaceOnUse">
            <stop stop-color="#0A2239"/>
            <stop offset="1" stop-color="#247BA0"/>
        </linearGradient>
        <linearGradient id="paint1_linear" x1="23.162" y1="13.4649" x2="21.3301" y2="13.4649" gradientUnits="userSpaceOnUse">
            <stop stop-color="#0A2239"/>
            <stop offset="1" stop-color="#247BA0"/>
        </linearGradient>
        <linearGradient id="paint2_linear" x1="21.611" y1="8.95631" x2="19.6777" y2="8.95631" gradientUnits="userSpaceOnUse">
            <stop stop-color="#0A2239"/>
            <stop offset="1" stop-color="#247BA0"/>
        </linearGradient>
        <linearGradient id="paint3_linear" x1="22.2617" y1="44.6401" x2="10.2344" y2="44.6401" gradientUnits="userSpaceOnUse">
            <stop stop-color="#0A2239"/>
            <stop offset="1" stop-color="#247BA0"/>
        </linearGradient>
        <linearGradient id="paint4_linear" x1="19.3834" y1="41.7561" x2="7.35742" y2="41.7561" gradientUnits="userSpaceOnUse">
            <stop stop-color="#0A2239"/>
            <stop offset="1" stop-color="#247BA0"/>
        </linearGradient>
    </defs>
</svg>
