<?xml version="1.0" encoding="utf-8"?>
<!-- Generator: Adobe Illustrator 18.0.0, SVG Export Plug-In . SVG Version: 6.00 Build 0)  -->
<!DOCTYPE svg PUBLIC "-//W3C//DTD SVG 1.1//EN" "http://www.w3.org/Graphics/SVG/1.1/DTD/svg11.dtd">
<svg width="53" height="52" viewBox="0 0 53 52" fill="none" xmlns="http://www.w3.org/2000/svg">
    <path d="M50.6395 40.1166L40.1137 33.097C38.7779 32.2134 36.9874 32.5042 35.9999 33.7652L32.9338 37.7074C32.5398 38.2269 31.8235 38.3776 31.2535 38.061L30.6702 37.7394C28.7368 36.6856 26.3312 35.3736 21.4842 30.5249C16.6373 25.6763 15.3227 23.2688 14.2688 21.3389L13.949 20.7557C13.628 20.1858 13.7759 19.4665 14.2956 19.0693L18.2352 16.0041C19.4957 15.0165 19.7868 13.2265 18.9042 11.8903L11.8847 1.36451C10.9801 0.00386512 9.16535 -0.404591 7.765 0.437202L3.36349 3.0812C1.9805 3.89425 0.965862 5.21102 0.532322 6.75558C-1.05266 12.5306 0.139707 22.4975 14.8218 37.1813C26.5011 48.8597 35.1958 52.0003 41.1719 52.0003C42.5473 52.0062 43.9172 51.8272 45.245 51.4682C46.7898 51.0352 48.1068 50.0205 48.9194 48.6371L51.566 44.2382C52.409 42.8375 52.0008 41.0216 50.6395 40.1166ZM50.0727 43.349L47.4322 47.7505C46.8487 48.749 45.9015 49.4831 44.789 49.7992C39.4576 51.2629 30.1434 50.0505 16.048 35.9551C1.95258 21.8597 0.740307 12.5463 2.20403 7.2141C2.52047 6.10024 3.25553 5.15181 4.25524 4.56746L8.65676 1.92692C9.26437 1.56132 10.052 1.73853 10.4445 2.32898L14.2576 8.05376L17.4581 12.8539C17.8413 13.4335 17.7154 14.2103 17.1686 14.6391L13.2282 17.7043C12.029 18.6212 11.6866 20.2803 12.4249 21.5971L12.7378 22.1656C13.8453 24.1969 15.2223 26.7239 20.2495 31.7503C25.2767 36.7766 27.8029 38.1537 29.8333 39.2612L30.4026 39.5749C31.7193 40.3131 33.3785 39.9707 34.2955 38.7716L37.3606 34.8311C37.7896 34.2846 38.5661 34.1588 39.1459 34.5417L49.6708 41.5612C50.2616 41.9534 50.4388 42.7415 50.0727 43.349Z" fill="url(#paint0_linear)"/>
    <path d="M29.4662 8.67016C37.5989 8.6792 44.1894 15.2698 44.1985 23.4025C44.1985 23.8811 44.5865 24.2691 45.0651 24.2691C45.5437 24.2691 45.9317 23.8811 45.9317 23.4025C45.9216 14.313 38.5557 6.94696 29.4662 6.93701C28.9876 6.93701 28.5996 7.32495 28.5996 7.80359C28.5996 8.28222 28.9876 8.67016 29.4662 8.67016Z" fill="url(#paint1_linear)"/>
    <path d="M29.4662 13.8694C34.7284 13.8756 38.9927 18.1399 38.9989 23.4021C38.9989 23.8807 39.3869 24.2687 39.8655 24.2687C40.3441 24.2687 40.732 23.8807 40.732 23.4021C40.7248 17.183 35.6851 12.1433 29.4662 12.1362C28.9876 12.1362 28.5996 12.5242 28.5996 13.0028C28.5996 13.4814 28.9876 13.8694 29.4662 13.8694Z" fill="url(#paint2_linear)"/>
    <path d="M29.4662 19.0691C31.858 19.0719 33.7963 21.0102 33.7993 23.4022C33.7993 23.8808 34.1873 24.2687 34.6658 24.2687C35.1444 24.2687 35.5324 23.8808 35.5324 23.4022C35.5285 20.0535 32.8149 17.3397 29.4662 17.3359C28.9876 17.3359 28.5996 17.7239 28.5996 18.2025C28.5996 18.6811 28.9876 19.0691 29.4662 19.0691Z" fill="url(#paint3_linear)"/>
    <defs>
        <linearGradient id="paint0_linear" x1="52.0041" y1="26.0002" x2="0" y2="26.0002" gradientUnits="userSpaceOnUse">
            <stop stop-color="#0A2239"/>
            <stop offset="1" stop-color="#247BA0"/>
        </linearGradient>
        <linearGradient id="paint1_linear" x1="45.9317" y1="15.603" x2="28.5996" y2="15.603" gradientUnits="userSpaceOnUse">
            <stop stop-color="#0A2239"/>
            <stop offset="1" stop-color="#247BA0"/>
        </linearGradient>
        <linearGradient id="paint2_linear" x1="40.732" y1="18.2024" x2="28.5996" y2="18.2024" gradientUnits="userSpaceOnUse">
            <stop stop-color="#0A2239"/>
            <stop offset="1" stop-color="#247BA0"/>
        </linearGradient>
        <linearGradient id="paint3_linear" x1="35.5324" y1="20.8023" x2="28.5996" y2="20.8023" gradientUnits="userSpaceOnUse">
            <stop stop-color="#0A2239"/>
            <stop offset="1" stop-color="#247BA0"/>
        </linearGradient>
    </defs>
</svg>
