<?xml version="1.0" encoding="utf-8"?>
<!-- Generator: Adobe Illustrator 18.0.0, SVG Export Plug-In . SVG Version: 6.00 Build 0)  -->
<!DOCTYPE svg PUBLIC "-//W3C//DTD SVG 1.1//EN" "http://www.w3.org/Graphics/SVG/1.1/DTD/svg11.dtd">
<svg width="60" height="60" viewBox="0 0 60 60" fill="none" xmlns="http://www.w3.org/2000/svg">
    <path d="M60 14.7V14.25C60 11.025 57.375 8.475 54.15 8.475H46.875V2.325C46.875 1.05 45.825 0 44.55 0H21.225C19.95 0 18.9 1.05 18.9 2.325V8.475H10.05V0.75C10.05 0.3 9.75 0 9.3 0H5.1C2.25 0 0 2.25 0 5.1V5.175C0 48.975 0.075 49.125 0.075 49.2C0.375 51.975 2.85 54.225 5.85 54.225H50.7V59.25C50.7 59.7 51 60 51.45 60H54.15C57.375 60 60 57.375 60 54.15V14.7ZM20.4 2.325C20.4 1.875 20.775 1.5 21.225 1.5H44.625C45.075 1.5 45.45 1.875 45.45 2.325V37.5C45.45 37.95 45.075 38.325 44.625 38.325H21.225C20.775 38.325 20.4 37.95 20.4 37.5V2.325ZM5.1 1.5H8.55V8.475H4.8C3 8.475 1.5 6.975 1.5 5.175C1.5 5.1 1.5 5.1 1.5 5.1C1.5 3.075 3.075 1.5 5.1 1.5ZM5.775 52.65C3.6 52.65 1.725 51.075 1.5 49.05C1.5 48.525 1.5 18.975 1.5 8.625C2.325 9.45 3.525 9.975 4.8 9.975H18.9V37.425C18.9 38.7 19.95 39.75 21.225 39.75H44.625C45.9 39.75 46.95 38.7 46.95 37.425V9.975H54.225C56.625 9.975 58.575 11.925 58.575 14.325V14.775C58.575 17.175 56.625 19.125 54.225 19.125H51.525C51.075 19.125 50.775 19.425 50.775 19.875V52.725H5.775V52.65ZM58.5 54.15C58.5 56.55 56.55 58.5 54.15 58.5H52.2V20.55H54.15C55.875 20.55 57.45 19.8 58.5 18.6V54.15Z" fill="url(#paint0_linear)"/>
    <path d="M24.8258 14.1751H41.1008C41.7758 14.1751 42.3758 13.5751 42.3758 12.9001V5.6251C42.3758 4.9501 41.7758 4.3501 41.1008 4.3501H24.8258C24.1508 4.3501 23.5508 4.9501 23.5508 5.6251V12.9001C23.5508 13.5751 24.1508 14.1751 24.8258 14.1751ZM25.0508 5.8501H40.8758V12.6751H25.0508V5.8501Z" fill="url(#paint1_linear)"/>
    <path d="M40.3508 16.7251H35.7758C34.8008 16.7251 34.0508 17.4751 34.0508 18.4501V23.0251C34.0508 24.0001 34.8008 24.7501 35.7758 24.7501H40.3508C41.3258 24.7501 42.0758 24.0001 42.0758 23.0251V18.4501C42.0758 17.5501 41.3258 16.7251 40.3508 16.7251ZM40.5758 23.0251C40.5758 23.1751 40.5008 23.2501 40.3508 23.2501H35.7758C35.6258 23.2501 35.5508 23.1751 35.5508 23.0251V18.4501C35.5508 18.3001 35.6258 18.2251 35.7758 18.2251H40.3508C40.5008 18.2251 40.5758 18.3001 40.5758 18.4501V23.0251Z" fill="url(#paint2_linear)"/>
    <path d="M25.2758 24.8248H29.8508C30.8258 24.8248 31.5758 24.0748 31.5758 23.0998V18.5248C31.5758 17.5498 30.8258 16.7998 29.8508 16.7998H25.2758C24.3008 16.7998 23.5508 17.5498 23.5508 18.5248V23.0998C23.5508 23.9998 24.3008 24.8248 25.2758 24.8248ZM25.0508 18.4498C25.0508 18.2998 25.1258 18.2248 25.2758 18.2248H29.8508C30.0008 18.2248 30.0758 18.2998 30.0758 18.4498V23.0248C30.0758 23.1748 30.0008 23.2498 29.8508 23.2498H25.2758C25.1258 23.2498 25.0508 23.1748 25.0508 23.0248V18.4498Z" fill="url(#paint3_linear)"/>
    <path d="M40.3508 27.0752H35.7758C34.8008 27.0752 34.0508 27.8252 34.0508 28.8002V33.3752C34.0508 34.3502 34.8008 35.1002 35.7758 35.1002H40.3508C41.3258 35.1002 42.0758 34.3502 42.0758 33.3752V28.8002C42.0758 27.8252 41.3258 27.0752 40.3508 27.0752ZM40.5758 33.3752C40.5758 33.5252 40.5008 33.6002 40.3508 33.6002H35.7758C35.6258 33.6002 35.5508 33.5252 35.5508 33.3752V28.8002C35.5508 28.6502 35.6258 28.5752 35.7758 28.5752H40.3508C40.5008 28.5752 40.5758 28.6502 40.5758 28.8002V33.3752Z" fill="url(#paint4_linear)"/>
    <path d="M25.2758 35.1749H29.8508C30.8258 35.1749 31.5758 34.4249 31.5758 33.4499V28.8749C31.5758 27.8999 30.8258 27.1499 29.8508 27.1499H25.2758C24.3008 27.1499 23.5508 27.8999 23.5508 28.8749V33.4499C23.5508 34.3499 24.3008 35.1749 25.2758 35.1749ZM25.0508 28.7999C25.0508 28.6499 25.1258 28.5749 25.2758 28.5749H29.8508C30.0008 28.5749 30.0758 28.6499 30.0758 28.7999V33.3749C30.0758 33.5249 30.0008 33.5999 29.8508 33.5999H25.2758C25.1258 33.5999 25.0508 33.5249 25.0508 33.3749V28.7999Z" fill="url(#paint5_linear)"/>
    <path d="M10.2742 24.075H10.4242C11.6992 24.075 12.7492 25.125 12.7492 26.4C12.7492 27.675 11.6992 28.725 10.4242 28.725C9.14922 28.725 8.09922 27.675 8.09922 26.4C8.09922 25.95 7.79922 25.65 7.34922 25.65C6.89922 25.65 6.59922 25.95 6.59922 26.4C6.59922 28.2 7.87422 29.7 9.52422 30.075V30.75C9.52422 31.2 9.82422 31.5 10.2742 31.5C10.7242 31.5 11.0242 31.2 11.0242 30.75V30.075C12.8242 29.775 14.2492 28.2 14.2492 26.325C14.2492 24.225 12.5242 22.5 10.4242 22.5H10.2742C8.99922 22.5 7.94922 21.45 7.94922 20.175C7.94922 18.9 8.99922 17.85 10.2742 17.85C11.5492 17.85 12.5992 18.9 12.5992 20.175C12.5992 20.625 12.8992 20.925 13.3492 20.925C13.7992 20.925 14.0992 20.625 14.0992 20.175C14.0992 18.3 12.7492 16.8 11.0242 16.425V15.75C11.0242 15.3 10.7242 15 10.2742 15C9.82422 15 9.52422 15.3 9.52422 15.75V16.5C7.79922 16.875 6.44922 18.375 6.44922 20.25C6.44922 22.35 8.17422 24.075 10.2742 24.075Z" fill="url(#paint6_linear)"/>
    <path d="M7.19922 35.9248H13.4992C13.9492 35.9248 14.2492 35.6248 14.2492 35.1748C14.2492 34.7248 13.9492 34.4248 13.4992 34.4248H7.19922C6.74922 34.4248 6.44922 34.7248 6.44922 35.1748C6.44922 35.6248 6.74922 35.9248 7.19922 35.9248Z" fill="url(#paint7_linear)"/>
    <path d="M7.19922 41.5498H13.4992C13.9492 41.5498 14.2492 41.2498 14.2492 40.7998C14.2492 40.3498 13.9492 40.0498 13.4992 40.0498H7.19922C6.74922 40.0498 6.44922 40.3498 6.44922 40.7998C6.44922 41.2498 6.74922 41.5498 7.19922 41.5498Z" fill="url(#paint8_linear)"/>
    <path d="M46.1242 45.6001H7.19922C6.74922 45.6001 6.44922 45.9001 6.44922 46.3501C6.44922 46.8001 6.74922 47.1001 7.19922 47.1001H46.1242C46.5742 47.1001 46.8742 46.8001 46.8742 46.3501C46.8742 45.9001 46.4992 45.6001 46.1242 45.6001Z" fill="url(#paint9_linear)"/>
    <defs>
        <linearGradient id="paint0_linear" x1="60" y1="30" x2="0" y2="30" gradientUnits="userSpaceOnUse">
            <stop stop-color="#0A2239"/>
            <stop offset="1" stop-color="#247BA0"/>
        </linearGradient>
        <linearGradient id="paint1_linear" x1="42.3758" y1="9.2626" x2="23.5508" y2="9.2626" gradientUnits="userSpaceOnUse">
            <stop stop-color="#0A2239"/>
            <stop offset="1" stop-color="#247BA0"/>
        </linearGradient>
        <linearGradient id="paint2_linear" x1="42.0758" y1="20.7376" x2="34.0508" y2="20.7376" gradientUnits="userSpaceOnUse">
            <stop stop-color="#0A2239"/>
            <stop offset="1" stop-color="#247BA0"/>
        </linearGradient>
        <linearGradient id="paint3_linear" x1="31.5758" y1="20.8123" x2="23.5508" y2="20.8123" gradientUnits="userSpaceOnUse">
            <stop stop-color="#0A2239"/>
            <stop offset="1" stop-color="#247BA0"/>
        </linearGradient>
        <linearGradient id="paint4_linear" x1="42.0758" y1="31.0877" x2="34.0508" y2="31.0877" gradientUnits="userSpaceOnUse">
            <stop stop-color="#0A2239"/>
            <stop offset="1" stop-color="#247BA0"/>
        </linearGradient>
        <linearGradient id="paint5_linear" x1="31.5758" y1="31.1624" x2="23.5508" y2="31.1624" gradientUnits="userSpaceOnUse">
            <stop stop-color="#0A2239"/>
            <stop offset="1" stop-color="#247BA0"/>
        </linearGradient>
        <linearGradient id="paint6_linear" x1="14.2492" y1="23.25" x2="6.44922" y2="23.25" gradientUnits="userSpaceOnUse">
            <stop stop-color="#0A2239"/>
            <stop offset="1" stop-color="#247BA0"/>
        </linearGradient>
        <linearGradient id="paint7_linear" x1="14.2492" y1="35.1748" x2="6.44922" y2="35.1748" gradientUnits="userSpaceOnUse">
            <stop stop-color="#0A2239"/>
            <stop offset="1" stop-color="#247BA0"/>
        </linearGradient>
        <linearGradient id="paint8_linear" x1="14.2492" y1="40.7998" x2="6.44922" y2="40.7998" gradientUnits="userSpaceOnUse">
            <stop stop-color="#0A2239"/>
            <stop offset="1" stop-color="#247BA0"/>
        </linearGradient>
        <linearGradient id="paint9_linear" x1="46.8742" y1="46.3501" x2="6.44922" y2="46.3501" gradientUnits="userSpaceOnUse">
            <stop stop-color="#0A2239"/>
            <stop offset="1" stop-color="#247BA0"/>
        </linearGradient>
    </defs>
</svg>
