<?xml version="1.0" encoding="utf-8"?>
<!-- Generator: Adobe Illustrator 18.0.0, SVG Export Plug-In . SVG Version: 6.00 Build 0)  -->
<!DOCTYPE svg PUBLIC "-//W3C//DTD SVG 1.1//EN" "http://www.w3.org/Graphics/SVG/1.1/DTD/svg11.dtd">
<svg width="61" height="44" viewBox="0 0 61 44" fill="none" xmlns="http://www.w3.org/2000/svg">
    <path d="M26.1417 8.01977C25.8713 7.70781 25.3948 7.68181 25.0858 7.95478C25.06 7.96778 25.0471 7.99378 25.0214 8.01977L14.4877 19.9134C14.2044 20.2124 14.2302 20.6933 14.5264 20.9793C14.8225 21.2653 15.299 21.2393 15.5823 20.9403L15.5952 20.9273L25.5751 9.65759L35.5551 20.9273C35.6967 21.0833 35.9028 21.1743 36.1088 21.1743H48.5741C48.9861 21.1743 49.3209 20.8363 49.3209 20.4204C49.3209 20.2384 49.2566 20.0564 49.1278 19.9264L38.5941 8.03277C38.4525 7.87679 38.2464 7.7858 38.0404 7.7858H30.5329C30.1208 7.7858 29.786 8.12376 29.786 8.53972C29.786 8.95567 30.1208 9.29363 30.5329 9.29363H37.7185L46.9258 19.6925H36.4565L26.1417 8.01977Z" fill="url(#paint0_linear)"/>
    <path d="M17.5516 23.0464C17.1395 23.0464 16.8047 23.3843 16.8047 23.8003V35.9799C16.8047 36.3959 17.1395 36.7338 17.5516 36.7338H33.6096C34.0217 36.7338 34.3565 36.3959 34.3565 35.9799V23.8003C34.3565 23.3843 34.0217 23.0464 33.6096 23.0464C33.1975 23.0464 32.8627 23.3843 32.8627 23.8003V35.226H29.3343V29.6106C29.3343 27.5179 27.6474 25.8151 25.5742 25.8151C23.5009 25.8151 21.814 27.5179 21.814 29.6106V35.226H18.2856V23.8003C18.2985 23.3843 17.9636 23.0464 17.5516 23.0464ZM23.3077 29.6106C23.2949 28.3498 24.3122 27.3099 25.5613 27.3099C26.8104 27.2969 27.8406 28.3238 27.8406 29.5846C27.8406 29.5976 27.8406 29.6106 27.8406 29.6236V35.226H23.3077V29.6106Z" fill="url(#paint1_linear)"/>
    <path d="M44.8908 23.8003V35.226H37.0613C36.6493 35.226 36.3145 35.5639 36.3145 35.9799C36.3145 36.3959 36.6493 36.7338 37.0613 36.7338H45.6377C46.0497 36.7338 46.3845 36.3959 46.3845 35.9799V23.8003C46.3845 23.3843 46.0497 23.0464 45.6377 23.0464C45.2256 23.0464 44.8908 23.3843 44.8908 23.8003Z" fill="url(#paint2_linear)"/>
    <path d="M50.1824 35.2257C49.7704 35.2257 49.4355 35.5636 49.4355 35.9796C49.4355 36.3955 49.7704 36.7335 50.1824 36.7335H52.4875C52.8996 36.7335 53.2344 36.3955 53.2344 35.9796V8.51368C53.2344 8.09773 52.8996 7.75977 52.4875 7.75977H50.1824C49.7704 7.75977 49.4355 8.09773 49.4355 8.51368C49.4355 8.92963 49.7704 9.2676 50.1824 9.2676H51.7535V35.2257H50.1824Z" fill="url(#paint3_linear)"/>
    <path d="M60.2539 0H7.61131C6.02739 0 4.75254 1.29985 4.75254 2.88567V4.23752H2.499C1.12112 4.25052 0.0136719 5.38139 0.0136719 6.77223C0.0265492 8.15007 1.12112 9.25495 2.48612 9.26795H8.48697C9.86484 9.28095 10.9852 8.16307 10.998 6.77223C11.0109 5.38139 9.90347 4.25052 8.5256 4.23752C8.51272 4.23752 8.49984 4.23752 8.48697 4.23752H6.23343V2.88567C6.23343 2.11876 6.85154 1.49483 7.61131 1.49483H59.507V42.4922H7.61131C6.85154 42.4922 6.23343 41.8682 6.23343 41.1013V39.2815H8.48697C9.86484 39.2945 10.9852 38.1767 10.998 36.7858C11.0109 35.395 9.90347 34.2641 8.5256 34.2511C8.51272 34.2511 8.49984 34.2511 8.48697 34.2511H6.23343V31.9244C6.23343 31.5084 5.88574 31.1835 5.47367 31.1835C5.07447 31.1835 4.73966 31.5214 4.73966 31.9244V34.2511H2.499C1.12112 34.2641 0.0136719 35.395 0.0136719 36.7858C0.0265492 38.1637 1.12112 39.2685 2.48612 39.2815H4.73966V41.1013C4.73966 42.7001 6.02739 43.987 7.59843 43.987H60.241C60.6531 43.987 60.9879 43.649 60.9879 43.2331V0.753914C61.0008 0.337962 60.666 0 60.2539 0ZM9.4914 6.75923C9.4914 7.31817 9.04069 7.77312 8.48697 7.77312H2.499C1.94527 7.77312 1.49457 7.31817 1.49457 6.75923C1.49457 6.2003 1.94527 5.74535 2.499 5.74535H8.49984C9.04069 5.74535 9.4914 6.2003 9.4914 6.75923ZM1.49457 36.7728C1.49457 36.2139 1.94527 35.7589 2.499 35.7589H8.49984C9.05357 35.7589 9.50428 36.2139 9.50428 36.7728C9.50428 37.3318 9.05357 37.7867 8.49984 37.7867H2.499C1.94527 37.7867 1.49457 37.3318 1.49457 36.7728Z" fill="url(#paint4_linear)"/>
    <path d="M2.49821 29.2859H8.49905C9.87693 29.2859 10.9973 28.155 10.9973 26.7642C10.9973 25.3733 9.87693 24.2425 8.49905 24.2425H6.23264V21.9157C6.23264 21.4998 5.88495 21.1748 5.47287 21.1748C5.07368 21.1748 4.73886 21.5128 4.73886 21.9157V24.2425H2.49821C1.12033 24.2555 0 25.3733 0 26.7642C0 28.155 1.12033 29.2859 2.49821 29.2859ZM2.49821 25.7503H8.49905C9.05278 25.7503 9.50348 26.2052 9.50348 26.7642C9.50348 27.3231 9.05278 27.7781 8.49905 27.7781H2.49821C1.94448 27.7781 1.49377 27.3231 1.49377 26.7642C1.49377 26.2052 1.94448 25.7503 2.49821 25.7503Z" fill="url(#paint5_linear)"/>
    <path d="M5.49838 11.166C5.0863 11.166 4.75149 11.504 4.75149 11.9199V14.2467H2.49795C1.12008 14.2597 0.0126244 15.3905 0.0255018 16.7814C0.0383791 18.1592 1.13295 19.2641 2.49795 19.2771H8.4988C9.87667 19.2901 10.997 18.1722 11.0099 16.7814C11.0228 15.3905 9.91531 14.2597 8.53743 14.2467C8.52455 14.2467 8.51168 14.2467 8.4988 14.2467H6.23238V11.9199C6.23238 11.504 5.89757 11.166 5.49838 11.166ZM9.49035 16.7554C9.49035 17.3143 9.03965 17.7693 8.48592 17.7693H2.49795C1.94423 17.7693 1.49352 17.3143 1.49352 16.7554C1.49352 16.1964 1.94423 15.7415 2.49795 15.7415H8.4988C9.03965 15.7415 9.49035 16.1964 9.49035 16.7554Z" fill="url(#paint6_linear)"/>
    <defs>
        <linearGradient id="paint0_linear" x1="49.3209" y1="14.4732" x2="14.2891" y2="14.4732" gradientUnits="userSpaceOnUse">
            <stop stop-color="#0A2239"/>
            <stop offset="1" stop-color="#247BA0"/>
        </linearGradient>
        <linearGradient id="paint1_linear" x1="34.3565" y1="29.8901" x2="16.8047" y2="29.8901" gradientUnits="userSpaceOnUse">
            <stop stop-color="#0A2239"/>
            <stop offset="1" stop-color="#247BA0"/>
        </linearGradient>
        <linearGradient id="paint2_linear" x1="46.3845" y1="29.8901" x2="36.3145" y2="29.8901" gradientUnits="userSpaceOnUse">
            <stop stop-color="#0A2239"/>
            <stop offset="1" stop-color="#247BA0"/>
        </linearGradient>
        <linearGradient id="paint3_linear" x1="53.2344" y1="22.2466" x2="49.4355" y2="22.2466" gradientUnits="userSpaceOnUse">
            <stop stop-color="#0A2239"/>
            <stop offset="1" stop-color="#247BA0"/>
        </linearGradient>
        <linearGradient id="paint4_linear" x1="60.9883" y1="21.9935" x2="0.0136719" y2="21.9935" gradientUnits="userSpaceOnUse">
            <stop stop-color="#0A2239"/>
            <stop offset="1" stop-color="#247BA0"/>
        </linearGradient>
        <linearGradient id="paint5_linear" x1="10.9973" y1="25.2303" x2="0" y2="25.2303" gradientUnits="userSpaceOnUse">
            <stop stop-color="#0A2239"/>
            <stop offset="1" stop-color="#247BA0"/>
        </linearGradient>
        <linearGradient id="paint6_linear" x1="11.01" y1="15.2216" x2="0.0253906" y2="15.2216" gradientUnits="userSpaceOnUse">
            <stop stop-color="#0A2239"/>
            <stop offset="1" stop-color="#247BA0"/>
        </linearGradient>
    </defs>
</svg>
