<?xml version="1.0" encoding="utf-8"?>
<!-- Generator: Adobe Illustrator 18.0.0, SVG Export Plug-In . SVG Version: 6.00 Build 0)  -->
<!DOCTYPE svg PUBLIC "-//W3C//DTD SVG 1.1//EN" "http://www.w3.org/Graphics/SVG/1.1/DTD/svg11.dtd">
<svg width="56" height="56" viewBox="0 0 56 56" fill="none" xmlns="http://www.w3.org/2000/svg">
    <path d="M47.3793 50.5542C45.8309 50.5542 44.5664 49.2886 44.5664 47.7244C44.5664 46.1602 45.8245 44.8945 47.3793 44.8945C48.9341 44.8945 50.1922 46.1602 50.1922 47.7244C50.1922 49.2886 48.9277 50.5542 47.3793 50.5542ZM47.3793 46.1926C46.5406 46.1926 45.8567 46.8806 45.8567 47.7244C45.8567 48.5681 46.5406 49.2561 47.3793 49.2561C48.218 49.2561 48.9019 48.5681 48.9019 47.7244C48.9019 46.8806 48.218 46.1926 47.3793 46.1926Z" fill="url(#paint0_linear)"/>
    <path d="M44.7678 55.9999C41.871 55.9999 39.1549 54.8641 37.1097 52.8066C36.7613 52.4561 36.4323 52.0796 36.1291 51.6772C36.0968 51.6318 36.0581 51.5864 36.0259 51.5409C33.7549 48.432 33.3033 44.3559 34.8001 40.8186L20.4259 26.3513C20.2517 26.1761 20.1484 25.9294 20.1484 25.6763V21.2822C20.1484 20.7565 20.5742 20.3281 21.0968 20.3281H25.4646C25.7162 20.3281 25.9613 20.432 26.1355 20.6072L28.3871 22.8724L28.271 24.865L30.2517 24.7482L32.3807 26.89L32.2646 28.8826L34.2452 28.7658L36.3742 30.9076L36.2581 32.9002L38.2388 32.7834L40.5162 35.0745C43.3226 33.8673 46.4904 33.9062 49.2775 35.1849C49.342 35.2108 49.4065 35.2433 49.471 35.2757C50.5678 35.808 51.5678 36.5219 52.4323 37.3916C54.4775 39.4491 55.6065 42.1881 55.6065 45.0959C55.6065 48.0036 54.4775 50.7426 52.4323 52.8066C50.3872 54.8705 47.6646 55.9999 44.7678 55.9999ZM21.4388 25.5335L36.3613 40.546L36.1549 40.9614C36.142 40.9939 36.1291 41.0198 36.1097 41.0523C34.6452 44.2326 35.0065 47.9582 37.0646 50.775C37.0968 50.814 37.1226 50.8594 37.1549 50.8984C37.4194 51.2488 37.7097 51.5864 38.0194 51.8914C39.8194 53.7023 42.2194 54.7018 44.7678 54.7018C47.3162 54.7018 49.7162 53.7023 51.5162 51.8914C53.3162 50.0806 54.3097 47.6661 54.3097 45.1024C54.3097 42.5386 53.3162 40.1241 51.5162 38.3133C50.7484 37.5409 49.871 36.9178 48.9033 36.444C48.8452 36.4181 48.7936 36.3921 48.7355 36.3661C46.1872 35.1979 43.2775 35.2043 40.742 36.3921C40.7162 36.4051 40.6839 36.4181 40.6517 36.4375L40.2388 36.6452L37.7291 34.1204L34.8775 34.2827L35.0388 31.4139L33.742 30.0963L30.8904 30.2586L31.0517 27.3898L29.742 26.0722L26.8904 26.2345L27.0517 23.3657L25.3097 21.6132H21.4259V25.5335H21.4388Z" fill="url(#paint1_linear)"/>
    <path d="M37.9418 51.9369H6.1676V25.2805H0.71599C0.419216 25.2805 0.148248 25.0923 0.0450224 24.8132C-0.0582035 24.5341 0.0192159 24.216 0.245022 24.0148L27.9999 0L55.7483 24.0213C55.9741 24.2225 56.0579 24.5406 55.9547 24.8197C55.8515 25.0987 55.5805 25.287 55.2837 25.287H49.8321V36.8985L48.9095 36.4506C48.8515 36.4247 48.7934 36.3987 48.7418 36.3727C46.1934 35.2045 43.2837 35.2109 40.7483 36.3987C40.7224 36.4117 40.6902 36.4247 40.6579 36.4441L40.245 36.6518L37.7354 34.127L34.8837 34.2893L35.045 31.4205L33.7418 30.0964L30.8902 30.2587L31.0515 27.3899L29.7418 26.0723L26.8902 26.2346L27.0515 23.3658L25.3095 21.6134H21.4257V25.5206L36.3483 40.5331L36.1483 40.9485C36.1353 40.981 36.1224 41.007 36.1031 41.0394C34.6386 44.2197 34.9999 47.9453 37.0579 50.7622C37.0902 50.8011 37.116 50.8465 37.1483 50.8855L37.9418 51.9369ZM7.45793 50.6388H35.4386C33.6966 47.6727 33.445 44.0185 34.8063 40.8187L20.4257 26.3514C20.2515 26.1762 20.1482 25.9295 20.1482 25.6764V21.2823C20.1482 20.7566 20.5741 20.3282 21.0966 20.3282H25.4644C25.716 20.3282 25.9612 20.4321 26.1353 20.6073L28.387 22.8725L28.2708 24.8651L30.2515 24.7483L32.3805 26.8901L32.2644 28.8827L34.245 28.7659L36.3741 30.9077L36.2579 32.9003L38.2386 32.7835L40.516 35.0746C43.0773 33.9713 45.9483 33.9064 48.5483 34.8799V23.9824H53.7418L27.9999 1.707L2.26438 23.9824H7.45793V50.6388Z" fill="url(#paint2_linear)"/>
    <path d="M17.2965 14.6838L15.7656 16.0088L16.6072 16.9929L18.138 15.6679L17.2965 14.6838Z" fill="url(#paint3_linear)"/>
    <path d="M37.1153 51.9368H6.16691V25.2803H5.05078L13.6701 17.8228L14.5088 18.8028L7.45723 24.9104V50.6387H37.1153V51.9368Z" fill="url(#paint4_linear)"/>
    <path d="M49.8305 35.8599H48.5402V24.9104L27.9983 7.13292L20.0112 14.0453L19.166 13.0587L27.9983 5.41943L50.9467 25.2803H49.8305V35.8599Z" fill="url(#paint5_linear)"/>
    <path d="M35.2257 51.937H20.1289V31.2907C20.1289 30.7715 20.5483 30.3496 21.0644 30.3496H26.2257L35.6837 39.8647L34.7741 40.7798L25.6902 31.6477H21.4192V50.6389H35.2257V51.937Z" fill="url(#paint6_linear)"/>
    <path d="M47.5857 18.6668L40.418 12.4619V6.32839C40.418 5.96492 40.7083 5.67285 41.0696 5.67285H46.9341C47.2954 5.67285 47.5857 5.96492 47.5857 6.32839V18.6668ZM41.7083 11.8648L46.2954 15.837V6.96446H41.7083V11.8648Z" fill="url(#paint7_linear)"/>
    <path d="M24.1481 42.0389C23.6578 42.0389 23.2578 41.6365 23.2578 41.1432C23.2578 40.65 23.6578 40.2476 24.1481 40.2476C24.6385 40.2476 25.0385 40.65 25.0385 41.1432C25.0385 41.6365 24.6385 42.0389 24.1481 42.0389ZM24.1481 40.7408C23.9288 40.7408 23.7481 40.9226 23.7481 41.1432C23.7481 41.3639 23.9288 41.5457 24.1481 41.5457C24.3675 41.5457 24.5481 41.3639 24.5481 41.1432C24.5481 40.9226 24.3675 40.7408 24.1481 40.7408Z" fill="url(#paint8_linear)"/>
    <defs>
        <linearGradient id="paint0_linear" x1="50.1922" y1="47.7244" x2="44.5664" y2="47.7244" gradientUnits="userSpaceOnUse">
            <stop stop-color="#0A2239"/>
            <stop offset="1" stop-color="#247BA0"/>
        </linearGradient>
        <linearGradient id="paint1_linear" x1="55.6065" y1="38.164" x2="20.1484" y2="38.164" gradientUnits="userSpaceOnUse">
            <stop stop-color="#0A2239"/>
            <stop offset="1" stop-color="#247BA0"/>
        </linearGradient>
        <linearGradient id="paint2_linear" x1="55.9984" y1="25.9685" x2="0" y2="25.9685" gradientUnits="userSpaceOnUse">
            <stop stop-color="#0A2239"/>
            <stop offset="1" stop-color="#247BA0"/>
        </linearGradient>
        <linearGradient id="paint3_linear" x1="17.7173" y1="15.1759" x2="16.1786" y2="16.4917" gradientUnits="userSpaceOnUse">
            <stop stop-color="#0A2239"/>
            <stop offset="1" stop-color="#247BA0"/>
        </linearGradient>
        <linearGradient id="paint4_linear" x1="37.1153" y1="34.8798" x2="5.05078" y2="34.8798" gradientUnits="userSpaceOnUse">
            <stop stop-color="#0A2239"/>
            <stop offset="1" stop-color="#247BA0"/>
        </linearGradient>
        <linearGradient id="paint5_linear" x1="50.9467" y1="20.6396" x2="19.166" y2="20.6396" gradientUnits="userSpaceOnUse">
            <stop stop-color="#0A2239"/>
            <stop offset="1" stop-color="#247BA0"/>
        </linearGradient>
        <linearGradient id="paint6_linear" x1="35.6837" y1="41.1433" x2="20.1289" y2="41.1433" gradientUnits="userSpaceOnUse">
            <stop stop-color="#0A2239"/>
            <stop offset="1" stop-color="#247BA0"/>
        </linearGradient>
        <linearGradient id="paint7_linear" x1="47.5857" y1="12.1698" x2="40.418" y2="12.1698" gradientUnits="userSpaceOnUse">
            <stop stop-color="#0A2239"/>
            <stop offset="1" stop-color="#247BA0"/>
        </linearGradient>
        <linearGradient id="paint8_linear" x1="25.0385" y1="41.1432" x2="23.2578" y2="41.1432" gradientUnits="userSpaceOnUse">
            <stop stop-color="#0A2239"/>
            <stop offset="1" stop-color="#247BA0"/>
        </linearGradient>
    </defs>
</svg>
