<?xml version="1.0" encoding="utf-8"?>
<!-- Generator: Adobe Illustrator 18.0.0, SVG Export Plug-In . SVG Version: 6.00 Build 0)  -->
<!DOCTYPE svg PUBLIC "-//W3C//DTD SVG 1.1//EN" "http://www.w3.org/Graphics/SVG/1.1/DTD/svg11.dtd">
<svg width="50" height="51" viewBox="0 0 50 51" fill="none" xmlns="http://www.w3.org/2000/svg">
    <path d="M49.1812 48.9125H47.8443V30.0365C47.8443 29.6916 47.567 29.4125 47.2243 29.4125H45.248V9.83454C45.248 9.48963 44.9707 9.21054 44.628 9.21054H31.9665V7.10454C31.9665 6.93635 31.8993 6.77548 31.78 6.65848L25.4347 0.418477C25.1937 0.18082 24.8086 0.18082 24.5677 0.418477L18.2223 6.65848C18.1031 6.77548 18.0359 6.93635 18.0359 7.10454V48.9125H15.5946V0.864539C15.5946 0.519633 15.3173 0.240539 14.9746 0.240539H2.80711C2.46441 0.240539 2.18711 0.519633 2.18711 0.864539V48.9125H0.821172C0.478477 48.9125 0.201172 49.1916 0.201172 49.5365C0.201172 49.8814 0.478477 50.1605 0.821172 50.1605H49.1812C49.5239 50.1605 49.8012 49.8814 49.8012 49.5365C49.8012 49.1916 49.5239 48.9125 49.1812 48.9125ZM46.6043 48.9125H35.6768V30.6605H46.6043V48.9125ZM44.008 10.4585V29.4125H35.0568C34.7141 29.4125 34.4368 29.6916 34.4368 30.0365V48.9125H31.9665V10.4585H44.008ZM30.7265 7.87174V11.5213H19.2759V7.87174H30.7265ZM30.7265 16.4188H19.2759V12.7693H30.7265V16.4188ZM19.2759 17.6668H30.7265V21.317H19.2759V17.6668ZM19.2759 22.565H30.7265V26.2145H19.2759V22.565ZM25.0012 1.73716L29.9705 6.62374H20.0319L25.0012 1.73716ZM19.2759 27.4625H30.7265V48.9125H19.2759V27.4625ZM3.42711 1.48854H14.3546V48.9125H3.42711V1.48854Z" fill="url(#paint0_linear)"/>
    <path d="M38.2743 35.9517C38.617 35.9517 38.8943 35.6726 38.8943 35.3277V33.7153C38.8943 33.3704 38.617 33.0913 38.2743 33.0913C37.9316 33.0913 37.6543 33.3704 37.6543 33.7153V35.3277C37.6543 35.6726 37.9316 35.9517 38.2743 35.9517Z" fill="url(#paint1_linear)"/>
    <path d="M41.1415 35.9517C41.4842 35.9517 41.7615 35.6726 41.7615 35.3277V33.7153C41.7615 33.3704 41.4842 33.0913 41.1415 33.0913C40.7988 33.0913 40.5215 33.3704 40.5215 33.7153V35.3277C40.5215 35.6726 40.7988 35.9517 41.1415 35.9517Z" fill="url(#paint2_linear)"/>
    <path d="M44.0087 35.9517C44.3514 35.9517 44.6287 35.6726 44.6287 35.3277V33.7153C44.6287 33.3704 44.3514 33.0913 44.0087 33.0913C43.666 33.0913 43.3887 33.3704 43.3887 33.7153V35.3277C43.3887 35.6726 43.666 35.9517 44.0087 35.9517Z" fill="url(#paint3_linear)"/>
    <path d="M38.2743 40.6319C38.617 40.6319 38.8943 40.3528 38.8943 40.0079V38.3955C38.8943 38.0506 38.617 37.7715 38.2743 37.7715C37.9316 37.7715 37.6543 38.0506 37.6543 38.3955V40.0079C37.6543 40.3528 37.9316 40.6319 38.2743 40.6319Z" fill="url(#paint4_linear)"/>
    <path d="M41.1415 40.6319C41.4842 40.6319 41.7615 40.3528 41.7615 40.0079V38.3955C41.7615 38.0506 41.4842 37.7715 41.1415 37.7715C40.7988 37.7715 40.5215 38.0506 40.5215 38.3955V40.0079C40.5215 40.3528 40.7988 40.6319 41.1415 40.6319Z" fill="url(#paint5_linear)"/>
    <path d="M44.0087 40.6319C44.3514 40.6319 44.6287 40.3528 44.6287 40.0079V38.3955C44.6287 38.0506 44.3514 37.7715 44.0087 37.7715C43.666 37.7715 43.3887 38.0506 43.3887 38.3955V40.0079C43.3887 40.3528 43.666 40.6319 44.0087 40.6319Z" fill="url(#paint6_linear)"/>
    <path d="M38.2743 45.3116C38.617 45.3116 38.8943 45.0325 38.8943 44.6876V43.0752C38.8943 42.7303 38.617 42.4512 38.2743 42.4512C37.9316 42.4512 37.6543 42.7303 37.6543 43.0752V44.6876C37.6543 45.0325 37.9316 45.3116 38.2743 45.3116Z" fill="url(#paint7_linear)"/>
    <path d="M41.1415 45.3116C41.4842 45.3116 41.7615 45.0325 41.7615 44.6876V43.0752C41.7615 42.7303 41.4842 42.4512 41.1415 42.4512C40.7988 42.4512 40.5215 42.7303 40.5215 43.0752V44.6876C40.5215 45.0325 40.7988 45.3116 41.1415 45.3116Z" fill="url(#paint8_linear)"/>
    <path d="M44.0087 45.3116C44.3514 45.3116 44.6287 45.0325 44.6287 44.6876V43.0752C44.6287 42.7303 44.3514 42.4512 44.0087 42.4512C43.666 42.4512 43.3887 42.7303 43.3887 43.0752V44.6876C43.3887 45.0325 43.666 45.3116 44.0087 45.3116Z" fill="url(#paint9_linear)"/>
    <path d="M35.2157 16.663C35.5584 16.663 35.8357 16.3839 35.8357 16.039V14.4272C35.8357 14.0823 35.5584 13.8032 35.2157 13.8032C34.873 13.8032 34.5957 14.0823 34.5957 14.4272V16.039C34.5957 16.3839 34.873 16.663 35.2157 16.663Z" fill="url(#paint10_linear)"/>
    <path d="M38.0829 16.663C38.4256 16.663 38.7029 16.3839 38.7029 16.039V14.4272C38.7029 14.0823 38.4256 13.8032 38.0829 13.8032C37.7402 13.8032 37.4629 14.0823 37.4629 14.4272V16.039C37.4629 16.3839 37.7402 16.663 38.0829 16.663Z" fill="url(#paint11_linear)"/>
    <path d="M40.9501 16.663C41.2928 16.663 41.5701 16.3839 41.5701 16.039V14.4272C41.5701 14.0823 41.2928 13.8032 40.9501 13.8032C40.6074 13.8032 40.3301 14.0823 40.3301 14.4272V16.039C40.3301 16.3839 40.6074 16.663 40.9501 16.663Z" fill="url(#paint12_linear)"/>
    <path d="M35.2157 21.3432C35.5584 21.3432 35.8357 21.0641 35.8357 20.7192V19.1074C35.8357 18.7625 35.5584 18.4834 35.2157 18.4834C34.873 18.4834 34.5957 18.7625 34.5957 19.1074V20.7192C34.5957 21.0641 34.873 21.3432 35.2157 21.3432Z" fill="url(#paint13_linear)"/>
    <path d="M38.0829 21.3432C38.4256 21.3432 38.7029 21.0641 38.7029 20.7192V19.1074C38.7029 18.7625 38.4256 18.4834 38.0829 18.4834C37.7402 18.4834 37.4629 18.7625 37.4629 19.1074V20.7192C37.4629 21.0641 37.7402 21.3432 38.0829 21.3432Z" fill="url(#paint14_linear)"/>
    <path d="M40.9501 21.3432C41.2928 21.3432 41.5701 21.0641 41.5701 20.7192V19.1074C41.5701 18.7625 41.2928 18.4834 40.9501 18.4834C40.6074 18.4834 40.3301 18.7625 40.3301 19.1074V20.7192C40.3301 21.0641 40.6074 21.3432 40.9501 21.3432Z" fill="url(#paint15_linear)"/>
    <path d="M35.2157 26.0234C35.5584 26.0234 35.8357 25.7443 35.8357 25.3994V23.7876C35.8357 23.4427 35.5584 23.1636 35.2157 23.1636C34.873 23.1636 34.5957 23.4427 34.5957 23.7876V25.3994C34.5957 25.7443 34.873 26.0234 35.2157 26.0234Z" fill="url(#paint16_linear)"/>
    <path d="M38.0829 26.0234C38.4256 26.0234 38.7029 25.7443 38.7029 25.3994V23.7876C38.7029 23.4427 38.4256 23.1636 38.0829 23.1636C37.7402 23.1636 37.4629 23.4427 37.4629 23.7876V25.3994C37.4629 25.7443 37.7402 26.0234 38.0829 26.0234Z" fill="url(#paint17_linear)"/>
    <path d="M40.9501 26.0234C41.2928 26.0234 41.5701 25.7443 41.5701 25.3994V23.7876C41.5701 23.4427 41.2928 23.1636 40.9501 23.1636C40.6074 23.1636 40.3301 23.4427 40.3301 23.7876V25.3994C40.3301 25.7443 40.6074 26.0234 40.9501 26.0234Z" fill="url(#paint18_linear)"/>
    <path d="M26.9016 33.1396H23.1005C22.7578 33.1396 22.4805 33.4187 22.4805 33.7636V37.5899C22.4805 37.9348 22.7578 38.2139 23.1005 38.2139H26.9016C27.2443 38.2139 27.5216 37.9348 27.5216 37.5899V33.7636C27.5216 33.4187 27.2443 33.1396 26.9016 33.1396ZM26.2816 36.9659H23.7205V34.3876H26.2816V36.9659Z" fill="url(#paint19_linear)"/>
    <path d="M26.9016 40.3892H23.1005C22.7578 40.3892 22.4805 40.6683 22.4805 41.0132V44.8394C22.4805 45.1843 22.7578 45.4634 23.1005 45.4634H26.9016C27.2443 45.4634 27.5216 45.1843 27.5216 44.8394V41.0132C27.5216 40.6683 27.2443 40.3892 26.9016 40.3892ZM26.2816 44.2154H23.7205V41.6372H26.2816V44.2154Z" fill="url(#paint20_linear)"/>
    <path d="M10.7922 33.1396H6.99109C6.6484 33.1396 6.37109 33.4187 6.37109 33.7636V37.5899C6.37109 37.9348 6.6484 38.2139 6.99109 38.2139H10.7922C11.1349 38.2139 11.4122 37.9348 11.4122 37.5899V33.7636C11.4122 33.4187 11.1349 33.1396 10.7922 33.1396ZM10.1722 36.9659H7.61109V34.3876H10.1722V36.9659Z" fill="url(#paint21_linear)"/>
    <path d="M10.7922 26.1099H6.99109C6.6484 26.1099 6.37109 26.389 6.37109 26.7339V30.5601C6.37109 30.905 6.6484 31.1841 6.99109 31.1841H10.7922C11.1349 31.1841 11.4122 30.905 11.4122 30.5601V26.7339C11.4122 26.389 11.1349 26.1099 10.7922 26.1099ZM10.1722 29.9361H7.61109V27.3579H10.1722V29.9361Z" fill="url(#paint22_linear)"/>
    <path d="M10.7922 19.0801H6.99109C6.6484 19.0801 6.37109 19.3592 6.37109 19.7041V23.5303C6.37109 23.8753 6.6484 24.1543 6.99109 24.1543H10.7922C11.1349 24.1543 11.4122 23.8753 11.4122 23.5303V19.7041C11.4122 19.3592 11.1349 19.0801 10.7922 19.0801ZM10.1722 22.9063H7.61109V20.3281H10.1722V22.9063Z" fill="url(#paint23_linear)"/>
    <path d="M10.7922 12.0508H6.99109C6.6484 12.0508 6.37109 12.3299 6.37109 12.6748V16.501C6.37109 16.846 6.6484 17.125 6.99109 17.125H10.7922C11.1349 17.125 11.4122 16.846 11.4122 16.501V12.6748C11.4122 12.3299 11.1349 12.0508 10.7922 12.0508ZM10.1722 15.877H7.61109V13.2988H10.1722V15.877Z" fill="url(#paint24_linear)"/>
    <path d="M10.7922 5.021H6.99109C6.6484 5.021 6.37109 5.30009 6.37109 5.645V9.47126C6.37109 9.81617 6.6484 10.0953 6.99109 10.0953H10.7922C11.1349 10.0953 11.4122 9.81617 11.4122 9.47126V5.645C11.4122 5.30009 11.1349 5.021 10.7922 5.021ZM10.1722 8.84726H7.61109V6.269H10.1722V8.84726Z" fill="url(#paint25_linear)"/>
    <path d="M10.7922 40.3892H6.99109C6.6484 40.3892 6.37109 40.6683 6.37109 41.0132V44.8394C6.37109 45.1843 6.6484 45.4634 6.99109 45.4634H10.7922C11.1349 45.4634 11.4122 45.1843 11.4122 44.8394V41.0132C11.4122 40.6683 11.1349 40.3892 10.7922 40.3892ZM10.1722 44.2154H7.61109V41.6372H10.1722V44.2154Z" fill="url(#paint26_linear)"/>
    <defs>
        <linearGradient id="paint0_linear" x1="49.8012" y1="25.2004" x2="0.201172" y2="25.2004" gradientUnits="userSpaceOnUse">
            <stop stop-color="#0A2239"/>
            <stop offset="1" stop-color="#247BA0"/>
        </linearGradient>
        <linearGradient id="paint1_linear" x1="38.8943" y1="34.5215" x2="37.6543" y2="34.5215" gradientUnits="userSpaceOnUse">
            <stop stop-color="#0A2239"/>
            <stop offset="1" stop-color="#247BA0"/>
        </linearGradient>
        <linearGradient id="paint2_linear" x1="41.7615" y1="34.5215" x2="40.5215" y2="34.5215" gradientUnits="userSpaceOnUse">
            <stop stop-color="#0A2239"/>
            <stop offset="1" stop-color="#247BA0"/>
        </linearGradient>
        <linearGradient id="paint3_linear" x1="44.6287" y1="34.5215" x2="43.3887" y2="34.5215" gradientUnits="userSpaceOnUse">
            <stop stop-color="#0A2239"/>
            <stop offset="1" stop-color="#247BA0"/>
        </linearGradient>
        <linearGradient id="paint4_linear" x1="38.8943" y1="39.2017" x2="37.6543" y2="39.2017" gradientUnits="userSpaceOnUse">
            <stop stop-color="#0A2239"/>
            <stop offset="1" stop-color="#247BA0"/>
        </linearGradient>
        <linearGradient id="paint5_linear" x1="41.7615" y1="39.2017" x2="40.5215" y2="39.2017" gradientUnits="userSpaceOnUse">
            <stop stop-color="#0A2239"/>
            <stop offset="1" stop-color="#247BA0"/>
        </linearGradient>
        <linearGradient id="paint6_linear" x1="44.6287" y1="39.2017" x2="43.3887" y2="39.2017" gradientUnits="userSpaceOnUse">
            <stop stop-color="#0A2239"/>
            <stop offset="1" stop-color="#247BA0"/>
        </linearGradient>
        <linearGradient id="paint7_linear" x1="38.8943" y1="43.8814" x2="37.6543" y2="43.8814" gradientUnits="userSpaceOnUse">
            <stop stop-color="#0A2239"/>
            <stop offset="1" stop-color="#247BA0"/>
        </linearGradient>
        <linearGradient id="paint8_linear" x1="41.7615" y1="43.8814" x2="40.5215" y2="43.8814" gradientUnits="userSpaceOnUse">
            <stop stop-color="#0A2239"/>
            <stop offset="1" stop-color="#247BA0"/>
        </linearGradient>
        <linearGradient id="paint9_linear" x1="44.6287" y1="43.8814" x2="43.3887" y2="43.8814" gradientUnits="userSpaceOnUse">
            <stop stop-color="#0A2239"/>
            <stop offset="1" stop-color="#247BA0"/>
        </linearGradient>
        <linearGradient id="paint10_linear" x1="35.8357" y1="15.2331" x2="34.5957" y2="15.2331" gradientUnits="userSpaceOnUse">
            <stop stop-color="#0A2239"/>
            <stop offset="1" stop-color="#247BA0"/>
        </linearGradient>
        <linearGradient id="paint11_linear" x1="38.7029" y1="15.2331" x2="37.4629" y2="15.2331" gradientUnits="userSpaceOnUse">
            <stop stop-color="#0A2239"/>
            <stop offset="1" stop-color="#247BA0"/>
        </linearGradient>
        <linearGradient id="paint12_linear" x1="41.5701" y1="15.2331" x2="40.3301" y2="15.2331" gradientUnits="userSpaceOnUse">
            <stop stop-color="#0A2239"/>
            <stop offset="1" stop-color="#247BA0"/>
        </linearGradient>
        <linearGradient id="paint13_linear" x1="35.8357" y1="19.9133" x2="34.5957" y2="19.9133" gradientUnits="userSpaceOnUse">
            <stop stop-color="#0A2239"/>
            <stop offset="1" stop-color="#247BA0"/>
        </linearGradient>
        <linearGradient id="paint14_linear" x1="38.7029" y1="19.9133" x2="37.4629" y2="19.9133" gradientUnits="userSpaceOnUse">
            <stop stop-color="#0A2239"/>
            <stop offset="1" stop-color="#247BA0"/>
        </linearGradient>
        <linearGradient id="paint15_linear" x1="41.5701" y1="19.9133" x2="40.3301" y2="19.9133" gradientUnits="userSpaceOnUse">
            <stop stop-color="#0A2239"/>
            <stop offset="1" stop-color="#247BA0"/>
        </linearGradient>
        <linearGradient id="paint16_linear" x1="35.8357" y1="24.5935" x2="34.5957" y2="24.5935" gradientUnits="userSpaceOnUse">
            <stop stop-color="#0A2239"/>
            <stop offset="1" stop-color="#247BA0"/>
        </linearGradient>
        <linearGradient id="paint17_linear" x1="38.7029" y1="24.5935" x2="37.4629" y2="24.5935" gradientUnits="userSpaceOnUse">
            <stop stop-color="#0A2239"/>
            <stop offset="1" stop-color="#247BA0"/>
        </linearGradient>
        <linearGradient id="paint18_linear" x1="41.5701" y1="24.5935" x2="40.3301" y2="24.5935" gradientUnits="userSpaceOnUse">
            <stop stop-color="#0A2239"/>
            <stop offset="1" stop-color="#247BA0"/>
        </linearGradient>
        <linearGradient id="paint19_linear" x1="27.5216" y1="35.6768" x2="22.4805" y2="35.6768" gradientUnits="userSpaceOnUse">
            <stop stop-color="#0A2239"/>
            <stop offset="1" stop-color="#247BA0"/>
        </linearGradient>
        <linearGradient id="paint20_linear" x1="27.5216" y1="42.9263" x2="22.4805" y2="42.9263" gradientUnits="userSpaceOnUse">
            <stop stop-color="#0A2239"/>
            <stop offset="1" stop-color="#247BA0"/>
        </linearGradient>
        <linearGradient id="paint21_linear" x1="11.4122" y1="35.6768" x2="6.37109" y2="35.6768" gradientUnits="userSpaceOnUse">
            <stop stop-color="#0A2239"/>
            <stop offset="1" stop-color="#247BA0"/>
        </linearGradient>
        <linearGradient id="paint22_linear" x1="11.4122" y1="28.647" x2="6.37109" y2="28.647" gradientUnits="userSpaceOnUse">
            <stop stop-color="#0A2239"/>
            <stop offset="1" stop-color="#247BA0"/>
        </linearGradient>
        <linearGradient id="paint23_linear" x1="11.4122" y1="21.6172" x2="6.37109" y2="21.6172" gradientUnits="userSpaceOnUse">
            <stop stop-color="#0A2239"/>
            <stop offset="1" stop-color="#247BA0"/>
        </linearGradient>
        <linearGradient id="paint24_linear" x1="11.4122" y1="14.5879" x2="6.37109" y2="14.5879" gradientUnits="userSpaceOnUse">
            <stop stop-color="#0A2239"/>
            <stop offset="1" stop-color="#247BA0"/>
        </linearGradient>
        <linearGradient id="paint25_linear" x1="11.4122" y1="7.55813" x2="6.37109" y2="7.55813" gradientUnits="userSpaceOnUse">
            <stop stop-color="#0A2239"/>
            <stop offset="1" stop-color="#247BA0"/>
        </linearGradient>
        <linearGradient id="paint26_linear" x1="11.4122" y1="42.9263" x2="6.37109" y2="42.9263" gradientUnits="userSpaceOnUse">
            <stop stop-color="#0A2239"/>
            <stop offset="1" stop-color="#247BA0"/>
        </linearGradient>
    </defs>
</svg>
