<?xml version="1.0" encoding="utf-8"?>
<!-- Generator: Adobe Illustrator 18.0.0, SVG Export Plug-In . SVG Version: 6.00 Build 0)  -->
<!DOCTYPE svg PUBLIC "-//W3C//DTD SVG 1.1//EN" "http://www.w3.org/Graphics/SVG/1.1/DTD/svg11.dtd">
<svg width="44" height="48" viewBox="0 0 44 48" fill="none" xmlns="http://www.w3.org/2000/svg">
    <path d="M42.6983 6.95625C42.3966 6.44062 41.9158 6.075 41.3407 5.925C40.7656 5.775 40.1622 5.85 39.6437 6.15L38.3993 6.8625C38.2578 6.73125 38.0787 6.6375 37.8902 6.58125C37.579 6.49687 37.2491 6.54375 36.9662 6.70312L33.9588 8.42813L32.5918 6.72187C31.9507 5.91562 30.9796 5.40938 29.952 5.33438C29.1129 5.27813 28.2738 5.50313 27.5856 5.97188V1.4625C27.5856 0.65625 26.9257 0 26.1149 0H9.86143C9.4749 0 9.15435 0.31875 9.15435 0.703125C9.15435 1.0875 9.4749 1.40625 9.86143 1.40625H26.1243C26.1526 1.40625 26.1809 1.43438 26.1809 1.4625V7.22812L22.6078 10.5656C22.5135 10.2844 22.2495 10.0875 21.9384 10.0875H8.21158C7.82504 10.0875 7.50449 10.4062 7.50449 10.7906C7.50449 11.175 7.82504 11.4937 8.21158 11.4937H21.6178L16.8003 15.9938C16.2157 16.5375 16.0555 17.3719 16.3477 18.0844C16.1875 18.3 16.0649 18.525 15.9612 18.7687L14.2359 19.7531H8.21158C7.82504 19.7531 7.50449 20.0719 7.50449 20.4562C7.50449 20.8406 7.82504 21.1594 8.21158 21.1594H12.9255C12.85 21.3188 12.7935 21.4781 12.7463 21.6469C12.5955 22.2094 12.6049 22.7906 12.7746 23.325L10.5214 24.6188C10.182 24.8156 10.0688 25.2469 10.2668 25.575C10.4648 25.9125 10.8985 26.025 11.2285 25.8281L13.4911 24.5344C14.0851 25.1625 14.9053 25.5 15.7444 25.5C16.2723 25.5 16.8003 25.3688 17.2811 25.0875L17.9787 24.6844L20.7411 29.4H8.21158C7.82504 29.4 7.50449 29.7188 7.50449 30.1031C7.50449 30.4875 7.82504 30.8063 8.21158 30.8063H21.665C21.9761 31.1531 22.3532 31.4531 22.768 31.6875L25.3418 33.15V33.8812H25.1721C24.3048 33.8812 23.5977 34.5844 23.5977 35.4469V37.6031H23.5788C22.5606 37.6031 21.7404 38.4281 21.7404 39.4313V39.4875H1.47073C1.44245 39.4875 1.41416 39.4594 1.41416 39.4313V37.65C2.90375 37.3219 3.96909 36.0187 3.96909 34.4812C3.96909 32.9437 2.90375 31.6406 1.41416 31.3125V28.2844C2.90375 27.9563 3.96909 26.6531 3.96909 25.1156C3.96909 23.5781 2.90375 22.275 1.41416 21.9469V18.9375C2.90375 18.6094 3.96909 17.3062 3.96909 15.7687C3.96909 14.2312 2.90375 12.9281 1.41416 12.6094V9.58125C2.90375 9.25312 3.96909 7.95 3.96909 6.4125C3.96909 4.875 2.90375 3.5625 1.41416 3.24375V1.4625C1.41416 1.43438 1.44245 1.40625 1.47073 1.40625H6.56172C6.94826 1.40625 7.2688 1.0875 7.2688 0.703125C7.2688 0.31875 6.94826 0 6.56172 0H1.47073C0.659943 0 0 0.65625 0 1.4625V3.40312C0 3.99375 0.424249 4.5 1.00877 4.59375C1.90441 4.74375 2.55492 5.50313 2.55492 6.40313C2.55492 7.30313 1.90441 8.07187 1.00877 8.2125C0.424249 8.31563 0 8.82188 0 9.4125V12.7687C0 13.3594 0.424249 13.8656 1.00877 13.9594C1.90441 14.1094 2.55492 14.8687 2.55492 15.7687C2.55492 16.6687 1.90441 17.4375 1.00877 17.5781C0.424249 17.6812 0 18.1875 0 18.7781V22.1344C0 22.725 0.424249 23.2313 1.00877 23.325C1.90441 23.475 2.55492 24.2344 2.55492 25.1344C2.55492 26.0344 1.90441 26.8031 1.00877 26.9437C0.424249 27.0375 0 27.5438 0 28.1344V31.5C0 32.0906 0.424249 32.5969 1.00877 32.6906C1.90441 32.8406 2.55492 33.6 2.55492 34.5C2.55492 35.4 1.90441 36.1687 1.00877 36.3094C0.424249 36.4031 0 36.9094 0 37.5V39.4406C0 40.2469 0.659943 40.9031 1.47073 40.9031H21.7216V47.2875C21.7216 47.6719 22.0421 47.9906 22.4286 47.9906H39.5494C39.936 47.9906 40.2565 47.6719 40.2565 47.2875V39.4406C40.2565 38.4281 39.4269 37.6125 38.4181 37.6125H38.3993V35.4563C38.3993 34.5938 37.6922 33.8906 36.8248 33.8906H36.6551V31.8187L37.7959 28.6687C37.9279 28.3031 37.7393 27.9 37.3716 27.7688C37.0039 27.6375 36.5986 27.825 36.4666 28.1906L35.2787 31.4531C35.2504 31.5281 35.241 31.6125 35.241 31.6875V33.8906H26.7465V32.7562C26.7465 32.5125 26.6146 32.2781 26.3883 32.1469L23.4657 30.4875C23.0037 30.225 22.6172 29.85 22.3532 29.3906L18.8461 23.3906L17.3848 20.8969C16.9228 20.1094 17.1208 19.1062 17.8467 18.5531C18.6292 17.9531 19.7606 18.0844 20.3828 18.8531L24.0691 23.4C24.1633 23.5219 24.2953 23.6062 24.4462 23.6437C24.465 23.6437 26.0395 24.0469 27.6422 24.4781C27.9439 24.5625 28.2738 24.4313 28.4341 24.1594L29.9803 21.6C30.4988 20.7469 30.5836 19.6875 30.216 18.7687L29.8577 17.8781L36.6268 13.9875L39.2477 17.2594C39.7569 17.8875 39.8983 18.75 39.6249 19.5094L37.5979 25.1062C37.4659 25.4719 37.6545 25.875 38.0221 26.0062C38.0976 26.0344 38.1824 26.0437 38.2578 26.0437C38.5501 26.0437 38.8235 25.8656 38.9272 25.575L40.9636 19.9781C41.4067 18.7688 41.171 17.3813 40.3697 16.3781L37.8807 13.275L40.0774 12.0094C40.3602 11.85 40.5582 11.5875 40.6431 11.2781C40.6996 11.0813 40.6996 10.8844 40.6525 10.6969L41.8969 9.98438C42.4155 9.68437 42.7832 9.20625 42.934 8.63437C43.0754 8.07187 43 7.47187 42.6983 6.95625ZM38.8424 39.45V46.5938H23.1357V39.45C23.1357 39.2156 23.3243 39.0281 23.56 39.0281H38.4181C38.6538 39.0281 38.8424 39.2156 38.8424 39.45ZM36.9851 35.4656V37.6219H25.0024V35.4656C25.0024 35.3812 25.0778 35.3063 25.1627 35.3063H36.8248C36.9097 35.3063 36.9851 35.3812 36.9851 35.4656ZM29.8577 6.74063C30.5082 6.7875 31.0927 7.0875 31.4981 7.60312L32.7332 9.15L19.3835 16.8187C18.8555 16.7531 18.3087 16.8094 17.809 16.9969L28.1136 7.35C28.585 6.90938 29.2072 6.69375 29.8577 6.74063ZM17.2622 23.4938L16.574 23.8875C15.7726 24.3469 14.745 24.075 14.2831 23.2781C13.8211 22.4813 14.0945 21.4594 14.8959 21L15.7632 20.5031C15.8198 20.8875 15.9518 21.2625 16.1592 21.6094L17.2622 23.4938ZM24.0879 21.1969L26.1809 19.9969V22.6406C25.6718 22.5094 25.257 22.3969 25.0213 22.3406L24.0879 21.1969ZM28.8961 19.3031C29.1035 19.8187 29.0563 20.4094 28.7641 20.8875L27.595 22.8187V19.1906L28.6132 18.6094L28.8961 19.3031ZM23.1923 20.0906L21.4764 17.9719C21.335 17.7937 21.1747 17.6344 20.9956 17.4938L37.5036 8.01562C38.1258 9.09375 38.2955 9.375 39.1818 10.9031C37.2679 12 25.2004 18.9375 23.1923 20.0906ZM41.1804 8.775L39.9737 9.46875L39.1535 8.05313L40.3508 7.36875C40.7468 7.14375 41.2464 7.275 41.4727 7.66875C41.699 8.05313 41.567 8.55 41.1804 8.775Z" fill="url(#paint0_linear)"/>
    <defs>
        <linearGradient id="paint0_linear" x1="43.0028" y1="23.9953" x2="0" y2="23.9953" gradientUnits="userSpaceOnUse">
            <stop stop-color="#0A2239"/>
            <stop offset="1" stop-color="#247BA0"/>
        </linearGradient>
    </defs>
</svg>
