<?xml version="1.0" encoding="utf-8"?>
<!-- Generator: Adobe Illustrator 18.0.0, SVG Export Plug-In . SVG Version: 6.00 Build 0)  -->
<!DOCTYPE svg PUBLIC "-//W3C//DTD SVG 1.1//EN" "http://www.w3.org/Graphics/SVG/1.1/DTD/svg11.dtd">
<svg width="60" height="61" viewBox="0 0 60 61" fill="none" xmlns="http://www.w3.org/2000/svg">
    <path d="M52.2278 14.5127C52.7903 14.5127 53.3293 14.2901 53.7277 13.8917L59.622 7.99743C60.4071 7.21231 59.8915 5.86472 58.79 5.79441L55.6495 5.5952L57.7002 3.54453C58.04 3.2047 58.04 2.64223 57.7002 2.3024C57.3604 1.96258 56.7979 1.96258 56.4581 2.3024L54.4074 4.35308L54.2082 1.21261C54.1379 0.0993886 52.7903 -0.404492 52.0052 0.380624L46.1109 6.27486C45.6774 6.70843 45.4547 7.30606 45.4899 7.9154L45.6891 11.1379C40.7675 6.94279 34.4397 4.54057 27.7252 4.54057C12.4095 4.54057 0 16.9501 0 32.2774C0 39.1912 2.56628 45.8236 7.21838 50.9328C7.54649 51.296 8.09725 51.3195 8.46051 50.9913C8.82377 50.6632 8.84721 50.1125 8.5191 49.7492C4.15995 44.9565 1.75772 38.7459 1.75772 32.2774C1.75772 17.9579 13.4056 6.31001 27.7252 6.31001C34.4397 6.31001 40.7557 8.87629 45.4782 13.294L41.4706 17.3016C37.8496 13.9737 33.01 11.9347 27.7252 11.9347C16.5109 11.923 7.38244 21.0515 7.38244 32.2774C7.38244 35.5117 8.15584 38.7224 9.63232 41.5817C13.0423 48.2024 19.9326 52.6319 27.7252 52.6319C37.334 52.6319 45.7008 45.8471 47.646 36.4257C47.7398 35.9452 47.4351 35.4882 46.9664 35.3828C46.4859 35.289 46.0289 35.5937 45.9235 36.0624C44.154 44.6401 36.5021 50.8624 27.7252 50.8624C20.7411 50.8624 14.4133 46.9955 11.1908 40.7731C9.81981 38.1248 9.12844 35.2656 9.12844 32.2774C9.12844 22.0241 17.4718 13.6807 27.7252 13.6807C32.5296 13.6807 36.9122 15.5205 40.2167 18.5321L36.256 22.5045C33.9709 20.5124 30.9945 19.3054 27.7369 19.3054C20.5888 19.3054 14.7649 25.1177 14.7649 32.2774C14.7649 39.4372 20.5771 45.2377 27.7252 45.2377C34.8732 45.2377 40.6972 39.4255 40.6972 32.2657C40.6972 29.0081 39.4902 26.02 37.4981 23.7466L41.4706 19.7742C44.4587 23.0553 46.2984 27.4027 46.3219 32.1603C46.3219 32.6407 46.7203 33.0391 47.2007 33.0391C47.6812 33.0391 48.0796 32.6407 48.0796 32.1603C48.0444 26.9223 46.0172 22.1412 42.7127 18.5321L46.7203 14.5244C51.1029 19.2117 53.7043 25.4926 53.7043 32.2774C53.7043 46.597 42.0565 58.2449 27.7369 58.2449C21.8075 58.2449 16.007 56.1942 11.4018 52.4678C11.0268 52.1632 10.476 52.2218 10.1714 52.5967C9.86669 52.9717 9.92528 53.5225 10.3003 53.8271C15.2102 57.8113 21.4091 60.0026 27.7369 60.0026C43.0642 60.0026 55.462 47.6048 55.462 32.2774C55.462 26.2778 53.5754 20.5593 50.0131 15.7548C49.6381 15.2627 49.2631 14.7705 48.8647 14.3018C52.2981 14.5244 52.1106 14.5127 52.2278 14.5127ZM38.9394 32.2774C38.9394 38.4646 33.9123 43.4917 27.7252 43.4917C21.538 43.4917 16.5109 38.4646 16.5109 32.2774C16.5109 26.0903 21.538 21.0632 27.7252 21.0632C30.5024 21.0632 33.0452 22.0827 35.0021 23.7583L31.0062 27.7542C30.0805 27.0863 28.9556 26.6879 27.7252 26.6879C24.6433 26.6879 22.1356 29.1956 22.1356 32.2774C22.1356 35.3593 24.6433 37.867 27.7252 37.867C30.807 37.867 33.3147 35.3593 33.3147 32.2774C33.3147 31.0588 32.9163 29.9221 32.2484 28.9964L36.2443 25.0005C37.9317 26.9574 38.9394 29.5002 38.9394 32.2774ZM27.1041 32.8985C27.4439 33.2383 28.0064 33.2383 28.3462 32.8985L30.9828 30.2619C31.3461 30.8478 31.557 31.5392 31.557 32.2774C31.557 34.3867 29.8344 36.1093 27.7252 36.1093C25.6159 36.1093 23.905 34.3867 23.905 32.2774C23.905 30.1682 25.6276 28.4456 27.7369 28.4456C28.4751 28.4456 29.1665 28.6565 29.7524 29.0198L27.1158 31.6564C26.7643 31.9962 26.7643 32.547 27.1041 32.8985ZM47.2476 7.79822C47.2359 7.69275 47.2828 7.58729 47.3531 7.51698L52.5208 2.34927L52.7551 6.00534L47.4703 11.2902L47.2476 7.79822ZM48.7124 12.5324L53.9973 7.24746L57.6533 7.48183L52.4856 12.6495C52.4153 12.7198 52.3098 12.7667 52.2044 12.755L48.7124 12.5324Z" fill="url(#paint0_linear)"/>
    <defs>
        <linearGradient id="paint0_linear" x1="60" y1="30.0013" x2="0" y2="30.0013" gradientUnits="userSpaceOnUse">
            <stop stop-color="#0A2239"/>
            <stop offset="1" stop-color="#247BA0"/>
        </linearGradient>
    </defs>
</svg>
