<?xml version="1.0" encoding="utf-8"?>
<!-- Generator: Adobe Illustrator 18.0.0, SVG Export Plug-In . SVG Version: 6.00 Build 0)  -->
<!DOCTYPE svg PUBLIC "-//W3C//DTD SVG 1.1//EN" "http://www.w3.org/Graphics/SVG/1.1/DTD/svg11.dtd">
<svg width="62" height="51" viewBox="0 0 62 51" fill="none" xmlns="http://www.w3.org/2000/svg">
    <path d="M41.9118 46.4878C42.7327 46.4878 43.5537 46.2124 44.3063 45.7303C46.1535 44.4217 46.564 41.8047 45.2641 39.9451C43.9642 38.0856 41.3644 37.6724 39.5172 38.981C37.67 40.2895 37.2595 42.9066 38.5594 44.7661C39.3804 45.868 40.6803 46.4878 41.9118 46.4878ZM40.3382 40.0829C40.8171 39.7385 41.3644 39.6008 41.9118 39.6008C42.7327 39.6008 43.6221 40.014 44.1694 40.7716C45.0588 42.0113 44.7852 43.733 43.5537 44.6283C42.3222 45.5237 40.6119 45.2482 39.7225 44.0085C38.8331 42.7 39.1067 40.9782 40.3382 40.0829Z" fill="url(#paint0_linear)"/>
    <path d="M22.4821 38.981C20.6349 37.6724 18.1035 38.0856 16.7352 39.9451C15.4353 41.8047 15.8458 44.3529 17.693 45.7303C18.3772 46.2124 19.1981 46.4878 20.0875 46.4878C20.2928 46.4878 20.5664 46.4878 20.7717 46.419C21.8663 46.2124 22.8241 45.6614 23.4399 44.7661C24.0556 43.8708 24.3293 42.7688 24.124 41.6669C23.9872 40.565 23.3715 39.6008 22.4821 38.981ZM22.3452 43.9396C21.9347 44.5595 21.319 44.9038 20.5664 45.0416C19.8139 45.1793 19.1297 44.9727 18.514 44.5595C17.2825 43.6642 17.0089 41.9424 17.8983 40.7027C18.4456 39.9451 19.2666 39.5319 20.1559 39.5319C20.7033 39.5319 21.2506 39.6697 21.7295 40.014C22.961 40.9782 23.2346 42.7 22.3452 43.9396Z" fill="url(#paint1_linear)"/>
    <path d="M30.7601 26.2396C30.6917 26.3085 30.6233 26.3085 30.5549 26.3774L30.4864 26.4462C30.4864 26.5151 30.418 26.5151 30.418 26.584C30.418 26.6529 30.418 26.6529 30.3496 26.7217C30.3496 26.7906 30.3496 26.7906 30.3496 26.8595C30.3496 27.0661 30.418 27.2038 30.5549 27.3416C30.6233 27.4104 30.6917 27.4793 30.7601 27.4793C30.8285 27.4793 30.9653 27.5482 31.0338 27.5482C31.1022 27.5482 31.1022 27.5482 31.1706 27.5482C31.239 27.5482 31.239 27.5482 31.3074 27.4793C31.3758 27.4793 31.3758 27.4793 31.4442 27.4104L31.5127 27.3416C31.6495 27.2038 31.7179 27.0661 31.7179 26.8595C31.7179 26.6529 31.6495 26.5151 31.5127 26.3774C31.3074 26.1708 31.0338 26.1019 30.7601 26.2396Z" fill="url(#paint2_linear)"/>
    <path d="M60.9304 15.9091C60.1095 14.1873 59.2201 12.4656 58.3991 10.7438C59.2201 9.71074 60.041 8.67769 60.862 7.7135C60.9989 7.57576 61.0673 7.30028 60.9989 7.09366C60.9304 6.88705 60.7936 6.68044 60.5884 6.61157C56.894 4.95868 52.9259 4.13223 48.5473 4.06336C48.3421 2.68595 47.7263 1.37741 46.8369 0.275482C46.7001 0.0688705 46.4949 0 46.2896 0C46.0844 0 45.8791 0.137741 45.7423 0.275482L42.8689 4.33884C42.8005 4.33884 42.732 4.33884 42.732 4.33884C38.764 4.82094 34.7959 5.71625 30.8962 6.61157C27.9544 7.30028 25.0125 7.98898 22.0023 8.47107L16.187 0.344353C16.0502 0.137741 15.8449 0.0688705 15.6397 0.0688705C15.4344 0.0688705 15.2292 0.137741 15.0924 0.344353C13.1083 2.68595 13.1083 6.47383 14.203 9.15978C10.0981 9.15978 5.99316 8.53994 1.95668 6.68044C1.68302 6.5427 1.40936 6.61157 1.20411 6.81818C0.998866 7.02479 0.930451 7.36915 1.06728 7.57576C1.88826 9.29752 2.77766 11.0882 3.59864 12.741C2.77766 13.7741 1.95668 14.8072 1.1357 15.7713C0.998866 15.978 0.998866 16.1846 0.998866 16.3912C1.06728 16.5978 1.20411 16.8044 1.40936 16.8733C5.65109 18.8017 9.89282 19.4904 14.0661 19.4904C16.4607 19.4904 18.7868 19.2837 21.1813 18.9394L24.4652 23.5537C24.7389 23.9669 25.1494 24.3113 25.5599 24.5179C25.3546 25.8264 25.7651 27.3416 26.7913 28.9256L22.8233 34.573C22.618 34.8485 22.2759 34.9862 21.9339 34.8485C18.9236 34.1598 15.7765 35.3306 13.9977 37.8788C12.7663 39.6694 12.2873 41.8733 12.7663 44.0083C13.2452 46.1432 14.6135 47.9339 16.5291 49.0358C17.6921 49.6556 18.9236 50 20.2235 50C22.3444 50 24.4652 49.1047 25.9704 47.3829C28.2281 44.7658 28.5017 41.1157 26.6545 38.2231C26.4493 37.9477 26.4493 37.6033 26.6545 37.3278L30.2805 32.0937C30.7594 32.3003 31.1699 32.438 31.6488 32.438C31.854 32.438 32.1277 32.5069 32.333 32.7824L35.6169 37.3967C35.8221 37.6722 35.8221 38.0165 35.6169 38.292C33.7697 41.1846 34.0433 44.9036 36.301 47.4518C37.8062 49.1736 39.927 50.0689 42.0479 50.0689C43.2794 50.0689 44.5793 49.7245 45.7423 49.1047C47.6579 48.0028 49.0262 46.2121 49.5051 44.0771C49.984 41.9421 49.5051 39.7383 48.2737 37.9477C46.4949 35.3994 43.3478 34.2286 40.3375 34.9174C39.9954 34.9862 39.6534 34.8485 39.4481 34.6419L36.2326 30.0964C36.0274 29.8209 36.0958 29.4766 36.1642 29.3388C36.5063 28.168 36.301 26.7906 35.5485 25.4132C36.2326 25.2755 36.9168 24.7934 37.3957 24.1047L44.1003 14.6694C50.3945 14.0496 55.5257 14.8072 60.3147 16.9421C60.3831 17.011 60.52 17.011 60.5884 17.011C60.7936 17.011 60.9304 16.9421 61.0673 16.8044C61.0673 16.5289 61.0673 16.1846 60.9304 15.9091ZM15.6397 1.99725L20.4287 8.74656C18.8552 8.95317 17.2816 9.09091 15.7081 9.15978C14.6819 7.09366 14.4766 4.06336 15.6397 1.99725ZM2.77766 15.978C3.46181 15.1515 4.21437 14.1873 4.96694 13.292C5.10377 13.0854 5.17218 12.741 5.03535 12.5344C4.41962 11.2259 3.73547 9.98623 3.11973 8.60882C7.15622 10.124 11.2611 10.6061 15.2976 10.5372H15.366H15.4344C20.7708 10.3306 26.0388 9.15978 31.1699 7.98898C34.6591 7.16253 38.2851 6.40496 41.7742 5.85399L35.6853 14.5317C35.6169 14.5317 35.5485 14.5317 35.5485 14.5317C33.9749 14.876 32.4698 15.2204 30.8962 15.5647C21.6602 17.6997 12.0821 19.8347 2.77766 15.978ZM31.2383 21.2121C30.9647 21.1432 30.691 21.0055 30.4173 21.0055C30.3489 20.5234 30.1437 20.0413 29.87 19.6281L28.3649 17.562C29.3227 17.3554 30.2121 17.1488 31.1015 16.9421C32.1961 16.6667 33.3592 16.4601 34.4538 16.1846L31.6488 20.1102C31.512 20.4545 31.3067 20.7989 31.2383 21.2121ZM25.423 36.5014C24.9441 37.1901 24.8757 38.1543 25.423 38.9118C26.9282 41.2534 26.7229 44.2837 24.8757 46.4187C22.9601 48.6226 19.6762 49.2424 17.1448 47.7961C15.5713 46.9008 14.4766 45.4545 14.0661 43.6639C13.6556 41.9421 14.0661 40.0826 15.0924 38.6364C16.5975 36.5702 19.1289 35.6061 21.5918 36.157C22.4812 36.3636 23.3706 36.0193 23.9179 35.3306L27.6807 30.0275C28.0912 30.5785 28.5701 30.9917 29.049 31.3361L25.423 36.5014ZM38.1482 35.3994C38.6956 36.157 39.585 36.4325 40.4743 36.2259C42.9373 35.6061 45.5371 36.5702 46.9738 38.7052C48 40.1515 48.4105 42.011 48 43.7328C47.5895 45.5234 46.4949 46.9697 44.9213 47.865C42.39 49.3113 39.106 48.7603 37.1904 46.4876C35.3432 44.3526 35.138 41.3223 36.6431 38.9807C37.122 38.2231 37.122 37.2589 36.5747 36.5702L33.2908 31.9559C32.8803 31.405 32.2645 31.0606 31.5804 31.0606C30.1437 30.9917 28.9122 29.6832 28.0912 28.5813C26.9966 26.9972 26.5861 25.4821 26.9282 24.3802C26.9966 24.1736 26.9966 24.0358 26.8598 23.8292C26.7229 23.6226 26.6545 23.5537 26.4493 23.4848C26.0388 23.3471 25.6967 23.0716 25.423 22.7273L22.5496 18.6639C23.9863 18.3884 25.3546 18.1129 26.7913 17.8375L28.6385 20.3857C28.9122 20.73 28.9806 21.1432 28.9806 21.5565C28.9806 21.7631 29.049 21.9008 29.1859 22.0386C29.3227 22.1763 29.4595 22.2452 29.6648 22.2452C30.8962 22.2452 32.1277 23.1405 33.2908 24.7245C34.0433 25.8264 34.9327 27.4105 34.5222 28.8567C34.317 29.5455 34.4538 30.2342 34.7959 30.7851L38.1482 35.3994ZM36.0274 23.2094C35.6169 23.7603 35.2064 24.0358 34.7275 24.0358H34.6591C34.5907 24.0358 34.5907 24.0358 34.5222 24.0358C34.5222 24.0358 34.5222 24.0358 34.5222 23.9669C33.9065 23.0716 33.2224 22.3829 32.5382 21.9008C32.5382 21.5565 32.675 21.2121 32.8803 20.9366L46.2896 1.8595C47.6579 4.06336 47.5895 6.81818 46.0844 8.95317L36.0274 23.2094ZM44.8529 13.0854L47.179 9.77961C48.1368 8.47107 48.5473 6.95592 48.6157 5.44077C52.447 5.50964 55.9361 6.19835 59.2201 7.57576C58.5359 8.4022 57.7834 9.36639 57.0308 10.2617C56.894 10.4683 56.8255 10.7438 56.9624 11.0193C57.6465 12.3278 58.2623 13.6364 58.878 14.9449C54.7047 13.292 50.1893 12.741 44.8529 13.0854Z" fill="url(#paint3_linear)"/>
    <defs>
        <linearGradient id="paint0_linear" x1="46.0208" y1="42.3535" x2="37.8027" y2="42.3535" gradientUnits="userSpaceOnUse">
            <stop stop-color="#0A2239"/>
            <stop offset="1" stop-color="#247BA0"/>
        </linearGradient>
        <linearGradient id="paint1_linear" x1="24.1914" y1="42.3535" x2="15.9785" y2="42.3535" gradientUnits="userSpaceOnUse">
            <stop stop-color="#0A2239"/>
            <stop offset="1" stop-color="#247BA0"/>
        </linearGradient>
        <linearGradient id="paint2_linear" x1="31.7179" y1="26.8581" x2="30.3496" y2="26.8581" gradientUnits="userSpaceOnUse">
            <stop stop-color="#0A2239"/>
            <stop offset="1" stop-color="#247BA0"/>
        </linearGradient>
        <linearGradient id="paint3_linear" x1="61.0673" y1="25.0344" x2="0.996094" y2="25.0344" gradientUnits="userSpaceOnUse">
            <stop stop-color="#0A2239"/>
            <stop offset="1" stop-color="#247BA0"/>
        </linearGradient>
    </defs>
</svg>
