<?xml version="1.0" encoding="utf-8"?>
<!-- Generator: Adobe Illustrator 18.0.0, SVG Export Plug-In . SVG Version: 6.00 Build 0)  -->
<!DOCTYPE svg PUBLIC "-//W3C//DTD SVG 1.1//EN" "http://www.w3.org/Graphics/SVG/1.1/DTD/svg11.dtd">
<svg width="56" height="56" viewBox="0 0 56 56" fill="none" xmlns="http://www.w3.org/2000/svg">
    <path d="M28.6429 56.0001H1.35742V30.7788H28.6429V56.0001ZM2.64478 54.7107H27.3556V32.0682H2.64478V54.7107Z" fill="url(#paint0_linear)"/>
    <path d="M29.9825 54.7104H0V55.9999H29.9825V54.7104Z" fill="url(#paint1_linear)"/>
    <path d="M20.7974 56H9.23047V40.7654C9.23047 40.2496 9.64886 39.8306 10.1638 39.8306H19.864C20.379 39.8306 20.7974 40.2496 20.7974 40.7654V56ZM10.5178 54.7106H19.51V41.12H10.5178V54.7106Z" fill="url(#paint2_linear)"/>
    <path d="M12.5197 48.4827C12.0241 48.4827 11.625 48.083 11.625 47.5866C11.625 47.0902 12.0241 46.6904 12.5197 46.6904C13.0153 46.6904 13.4144 47.0902 13.4144 47.5866C13.4144 48.083 13.0153 48.4827 12.5197 48.4827ZM12.5197 47.1933C12.3073 47.1933 12.1271 47.3674 12.1271 47.5866C12.1271 47.8058 12.3009 47.9799 12.5197 47.9799C12.7321 47.9799 12.9124 47.8058 12.9124 47.5866C12.9124 47.3674 12.7386 47.1933 12.5197 47.1933Z" fill="url(#paint3_linear)"/>
    <path d="M20.7074 24.2994H9.35938V12.5334C9.35938 12.0176 9.77777 11.605 10.2927 11.605H19.7805C20.2955 11.605 20.7139 12.024 20.7139 12.5334L20.7074 24.2994ZM10.6467 23.01H19.4201V12.888H10.6467V23.01Z" fill="url(#paint4_linear)"/>
    <path d="M21.666 23.0098H8.40625V24.2992H21.666V23.0098Z" fill="url(#paint5_linear)"/>
    <path d="M15.6799 12.2432H14.3926V23.6546H15.6799V12.2432Z" fill="url(#paint6_linear)"/>
    <path d="M20.0626 17.3042H10.002V18.5936H20.0626V17.3042Z" fill="url(#paint7_linear)"/>
    <path d="M53.9993 55.9998H27.3574V35.2915H28.6448V54.7103H52.7119V35.2915H53.9993V55.9998Z" fill="url(#paint8_linear)"/>
    <path d="M44.7421 34.647H42.6309V35.9364H44.7421V34.647Z" fill="url(#paint9_linear)"/>
    <path d="M55.0678 35.9367H47.3822V34.6472H54.3146L51.0963 28.2001H28.6448V34.6472H40.0443V35.9367H27.3574V26.9106H51.8944L55.8015 34.7439C55.9303 35.0018 55.9174 35.3048 55.7629 35.5498C55.6149 35.7884 55.351 35.9367 55.0678 35.9367Z" fill="url(#paint10_linear)"/>
    <path d="M56.0001 54.7104H26.0176V55.9999H56.0001V54.7104Z" fill="url(#paint11_linear)"/>
    <path d="M2.64478 31.4234H1.35742V8.89063L15.0098 0L22.0388 4.56459L21.3436 5.64771L15.0163 1.53442L2.64478 9.58692V31.4234Z" fill="url(#paint12_linear)"/>
    <path d="M28.6448 31.4234H27.3574L27.3832 9.57396L24.1133 7.4464L24.8085 6.36328L28.6705 8.87123L28.6448 31.4234Z" fill="url(#paint13_linear)"/>
    <path d="M50.0335 56H31.3926V40.7654C31.3926 40.2496 31.811 39.8306 32.3259 39.8306H49.1066C49.6215 39.8306 50.0399 40.2496 50.0399 40.7654V56H50.0335ZM32.6799 54.7106H48.7526V41.12H32.6799V54.7106Z" fill="url(#paint14_linear)"/>
    <path d="M45.8613 44.7949H35.5625V46.0844H45.8613V44.7949Z" fill="url(#paint15_linear)"/>
    <path d="M45.8613 49.7461H35.5625V51.0355H45.8613V49.7461Z" fill="url(#paint16_linear)"/>
    <path d="M25.104 8.09106L21.0488 5.45417V0.76709H25.104V8.09106ZM22.3362 4.75788L23.8166 5.71851V2.05652H22.3362V4.75788Z" fill="url(#paint17_linear)"/>
    <defs>
        <linearGradient id="paint0_linear" x1="28.6429" y1="43.3894" x2="1.35742" y2="43.3894" gradientUnits="userSpaceOnUse">
            <stop stop-color="#0A2239"/>
            <stop offset="1" stop-color="#247BA0"/>
        </linearGradient>
        <linearGradient id="paint1_linear" x1="29.9825" y1="55.3552" x2="0" y2="55.3552" gradientUnits="userSpaceOnUse">
            <stop stop-color="#0A2239"/>
            <stop offset="1" stop-color="#247BA0"/>
        </linearGradient>
        <linearGradient id="paint2_linear" x1="20.7974" y1="47.9153" x2="9.23047" y2="47.9153" gradientUnits="userSpaceOnUse">
            <stop stop-color="#0A2239"/>
            <stop offset="1" stop-color="#247BA0"/>
        </linearGradient>
        <linearGradient id="paint3_linear" x1="13.4144" y1="47.5866" x2="11.625" y2="47.5866" gradientUnits="userSpaceOnUse">
            <stop stop-color="#0A2239"/>
            <stop offset="1" stop-color="#247BA0"/>
        </linearGradient>
        <linearGradient id="paint4_linear" x1="20.7139" y1="17.9522" x2="9.35938" y2="17.9522" gradientUnits="userSpaceOnUse">
            <stop stop-color="#0A2239"/>
            <stop offset="1" stop-color="#247BA0"/>
        </linearGradient>
        <linearGradient id="paint5_linear" x1="21.666" y1="23.6545" x2="8.40625" y2="23.6545" gradientUnits="userSpaceOnUse">
            <stop stop-color="#0A2239"/>
            <stop offset="1" stop-color="#247BA0"/>
        </linearGradient>
        <linearGradient id="paint6_linear" x1="15.6799" y1="17.9489" x2="14.3926" y2="17.9489" gradientUnits="userSpaceOnUse">
            <stop stop-color="#0A2239"/>
            <stop offset="1" stop-color="#247BA0"/>
        </linearGradient>
        <linearGradient id="paint7_linear" x1="20.0626" y1="17.9489" x2="10.002" y2="17.9489" gradientUnits="userSpaceOnUse">
            <stop stop-color="#0A2239"/>
            <stop offset="1" stop-color="#247BA0"/>
        </linearGradient>
        <linearGradient id="paint8_linear" x1="53.9993" y1="45.6456" x2="27.3574" y2="45.6456" gradientUnits="userSpaceOnUse">
            <stop stop-color="#0A2239"/>
            <stop offset="1" stop-color="#247BA0"/>
        </linearGradient>
        <linearGradient id="paint9_linear" x1="44.7421" y1="35.2917" x2="42.6309" y2="35.2917" gradientUnits="userSpaceOnUse">
            <stop stop-color="#0A2239"/>
            <stop offset="1" stop-color="#247BA0"/>
        </linearGradient>
        <linearGradient id="paint10_linear" x1="55.8893" y1="31.4237" x2="27.3574" y2="31.4237" gradientUnits="userSpaceOnUse">
            <stop stop-color="#0A2239"/>
            <stop offset="1" stop-color="#247BA0"/>
        </linearGradient>
        <linearGradient id="paint11_linear" x1="56.0001" y1="55.3552" x2="26.0176" y2="55.3552" gradientUnits="userSpaceOnUse">
            <stop stop-color="#0A2239"/>
            <stop offset="1" stop-color="#247BA0"/>
        </linearGradient>
        <linearGradient id="paint12_linear" x1="22.0388" y1="15.7117" x2="1.35742" y2="15.7117" gradientUnits="userSpaceOnUse">
            <stop stop-color="#0A2239"/>
            <stop offset="1" stop-color="#247BA0"/>
        </linearGradient>
        <linearGradient id="paint13_linear" x1="28.6705" y1="18.8933" x2="24.1133" y2="18.8933" gradientUnits="userSpaceOnUse">
            <stop stop-color="#0A2239"/>
            <stop offset="1" stop-color="#247BA0"/>
        </linearGradient>
        <linearGradient id="paint14_linear" x1="50.0399" y1="47.9153" x2="31.3926" y2="47.9153" gradientUnits="userSpaceOnUse">
            <stop stop-color="#0A2239"/>
            <stop offset="1" stop-color="#247BA0"/>
        </linearGradient>
        <linearGradient id="paint15_linear" x1="45.8613" y1="45.4396" x2="35.5625" y2="45.4396" gradientUnits="userSpaceOnUse">
            <stop stop-color="#0A2239"/>
            <stop offset="1" stop-color="#247BA0"/>
        </linearGradient>
        <linearGradient id="paint16_linear" x1="45.8613" y1="50.3908" x2="35.5625" y2="50.3908" gradientUnits="userSpaceOnUse">
            <stop stop-color="#0A2239"/>
            <stop offset="1" stop-color="#247BA0"/>
        </linearGradient>
        <linearGradient id="paint17_linear" x1="25.104" y1="4.42908" x2="21.0488" y2="4.42908" gradientUnits="userSpaceOnUse">
            <stop stop-color="#0A2239"/>
            <stop offset="1" stop-color="#247BA0"/>
        </linearGradient>
    </defs>
</svg>
