<?xml version="1.0" encoding="utf-8"?>
<!-- Generator: Adobe Illustrator 18.0.0, SVG Export Plug-In . SVG Version: 6.00 Build 0)  -->
<!DOCTYPE svg PUBLIC "-//W3C//DTD SVG 1.1//EN" "http://www.w3.org/Graphics/SVG/1.1/DTD/svg11.dtd">
<svg width="60" height="60" viewBox="0 0 60 60" fill="none" xmlns="http://www.w3.org/2000/svg">
    <path d="M59.0269 53.29L43.0117 37.4107C45.7477 33.4975 47.1908 28.9213 47.1908 24.1382C47.1908 11.2692 36.6317 0.799316 23.6534 0.799316C10.6744 0.799316 0.115234 11.2692 0.115234 24.1382C0.115234 37.0079 10.6744 47.4778 23.6534 47.4778C28.5052 47.4778 33.1411 46.0324 37.0992 43.2925L53.1044 59.1642C53.6143 59.6681 54.2915 59.9452 55.0115 59.9452C55.7316 59.9452 56.4091 59.6678 56.9194 59.1631L59.028 57.072C60.0772 56.0299 60.0772 54.3331 59.0269 53.29ZM58.0499 56.1043L55.9423 58.1954C55.4451 58.6873 54.5769 58.6873 54.0804 58.196L37.2415 41.4981L36.763 41.8468C32.9404 44.6357 28.4061 46.1088 23.6527 46.1088C11.4358 46.1088 1.49654 36.2528 1.49654 24.1396C1.49654 12.026 11.4358 2.171 23.6527 2.171C35.8688 2.171 45.8081 12.026 45.8081 24.1396C45.8081 28.8267 44.336 33.3025 41.5516 37.0829L41.2023 37.5567L58.0499 54.2595C58.5615 54.7675 58.5615 55.5959 58.0499 56.1043Z" fill="url(#paint0_linear)"/>
    <path d="M23.6456 6.7627C16.3632 6.7627 6.10742 12.158 6.10742 24.1527C6.10742 33.7415 13.9751 41.5427 23.6456 41.5427C33.3161 41.5427 41.1835 33.7415 41.1835 24.1527C41.1835 14.5639 33.3161 6.7627 23.6456 6.7627ZM23.6456 40.1724C14.7369 40.1724 7.48942 32.9854 7.48942 24.1527C7.48942 13.1031 16.9371 8.13301 23.6456 8.13301C32.5543 8.13301 39.8015 15.3193 39.8015 24.1527C39.8015 32.9864 32.5543 40.1724 23.6456 40.1724Z" fill="url(#paint1_linear)"/>
    <path d="M24.3967 14.1912C24.1365 13.9675 23.7503 13.9675 23.4901 14.1912L15.2496 21.2915C15.0319 21.4789 14.9546 21.7807 15.0554 22.0486C15.1563 22.3165 15.4144 22.494 15.7029 22.494H16.852V32.684C16.852 33.0622 17.1616 33.3691 17.543 33.3691H21.7312C22.1126 33.3691 22.4222 33.0622 22.4222 32.684V25.9252H24.8334V32.684C24.8334 33.0622 25.143 33.3691 25.5244 33.3691H29.8708C30.2522 33.3691 30.5618 33.0622 30.5618 32.684V22.494H32.1846C32.4731 22.494 32.7308 22.3165 32.8317 22.0486C32.9329 21.7807 32.8552 21.4789 32.6375 21.2915L24.3967 14.1912ZM29.8704 21.1236C29.489 21.1236 29.1794 21.4306 29.1794 21.8088V31.9988H26.215V25.2401C26.215 24.8619 25.9055 24.5549 25.524 24.5549H21.7312C21.3497 24.5549 21.0402 24.8619 21.0402 25.2401V31.9988H18.234V21.8088C18.234 21.4333 17.9293 21.1284 17.5517 21.1236L23.9437 15.616L30.3358 21.1236H29.8704Z" fill="url(#paint2_linear)"/>
    <defs>
        <linearGradient id="paint0_linear" x1="59.8148" y1="30.3723" x2="0.115234" y2="30.3723" gradientUnits="userSpaceOnUse">
            <stop stop-color="#0A2239"/>
            <stop offset="1" stop-color="#247BA0"/>
        </linearGradient>
        <linearGradient id="paint1_linear" x1="41.1835" y1="24.1527" x2="6.10742" y2="24.1527" gradientUnits="userSpaceOnUse">
            <stop stop-color="#0A2239"/>
            <stop offset="1" stop-color="#247BA0"/>
        </linearGradient>
        <linearGradient id="paint2_linear" x1="32.8756" y1="23.6963" x2="15.0117" y2="23.6963" gradientUnits="userSpaceOnUse">
            <stop stop-color="#0A2239"/>
            <stop offset="1" stop-color="#247BA0"/>
        </linearGradient>
    </defs>
</svg>
