<?xml version="1.0" encoding="utf-8"?>
<!-- Generator: Adobe Illustrator 18.0.0, SVG Export Plug-In . SVG Version: 6.00 Build 0)  -->
<!DOCTYPE svg PUBLIC "-//W3C//DTD SVG 1.1//EN" "http://www.w3.org/Graphics/SVG/1.1/DTD/svg11.dtd">
<svg width="60" height="54" viewBox="0 0 60 54" fill="none" xmlns="http://www.w3.org/2000/svg">
    <path d="M54.5118 10.9986C51.4765 10.9986 49.0234 8.54069 49.0234 5.49931C49.0234 2.45793 51.4888 0 54.5118 0C57.5471 0 60.0001 2.45793 60.0001 5.49931C60.0001 8.52828 57.5471 10.9862 54.5118 10.9986ZM54.5118 1.7131C52.4304 1.7131 50.7455 3.40138 50.7455 5.4869C50.7455 7.57241 52.4304 9.26069 54.5118 9.26069C56.5931 9.26069 58.278 7.57241 58.278 5.4869C58.2904 3.41379 56.6055 1.7131 54.5118 1.7131Z" fill="url(#paint0_linear)"/>
    <path d="M37.043 26.3419C34.0077 26.3419 31.5547 23.884 31.5547 20.8426C31.5547 17.8012 34.0077 15.3433 37.043 15.3433C40.0784 15.3433 42.5314 17.8012 42.5314 20.8426C42.519 23.884 40.066 26.3419 37.043 26.3419ZM37.043 17.0688C34.9617 17.0688 33.2768 18.7571 33.2768 20.8426C33.2768 22.9281 34.9617 24.6164 37.043 24.6164C39.1244 24.6164 40.8093 22.9281 40.8093 20.8426C40.8093 18.7571 39.1244 17.0688 37.043 17.0688Z" fill="url(#paint1_linear)"/>
    <path d="M21.879 10.9986C18.8437 10.9986 16.3906 8.54069 16.3906 5.49931C16.3906 2.45793 18.8437 0 21.879 0C24.9143 0 27.3673 2.45793 27.3673 5.49931C27.3673 8.52828 24.9143 10.9862 21.879 10.9986ZM21.879 1.7131C19.7976 1.7131 18.1127 3.40138 18.1127 5.4869C18.1127 7.57241 19.7976 9.26069 21.879 9.26069C23.9603 9.26069 25.6452 7.57241 25.6452 5.4869C25.6576 3.41379 23.9603 1.7131 21.879 1.7131Z" fill="url(#paint2_linear)"/>
    <path d="M5.48833 26.3419C2.45302 26.3419 0 23.884 0 20.8426C0 17.8012 2.45302 15.3433 5.48833 15.3433C8.52364 15.3433 10.9767 17.8012 10.9767 20.8426C10.9643 23.884 8.51125 26.3419 5.48833 26.3419ZM5.48833 17.0688C3.40698 17.0688 1.72207 18.7571 1.72207 20.8426C1.72207 22.9281 3.40698 24.6164 5.48833 24.6164C7.56969 24.6164 9.25459 22.9281 9.25459 20.8426C9.25459 18.7571 7.56969 17.0688 5.48833 17.0688Z" fill="url(#paint3_linear)"/>
    <path d="M40.0527 17.255L50.7692 8.21777L51.8719 9.53364L41.1554 18.5709L40.0527 17.255Z" fill="url(#paint4_linear)"/>
    <path d="M24.3574 9.64553L25.4848 8.35449L34.7642 16.5476L33.6368 17.8386L24.3574 9.64553Z" fill="url(#paint5_linear)"/>
    <path d="M8.30078 17.032L18.1005 8.19336L19.2527 9.47198L9.45296 18.3106L8.30078 17.032Z" fill="url(#paint6_linear)"/>
    <path d="M59.1459 34.5473C58.6751 34.5473 58.291 34.1625 58.291 33.6908V31.4191C58.291 30.9473 58.6751 30.5625 59.1459 30.5625C59.6166 30.5625 60.0007 30.9473 60.0007 31.4191V33.6908C60.0007 34.1625 59.6166 34.5473 59.1459 34.5473Z" fill="url(#paint7_linear)"/>
    <path d="M59.1437 54H51.3138C50.843 54 50.459 53.6152 50.459 53.1435V20.7311C50.459 20.2593 50.843 19.8745 51.3138 19.8745H59.1437C59.6145 19.8745 59.9985 20.2593 59.9985 20.7311V25.9573C59.9985 26.429 59.6145 26.8138 59.1437 26.8138C58.6729 26.8138 58.2888 26.429 58.2888 25.9573V21.5876H52.1687V52.2869H58.2888V46.9366C58.2888 46.4649 58.6729 46.08 59.1437 46.08C59.6145 46.08 59.9985 46.4649 59.9985 46.9366V53.1435C59.9985 53.6152 59.6145 54 59.1437 54Z" fill="url(#paint8_linear)"/>
    <path d="M59.1459 42.3309C58.6751 42.3309 58.291 41.946 58.291 41.4743V39.1529C58.291 38.6812 58.6751 38.2964 59.1459 38.2964C59.6166 38.2964 60.0007 38.6812 60.0007 39.1529V41.4743C60.0007 41.946 59.6166 42.3309 59.1459 42.3309Z" fill="url(#paint9_linear)"/>
    <path d="M40.9569 54H33.1146C32.6438 54 32.2598 53.6152 32.2598 53.1434V33.691C32.2598 33.2193 32.6438 32.8345 33.1146 32.8345H40.9569C41.4276 32.8345 41.8117 33.2193 41.8117 33.691V53.131C41.8117 53.6152 41.4276 54 40.9569 54ZM33.9818 52.2745H40.102V34.56H33.9818V52.2745Z" fill="url(#paint10_linear)"/>
    <path d="M25.8065 54H17.9642C17.4934 54 17.1094 53.6152 17.1094 53.1435V20.7311C17.1094 20.2593 17.4934 19.8745 17.9642 19.8745H25.8065C26.2772 19.8745 26.6613 20.2593 26.6613 20.7311V53.1435C26.6613 53.6152 26.2772 54 25.8065 54ZM18.8191 52.2745H24.9392V21.5876H18.8191V52.2745Z" fill="url(#paint11_linear)"/>
    <path d="M9.40345 53.9999H1.57359C1.10281 53.9999 0.71875 53.6151 0.71875 53.1434V32.6109C0.71875 32.1392 1.10281 31.7544 1.57359 31.7544H9.41584C9.88662 31.7544 10.2707 32.1392 10.2707 32.6109V53.1434C10.2583 53.6151 9.87423 53.9999 9.40345 53.9999ZM2.42843 52.2744H8.54861V33.4675H2.42843V52.2744Z" fill="url(#paint12_linear)"/>
    <defs>
        <linearGradient id="paint0_linear" x1="60.0001" y1="5.49931" x2="49.0234" y2="5.49931" gradientUnits="userSpaceOnUse">
            <stop stop-color="#0A2239"/>
            <stop offset="1" stop-color="#247BA0"/>
        </linearGradient>
        <linearGradient id="paint1_linear" x1="42.5314" y1="20.8426" x2="31.5547" y2="20.8426" gradientUnits="userSpaceOnUse">
            <stop stop-color="#0A2239"/>
            <stop offset="1" stop-color="#247BA0"/>
        </linearGradient>
        <linearGradient id="paint2_linear" x1="27.3673" y1="5.49931" x2="16.3906" y2="5.49931" gradientUnits="userSpaceOnUse">
            <stop stop-color="#0A2239"/>
            <stop offset="1" stop-color="#247BA0"/>
        </linearGradient>
        <linearGradient id="paint3_linear" x1="10.9767" y1="20.8426" x2="0" y2="20.8426" gradientUnits="userSpaceOnUse">
            <stop stop-color="#0A2239"/>
            <stop offset="1" stop-color="#247BA0"/>
        </linearGradient>
        <linearGradient id="paint4_linear" x1="51.8719" y1="13.3943" x2="40.0527" y2="13.3943" gradientUnits="userSpaceOnUse">
            <stop stop-color="#0A2239"/>
            <stop offset="1" stop-color="#247BA0"/>
        </linearGradient>
        <linearGradient id="paint5_linear" x1="34.7642" y1="13.0966" x2="24.3574" y2="13.0966" gradientUnits="userSpaceOnUse">
            <stop stop-color="#0A2239"/>
            <stop offset="1" stop-color="#247BA0"/>
        </linearGradient>
        <linearGradient id="paint6_linear" x1="19.2527" y1="13.252" x2="8.30078" y2="13.252" gradientUnits="userSpaceOnUse">
            <stop stop-color="#0A2239"/>
            <stop offset="1" stop-color="#247BA0"/>
        </linearGradient>
        <linearGradient id="paint7_linear" x1="60.0007" y1="32.5549" x2="58.291" y2="32.5549" gradientUnits="userSpaceOnUse">
            <stop stop-color="#0A2239"/>
            <stop offset="1" stop-color="#247BA0"/>
        </linearGradient>
        <linearGradient id="paint8_linear" x1="59.9985" y1="36.9373" x2="50.459" y2="36.9373" gradientUnits="userSpaceOnUse">
            <stop stop-color="#0A2239"/>
            <stop offset="1" stop-color="#247BA0"/>
        </linearGradient>
        <linearGradient id="paint9_linear" x1="60.0007" y1="40.3136" x2="58.291" y2="40.3136" gradientUnits="userSpaceOnUse">
            <stop stop-color="#0A2239"/>
            <stop offset="1" stop-color="#247BA0"/>
        </linearGradient>
        <linearGradient id="paint10_linear" x1="41.8117" y1="43.4172" x2="32.2598" y2="43.4172" gradientUnits="userSpaceOnUse">
            <stop stop-color="#0A2239"/>
            <stop offset="1" stop-color="#247BA0"/>
        </linearGradient>
        <linearGradient id="paint11_linear" x1="26.6613" y1="36.9373" x2="17.1094" y2="36.9373" gradientUnits="userSpaceOnUse">
            <stop stop-color="#0A2239"/>
            <stop offset="1" stop-color="#247BA0"/>
        </linearGradient>
        <linearGradient id="paint12_linear" x1="10.2707" y1="42.8772" x2="0.71875" y2="42.8772" gradientUnits="userSpaceOnUse">
            <stop stop-color="#0A2239"/>
            <stop offset="1" stop-color="#247BA0"/>
        </linearGradient>
    </defs>
</svg>
