<?xml version="1.0" encoding="utf-8"?>
<!-- Generator: Adobe Illustrator 18.0.0, SVG Export Plug-In . SVG Version: 6.00 Build 0)  -->
<!DOCTYPE svg PUBLIC "-//W3C//DTD SVG 1.1//EN" "http://www.w3.org/Graphics/SVG/1.1/DTD/svg11.dtd">
<svg width="51" height="55" viewBox="0 0 51 55" fill="none" xmlns="http://www.w3.org/2000/svg">
    <path d="M41.569 16.8922C41.3776 16.4882 41.0401 16.1718 40.6246 16.0068C40.209 15.8419 39.7464 15.8408 39.3301 16.0037L35.7242 17.4199C35.5 17.5076 35.2963 17.6405 35.1257 17.8103C34.9551 17.9801 34.8212 18.1832 34.7323 18.4069C34.6434 18.6306 34.6015 18.8702 34.6091 19.1108C34.6167 19.3514 34.6737 19.5879 34.7766 19.8055L35.2761 20.8613L34.877 21.031C33.4402 21.3311 32.4451 21.2908 30.9666 20.8765L27.364 19.8672C26.3458 19.581 25.2662 19.5984 24.2577 19.9173L20.781 21.0136C20.0767 21.2358 19.4251 21.5996 18.8663 22.0825C18.256 21.8585 17.0912 21.5709 15.494 21.8011L15.967 20.9032C16.1748 20.5072 16.2238 20.0469 16.1042 19.6159C15.9845 19.185 15.7052 18.8159 15.323 18.5836L12.0123 16.5752C11.8066 16.4503 11.5774 16.3689 11.339 16.336C11.1006 16.303 10.858 16.3193 10.6261 16.3837C10.3942 16.4481 10.1779 16.5593 9.99063 16.7104C9.80334 16.8616 9.64899 17.0495 9.53708 17.2626L0.203124 35.0766C-0.0109753 35.481 -0.0579444 35.9532 0.0723058 36.3918C0.202556 36.8304 0.499635 37.2005 0.899734 37.4225L4.23108 39.2939C4.49364 39.4424 4.79009 39.5206 5.09175 39.5209C5.2621 39.5208 5.43154 39.4962 5.59487 39.4478C5.82071 39.382 6.03093 39.2712 6.21292 39.1222C6.39491 38.9731 6.54492 38.7889 6.65395 38.5804L7.16802 37.6041L8.8187 38.9765L6.44198 42.2645C6.22851 42.5598 6.07546 42.8943 5.9916 43.2489C5.90774 43.6034 5.89473 43.9711 5.95331 44.3307C6.0119 44.6903 6.14093 45.0348 6.33299 45.3444C6.52506 45.6541 6.77638 45.9227 7.07253 46.135L7.36117 46.3422C7.83287 46.6817 8.39951 46.8641 8.98069 46.8634C9.20931 46.8632 9.43704 46.8349 9.65881 46.7794C9.66483 46.8559 9.67336 46.9325 9.68583 47.0096C9.74347 47.3698 9.87211 47.7149 10.0643 48.0249C10.2565 48.335 10.5083 48.6037 10.8053 48.8155L11.0939 49.0233C11.5656 49.3629 12.1323 49.5452 12.7134 49.5445C12.9421 49.5442 13.1698 49.516 13.3916 49.4605C13.3977 49.5371 13.4061 49.6136 13.4186 49.6907C13.4762 50.0509 13.6048 50.396 13.797 50.706C13.9892 51.016 14.2411 51.2847 14.538 51.4965L14.8267 51.7043C15.2984 52.0438 15.865 52.2261 16.4462 52.2255C16.6748 52.2252 16.9025 52.197 17.1243 52.1415C17.1304 52.2181 17.1389 52.2946 17.1513 52.3712C17.209 52.7313 17.3376 53.0765 17.5298 53.3865C17.722 53.6965 17.9738 53.9652 18.2708 54.177L18.5594 54.3848C19.1577 54.8133 19.9012 54.9877 20.6276 54.87C21.354 54.7522 22.0044 54.3519 22.4367 53.7563L23.3696 52.4657L24.8412 53.6377C25.2979 54.029 25.8563 54.2826 26.4514 54.3691C27.0465 54.4557 27.654 54.3716 28.2032 54.1267C28.7525 53.8818 29.221 53.486 29.5543 52.9855C29.8876 52.4849 30.0721 51.9001 30.0863 51.2989C30.7041 51.5582 31.388 51.6159 32.0405 51.4636C32.6929 51.3114 33.2807 50.957 33.7199 50.4511C34.2048 49.8948 34.4785 49.1855 34.493 48.4476C35.1107 48.7068 35.7946 48.7644 36.447 48.6122C37.0994 48.4599 37.6872 48.1056 38.1264 47.5997C38.5898 47.0679 38.8607 46.3955 38.8955 45.691C39.5326 46.0243 40.2637 46.1326 40.9701 45.9983C41.6765 45.8641 42.3168 45.4951 42.7872 44.9513L42.8288 44.9034C43.0956 44.5957 43.299 44.2384 43.4273 43.8519C43.5556 43.4655 43.6063 43.0574 43.5765 42.6513C43.5467 42.2452 43.437 41.8489 43.2536 41.4853C43.0702 41.1217 42.8168 40.7979 42.508 40.5325L41.4689 39.6381C42.1968 39.1948 42.8383 38.623 43.3621 37.9506L43.3779 37.984C43.5194 38.2857 43.7438 38.5408 44.025 38.7195C44.3062 38.8983 44.6324 38.9932 44.9656 38.9932C45.2079 38.993 45.4475 38.943 45.6697 38.8465L49.1784 37.3314C49.3946 37.2382 49.5899 37.1026 49.7527 36.9325C49.9154 36.7624 50.0423 36.5613 50.1258 36.3411C50.2092 36.121 50.2476 35.8863 50.2385 35.6511C50.2295 35.4158 50.1732 35.1848 50.0731 34.9717L41.569 16.8922ZM5.49228 37.9685C5.4641 38.0215 5.42561 38.0683 5.37905 38.1063C5.3325 38.1442 5.27884 38.1724 5.22121 38.1893C5.16359 38.2061 5.10318 38.2113 5.04352 38.2045C4.98387 38.1976 4.92619 38.1789 4.87387 38.1495L1.54253 36.278C1.4414 36.222 1.36624 36.1286 1.33318 36.0179C1.30011 35.9071 1.31178 35.7878 1.36567 35.6856L10.7 17.8719C10.7282 17.8176 10.7673 17.7697 10.815 17.7313C10.8626 17.6929 10.9177 17.6647 10.9768 17.6487C11.0166 17.6375 11.0577 17.6318 11.0991 17.6317C11.1812 17.6317 11.2618 17.6545 11.3318 17.6973L14.6427 19.7058C14.7393 19.7643 14.81 19.8575 14.8404 19.9663C14.8707 20.0751 14.8585 20.1914 14.8061 20.2915L5.49228 37.9685ZM8.1268 45.2761L7.83816 45.0689C7.68228 44.9574 7.54998 44.8161 7.44885 44.6533C7.34773 44.4905 7.27978 44.3093 7.2489 44.1202C7.21802 43.931 7.22483 43.7376 7.26893 43.5511C7.31303 43.3646 7.39355 43.1886 7.50587 43.0333L11.1837 37.9447C11.4121 37.6303 11.7556 37.419 12.1392 37.3569C12.5228 37.2949 12.9154 37.3871 13.2313 37.6134L13.5201 37.8212C13.6759 37.9328 13.8082 38.074 13.9093 38.2368C14.0105 38.3996 14.0784 38.5808 14.1093 38.7699C14.1402 38.9591 14.1334 39.1524 14.0893 39.339C14.0452 39.5255 13.9647 39.7014 13.8524 39.8567L12.8993 41.1753L12.8981 41.177L10.1746 44.9453C9.94617 45.2597 9.60261 45.471 9.21893 45.533C8.83526 45.5949 8.44264 45.5026 8.1268 45.2761ZM11.8593 47.9567L11.5707 47.7489C11.4148 47.6374 11.2825 47.4961 11.1814 47.3333C11.0803 47.1705 11.0123 46.9893 10.9814 46.8002C10.9506 46.611 10.9574 46.4176 11.0015 46.2311C11.0456 46.0446 11.1261 45.8686 11.2384 45.7133L13.9633 41.9432C14.1919 41.6293 14.5353 41.4186 14.9187 41.3569C15.302 41.2952 15.6942 41.3875 16.0098 41.6137L16.2984 41.8215C16.4543 41.9331 16.5866 42.0743 16.6877 42.2371C16.7888 42.3999 16.8567 42.5811 16.8876 42.7703C16.9185 42.9594 16.9117 43.1528 16.8676 43.3393C16.8235 43.5259 16.7429 43.7018 16.6306 43.8571L13.9072 47.6254C13.6788 47.9399 13.3352 48.1512 12.9516 48.2133C12.5679 48.2754 12.1752 48.1831 11.8593 47.9567ZM15.5919 50.6373L15.3032 50.4295C15.1474 50.3179 15.0151 50.1767 14.914 50.0139C14.8128 49.8511 14.7449 49.6699 14.714 49.4808C14.6831 49.2916 14.6899 49.0983 14.734 48.9117C14.7781 48.7252 14.8586 48.5493 14.9709 48.394L16.9138 45.7057C17.1422 45.3913 17.4858 45.18 17.8694 45.1179C18.2531 45.0559 18.6457 45.1481 18.9616 45.3745L19.2503 45.5823C19.4062 45.6938 19.5385 45.835 19.6396 45.9978C19.7407 46.1606 19.8086 46.3418 19.8395 46.531C19.8704 46.7201 19.8635 46.9135 19.8194 47.1C19.7753 47.2865 19.6948 47.4625 19.5825 47.6177L17.6396 50.3061C17.4112 50.6205 17.0676 50.8318 16.684 50.8938C16.3004 50.9559 15.9077 50.8636 15.5919 50.6373ZM21.3721 52.9865C21.1437 53.3011 20.8001 53.5125 20.4164 53.5746C20.0326 53.6367 19.6399 53.5444 19.324 53.3178L19.0353 53.11C18.8794 52.9985 18.7471 52.8573 18.646 52.6945C18.5449 52.5316 18.4769 52.3505 18.4461 52.1613C18.4152 51.9721 18.422 51.7787 18.4661 51.5922C18.5102 51.4057 18.5907 51.2297 18.703 51.0744L19.8652 49.4666C20.0936 49.1522 20.4371 48.9409 20.8208 48.8789C21.2044 48.8168 21.597 48.9091 21.9129 49.1354L22.2016 49.3432C22.3575 49.4548 22.4898 49.596 22.5909 49.7588C22.692 49.9216 22.76 50.1028 22.7909 50.292C22.8217 50.4811 22.8149 50.6745 22.7708 50.861C22.7267 51.0476 22.6462 51.2235 22.5339 51.3788L21.3721 52.9865ZM42.2669 42.7468C42.2846 42.9806 42.2557 43.2155 42.1818 43.4379C42.1079 43.6603 41.9905 43.8659 41.8364 44.0425L41.7948 44.0905C41.4701 44.4663 41.01 44.6984 40.5148 44.736C40.0196 44.7737 39.5296 44.6139 39.1518 44.2915C38.7313 43.9293 38.2727 43.5342 37.81 43.1358L37.798 43.1248L34.374 40.1762L34.3245 40.1335L34.2676 40.0845L34.2267 40.0494C34.0946 39.9374 33.9236 39.8822 33.751 39.8958C33.5783 39.9093 33.4181 39.9905 33.3051 40.1218C33.1921 40.253 33.1355 40.4236 33.1477 40.5963C33.16 40.7691 33.24 40.93 33.3703 41.044L33.4258 41.0918C33.7383 41.3608 35.365 42.7616 36.9477 44.1247C37.1317 44.284 37.2825 44.478 37.3915 44.6957C37.5006 44.9133 37.5656 45.1503 37.583 45.3931C37.6003 45.6358 37.5696 45.8797 37.4927 46.1106C37.4157 46.3415 37.294 46.555 37.1345 46.7388C36.8097 47.112 36.3505 47.3416 35.857 47.3775C35.3636 47.4134 34.876 47.2526 34.5006 46.9303L33.3923 45.9759L30.9286 43.8552C30.8635 43.7982 30.7876 43.7547 30.7055 43.7271C30.6234 43.6996 30.5367 43.6885 30.4503 43.6946C30.3639 43.7007 30.2796 43.7239 30.2022 43.7628C30.1248 43.8016 30.0559 43.8554 29.9993 43.921C29.9428 43.9867 29.8999 44.0628 29.8729 44.1451C29.846 44.2274 29.8356 44.3143 29.8424 44.4006C29.8492 44.4869 29.873 44.5711 29.9124 44.6482C29.9519 44.7253 30.0062 44.7938 30.0722 44.8498L32.5356 46.9708C32.7207 47.1298 32.8726 47.3239 32.9826 47.5418C33.0925 47.7597 33.1583 47.9972 33.1761 48.2407C33.194 48.4841 33.1636 48.7287 33.0866 48.9603C33.0097 49.1919 32.8877 49.4061 32.7278 49.5904C32.403 49.9637 31.9437 50.1933 31.4503 50.2292C30.9568 50.2651 30.4692 50.1044 30.0938 49.7821L27.6307 47.6611C27.5653 47.6048 27.4896 47.562 27.4077 47.5351C27.3259 47.5081 27.2395 47.4975 27.1536 47.5039C27.0676 47.5104 26.9838 47.5336 26.9068 47.5725C26.8299 47.6113 26.7614 47.6649 26.7051 47.7302C26.6489 47.7955 26.6061 47.8712 26.5791 47.9531C26.5522 48.035 26.5416 48.1213 26.548 48.2073C26.5544 48.2932 26.5777 48.377 26.6165 48.454C26.6553 48.5309 26.7089 48.5995 26.7743 48.6557L27.5727 49.343L28.1292 49.8222C28.3143 49.9812 28.4663 50.1753 28.5762 50.3932C28.6861 50.6112 28.7519 50.8487 28.7697 51.0921C28.7876 51.3355 28.7572 51.5801 28.6802 51.8117C28.6033 52.0433 28.4813 52.2575 28.3214 52.4418C27.9966 52.8151 27.5374 53.0447 27.0439 53.0806C26.5505 53.1165 26.0629 52.9557 25.6875 52.6335C25.6813 52.628 25.6747 52.6225 25.6682 52.6174L24.0137 51.3002C24.1731 50.7499 24.1581 50.1638 23.9707 49.6225C23.7834 49.0811 23.433 48.6111 22.9677 48.277L22.6789 48.0691C22.207 47.7298 21.6401 47.5477 21.0589 47.5487C21.2208 46.9975 21.2075 46.4095 21.0206 45.8661C20.8338 45.3228 20.4827 44.851 20.016 44.5159L19.7272 44.3081C19.2552 43.9687 18.6884 43.7867 18.107 43.7878C18.269 43.2365 18.2557 42.6485 18.0688 42.1051C17.8819 41.5617 17.5308 41.0899 17.064 40.7548L16.7754 40.547C16.3284 40.2253 15.7957 40.0444 15.2452 40.0273C15.4735 39.4528 15.5031 38.8185 15.3292 38.2253C15.1553 37.632 14.788 37.114 14.2857 36.7536L13.997 36.5458C13.3987 36.1174 12.6552 35.943 11.9288 36.0607C11.2024 36.1785 10.5521 36.5788 10.1198 37.1743L9.58958 37.9101L7.79364 36.417L14.7011 23.3071C16.1416 22.9086 17.2349 23.004 17.911 23.1613C17.7166 23.4496 17.5501 23.7558 17.4139 24.0758L16.3515 26.656C16.0813 27.3123 15.8324 27.9857 15.6111 28.6587L14.5509 31.8844C14.5001 32.0389 14.5086 32.2068 14.5745 32.3555C14.6405 32.5042 14.7594 32.623 14.908 32.689L15.1363 32.7904C15.9429 33.1584 16.8295 33.316 17.7134 33.2484C18.5974 33.1808 19.4498 32.8902 20.191 32.4039C20.8303 31.9835 21.3673 31.4253 21.7627 30.7702C22.1581 30.1152 22.4018 29.3799 22.4759 28.6183C22.4814 28.5611 22.4869 28.5035 22.4907 28.4451C22.5372 28.2169 22.908 26.5957 24.0438 26.5159L25.5751 26.9465C26.1696 27.1141 26.7122 27.429 27.1525 27.8622L36.636 37.2083C36.647 37.2186 36.6579 37.2287 36.6689 37.2383L41.6519 41.5258C41.8302 41.6784 41.9764 41.8649 42.082 42.0745C42.1876 42.2842 42.2505 42.5127 42.2669 42.7468ZM40.4064 38.7236L37.5408 36.258L28.074 26.9274C27.4756 26.3387 26.7382 25.9107 25.9302 25.6831L24.3005 25.225C24.2427 25.2087 24.1829 25.2004 24.1229 25.2004H24.1202C23.1046 25.2046 22.2696 25.7573 21.7057 26.7988C21.4635 27.2546 21.2903 27.7438 21.1916 28.2504C21.188 28.2723 21.1854 28.2941 21.1839 28.316C21.1798 28.3758 21.1749 28.4348 21.1694 28.4928C21.1137 29.0599 20.9317 29.6075 20.6368 30.0951C20.3419 30.5828 19.9415 30.9982 19.465 31.3109C18.9549 31.6396 18.3762 31.8471 17.7734 31.9175C17.1707 31.9879 16.5598 31.9194 15.9876 31.7171L16.858 29.069C17.0691 28.4263 17.3064 27.7828 17.565 27.1563L18.6248 24.5822C18.8569 24.0343 19.2053 23.5434 19.6458 23.1434C20.0864 22.7435 20.6086 22.444 21.1763 22.2658L24.6529 21.1696C25.4182 20.9278 26.2374 20.9146 27.0101 21.1315L30.6127 22.1408C32.3234 22.6202 33.5272 22.6624 35.2123 22.3021C35.2533 22.2934 35.2933 22.2808 35.3319 22.2644L35.8382 22.0494L42.7124 36.5789C42.1589 37.4949 41.3602 38.2379 40.4064 38.7236ZM48.8978 35.8736C48.8767 35.9296 48.8446 35.9808 48.8032 36.024C48.7618 36.0673 48.7121 36.1017 48.6571 36.1252L45.1484 37.6405C45.0416 37.6873 44.9207 37.6907 44.8115 37.6499C44.7022 37.609 44.6132 37.5272 44.5634 37.4217L44.1075 36.4579C44.0865 36.3486 44.0381 36.2464 43.9669 36.1608L35.963 19.2443C35.937 19.1893 35.9227 19.1295 35.9208 19.0686C35.919 19.0078 35.9297 18.9472 35.9522 18.8907C35.9748 18.8341 36.0088 18.7828 36.052 18.74C36.0952 18.6971 36.1468 18.6636 36.2036 18.6416L39.8099 17.2253C39.916 17.1836 40.034 17.1837 40.14 17.2256C40.2461 17.2674 40.3323 17.3479 40.3814 17.4508L48.8844 35.5292C48.9098 35.5827 48.9241 35.6408 48.9264 35.7C48.9287 35.7592 48.919 35.8183 48.8978 35.8736Z" fill="url(#paint0_linear)"/>
    <path d="M25.1207 17.2911C26.8302 17.2891 28.5007 16.7803 29.9211 15.8291C31.3415 14.8778 32.448 13.5269 33.1008 11.9469C33.7536 10.367 33.9233 8.62898 33.5886 6.95259C33.2538 5.2762 32.4296 3.73667 31.2201 2.52859C30.0106 1.32052 28.4701 0.498133 26.7933 0.165375C25.1165 -0.167383 23.3787 0.00442715 21.7995 0.659089C20.2203 1.31375 18.8707 2.42188 17.9212 3.84341C16.9716 5.26494 16.4648 6.93606 16.4648 8.64555C16.4688 10.939 17.3824 13.1373 19.0051 14.7581C20.6278 16.3789 22.8272 17.2899 25.1207 17.2911ZM25.1207 1.3125C26.5706 1.31453 27.9873 1.74633 29.1919 2.55333C30.3965 3.36033 31.3348 4.50631 31.8882 5.84643C32.4416 7.18654 32.5854 8.66065 32.3013 10.0824C32.0172 11.5042 31.318 12.8099 30.292 13.8344C29.2661 14.8589 27.9594 15.5563 26.5372 15.8384C25.115 16.1206 23.6411 15.9747 22.3018 15.4194C20.9624 14.8641 19.8178 13.9242 19.0125 12.7185C18.2072 11.5128 17.7773 10.0954 17.7773 8.64555C17.7809 6.70001 18.556 4.83534 19.9327 3.4606C21.3094 2.08586 23.1751 1.31333 25.1207 1.3125Z" fill="#247BA0"/>
    <path d="M23.5526 12.4714C23.8661 12.6869 24.2166 12.843 24.5865 12.9318V13.2762C24.5865 13.4503 24.6556 13.6172 24.7787 13.7403C24.9018 13.8634 25.0687 13.9325 25.2428 13.9325C25.4168 13.9325 25.5837 13.8634 25.7068 13.7403C25.8299 13.6172 25.899 13.4503 25.899 13.2762V12.9044C26.3743 12.7953 26.8111 12.5591 27.1624 12.2209C27.6327 11.7518 27.8644 11.1066 27.8334 10.3552C27.7817 9.09539 26.7018 8.33239 26.3663 8.12512C26.3548 8.11779 26.3225 8.09734 26.3197 8.09592L26.2431 8.05064C26.1787 8.01236 26.1483 7.99431 26.0498 7.94334C26.0023 7.91894 25.9536 7.89704 25.9038 7.87771L25.7694 7.82543C25.7208 7.8045 25.6712 7.78624 25.6206 7.77075C25.5302 7.74142 25.4382 7.71674 25.3452 7.69681C25.2883 7.68587 25.1959 7.66728 25.1195 7.65196L25.0192 7.63184C24.387 7.50661 24.0983 7.04603 24.0925 6.64517C24.0883 6.35248 24.1783 5.91837 24.4456 5.65817C24.6474 5.46129 24.9349 5.37379 25.3252 5.38998C25.6285 5.38964 25.9237 5.48831 26.1658 5.67102C26.4079 5.85373 26.5837 6.11047 26.6666 6.40225C26.7079 6.57065 26.8142 6.71585 26.9623 6.80612C27.1103 6.89639 27.2881 6.9244 27.4567 6.88403C27.6254 6.84366 27.7712 6.73818 27.8623 6.59065C27.9534 6.44311 27.9824 6.26551 27.943 6.09665C27.8148 5.61481 27.5562 5.17765 27.1957 4.83321C26.8351 4.48878 26.3866 4.25041 25.8994 4.14431V3.71436C25.8994 3.54031 25.8303 3.37339 25.7072 3.25032C25.5842 3.12725 25.4172 3.05811 25.2432 3.05811C25.0691 3.05811 24.9022 3.12725 24.7792 3.25032C24.6561 3.37339 24.5869 3.54031 24.5869 3.71436V4.14912C24.1893 4.23859 23.8238 4.4353 23.5302 4.71787C22.8185 5.41065 22.7761 6.38267 22.7802 6.66409C22.7959 7.76385 23.6114 8.69136 24.764 8.91951L24.8625 8.9392C24.9413 8.95495 25.0364 8.97398 25.0947 8.98535C25.1228 8.99115 25.2031 9.01565 25.2382 9.02637C25.2441 9.02825 25.2499 9.03044 25.2557 9.03293C25.2643 9.03676 25.2732 9.04037 25.2821 9.04387L25.4283 9.10075C25.4351 9.10348 25.4418 9.10654 25.4476 9.1095C25.5116 9.14231 25.5315 9.15445 25.5738 9.1795L25.6596 9.23079C25.6667 9.23539 25.6735 9.23976 25.6795 9.24337C25.7631 9.29489 26.4962 9.76509 26.5227 10.4094C26.5385 10.7949 26.4448 11.0837 26.2359 11.2922C25.9006 11.6269 25.349 11.6969 25.0765 11.6846C24.6896 11.668 23.9006 11.3071 23.8344 10.7045C23.8256 10.6184 23.7998 10.5349 23.7585 10.4588C23.7172 10.3827 23.6613 10.3156 23.594 10.2612C23.5267 10.2068 23.4492 10.1663 23.3662 10.1419C23.2831 10.1176 23.196 10.1099 23.11 10.1194C23.024 10.1288 22.9406 10.1552 22.8648 10.197C22.789 10.2388 22.7222 10.2951 22.6683 10.3628C22.6144 10.4305 22.5744 10.5083 22.5506 10.5915C22.5269 10.6747 22.5198 10.7618 22.5298 10.8478C22.5997 11.4867 22.9631 12.0634 23.5526 12.4714Z" fill="#247BA0"/>
    <defs>
        <linearGradient id="paint0_linear" x1="50.2398" y1="35.3941" x2="0" y2="35.3941" gradientUnits="userSpaceOnUse">
            <stop stop-color="#0A2239"/>
            <stop offset="1" stop-color="#247BA0"/>
        </linearGradient>
    </defs>
</svg>
