<?xml version="1.0" encoding="utf-8"?>
<!-- Generator: Adobe Illustrator 18.0.0, SVG Export Plug-In . SVG Version: 6.00 Build 0)  -->
<!DOCTYPE svg PUBLIC "-//W3C//DTD SVG 1.1//EN" "http://www.w3.org/Graphics/SVG/1.1/DTD/svg11.dtd">
<svg version="1.1" id="Layer_1" xmlns="http://www.w3.org/2000/svg" xmlns:xlink="http://www.w3.org/1999/xlink" x="0px" y="0px"
	 width="24.3px" height="18.2px" viewBox="0 1 24.3 18.2" enable-background="new 0 1 24.3 18.2" xml:space="preserve">
<path fill="#FFFFFF" d="M2.9,5.4c1.6,0,2.9-1,2.9-2.2S4.5,1,2.9,1C1.3,1,0,2,0,3.2S1.3,5.4,2.9,5.4z"/>
<path fill="#FFFFFF" d="M8.6,7v12.1h5v-6c0-1.6,0.4-3.1,3-3.1c2.6,0,2.6,1.8,2.6,3.2v5.9h5v-6.7c0-3.3-0.9-5.8-6-5.8
	c-2.4,0-4.1,1-4.8,2h-0.1V7H8.6z M0.4,7h5v12.1h-5V7z"/>
</svg>
