<?xml version="1.0" encoding="utf-8"?>
<!-- Generator: Adobe Illustrator 18.0.0, SVG Export Plug-In . SVG Version: 6.00 Build 0)  -->
<!DOCTYPE svg PUBLIC "-//W3C//DTD SVG 1.1//EN" "http://www.w3.org/Graphics/SVG/1.1/DTD/svg11.dtd">
<svg width="91" height="58" viewBox="0 0 91 58" fill="none" xmlns="http://www.w3.org/2000/svg">
    <path d="M90 50C90 54.1421 86.6421 57.5 82.5 57.5L11.039 57.5C5.9362 57.5 2.32318 52.5145 3.91174 47.6652L17.6703 5.66521C18.6797 2.58379 21.5551 0.500009 24.7976 0.50001L82.5 0.500022C86.6421 0.500023 90 3.85789 90 8.00002L90 50Z" stroke="white"/>
    <path d="M54.4109 29L61.701 21.71C61.8648 21.5187 61.9504 21.2726 61.9407 21.021C61.9309 20.7693 61.8266 20.5305 61.6485 20.3525C61.4704 20.1744 61.2317 20.07 60.98 20.0603C60.7283 20.0506 60.4823 20.1362 60.291 20.3L53.0009 27.59L45.711 20.29C45.5196 20.1262 45.2736 20.0406 45.0219 20.0503C44.7702 20.06 44.5315 20.1644 44.3534 20.3425C44.1753 20.5205 44.071 20.7593 44.0612 21.011C44.0515 21.2626 44.1371 21.5087 44.301 21.7L51.591 29L44.291 36.29C44.1863 36.3797 44.1012 36.49 44.0412 36.614C43.9812 36.7381 43.9475 36.8732 43.9422 37.011C43.9368 37.1487 43.96 37.286 44.0103 37.4143C44.0606 37.5427 44.1368 37.6592 44.2343 37.7567C44.3318 37.8541 44.4483 37.9304 44.5766 37.9807C44.705 38.0309 44.8423 38.0541 44.98 38.0488C45.1177 38.0435 45.2529 38.0098 45.3769 37.9497C45.501 37.8897 45.6113 37.8047 45.701 37.7L53.0009 30.41L60.291 37.7C60.4823 37.8638 60.7283 37.9494 60.98 37.9397C61.2317 37.93 61.4704 37.8257 61.6485 37.6476C61.8266 37.4695 61.9309 37.2307 61.9407 36.9791C61.9504 36.7274 61.8648 36.4813 61.701 36.29L54.4109 29Z" fill="white"/>
</svg>
